<svg width="280" height="76" viewBox="0 0 280 76" fill="none" xmlns="http://www.w3.org/2000/svg">
<path opacity="0.3" d="M69.8 -0.00109863H53C51.6752 -0.00109863 50.6 1.0741 50.6 2.3989C50.6 3.7237 51.6752 4.7989 53 4.7989H55.4V4.8025C56.3756 4.8241 57.1628 5.6185 57.1628 6.5989C57.1628 7.5805 56.3768 8.3749 55.4 8.3953V8.3989H45.8C44.4752 8.3989 43.4 9.4741 43.4 10.7989C43.4 12.1237 44.4752 13.1989 45.8 13.1989H63.8C65.1248 13.1989 66.2 12.1237 66.2 10.7989C66.2 9.4741 65.1248 8.3989 63.8 8.3989C62.8064 8.3989 62 7.5925 62 6.5989C62 5.6053 62.8064 4.7989 63.8 4.7989H69.8C71.1248 4.7989 72.2 3.7237 72.2 2.3989C72.2 1.0741 71.1248 -0.00109863 69.8 -0.00109863V-0.00109863Z" fill="white"/>
<path opacity="0.3" d="M106.4 47.1999L129.2 47.2C130.525 47.2 131.6 46.1248 131.6 44.8C131.6 43.4752 130.525 42.4 129.2 42.4L116.8 42.4L116.8 42.3964C115.824 42.3747 115.037 41.5803 115.037 40.5999C115.037 39.6183 115.823 38.8239 116.8 38.8035L116.8 38.7999L120.4 38.7999C121.725 38.7999 122.8 37.7247 122.8 36.3999C122.8 35.0751 121.725 33.9999 120.4 33.9999L108.4 33.9999C107.075 33.9999 106 35.0751 106 36.3999C106 37.7247 107.075 38.7999 108.4 38.7999C109.394 38.7999 110.2 39.6063 110.2 40.5999C110.2 41.5935 109.394 42.3999 108.4 42.3999L106.4 42.3999C105.075 42.3999 104 43.4751 104 44.7999C104 46.1247 105.075 47.1999 106.4 47.1999Z" fill="white"/>
<path opacity="0.3" d="M25.2 62L2.4 62C1.0752 62 0 63.0752 0 64.4C0 65.7248 1.0752 66.8 2.4 66.8L14.8 66.8V66.8036C15.7756 66.8252 16.5628 67.6196 16.5628 68.6C16.5628 69.5816 15.7768 70.376 14.8 70.3964V70.4H11.2C9.8752 70.4 8.8 71.4752 8.8 72.8C8.8 74.1248 9.8752 75.2 11.2 75.2H23.2C24.5248 75.2 25.6 74.1248 25.6 72.8C25.6 71.4752 24.5248 70.4 23.2 70.4C22.2064 70.4 21.4 69.5936 21.4 68.6C21.4 67.6064 22.2064 66.8 23.2 66.8H25.2C26.5248 66.8 27.6 65.7248 27.6 64.4C27.6 63.0752 26.5248 62 25.2 62Z" fill="white"/>
<path opacity="0.3" d="M218.8 -0.00109863H202C200.675 -0.00109863 199.6 1.0741 199.6 2.3989C199.6 3.7237 200.675 4.7989 202 4.7989H204.4V4.8025C205.376 4.8241 206.163 5.6185 206.163 6.5989C206.163 7.5805 205.377 8.3749 204.4 8.3953V8.3989H194.8C193.475 8.3989 192.4 9.4741 192.4 10.7989C192.4 12.1237 193.475 13.1989 194.8 13.1989H212.8C214.125 13.1989 215.2 12.1237 215.2 10.7989C215.2 9.4741 214.125 8.3989 212.8 8.3989C211.806 8.3989 211 7.5925 211 6.5989C211 5.6053 211.806 4.7989 212.8 4.7989H218.8C220.125 4.7989 221.2 3.7237 221.2 2.3989C221.2 1.0741 220.125 -0.00109863 218.8 -0.00109863V-0.00109863Z" fill="white"/>
<path opacity="0.3" d="M254.4 47.1999L277.2 47.2C278.525 47.2 279.6 46.1248 279.6 44.8C279.6 43.4752 278.525 42.4 277.2 42.4L264.8 42.4L264.8 42.3964C263.824 42.3747 263.037 41.5803 263.037 40.5999C263.037 39.6183 263.823 38.8239 264.8 38.8035L264.8 38.7999L268.4 38.7999C269.725 38.7999 270.8 37.7247 270.8 36.3999C270.8 35.0751 269.725 33.9999 268.4 33.9999L256.4 33.9999C255.075 33.9999 254 35.0751 254 36.3999C254 37.7247 255.075 38.7999 256.4 38.7999C257.394 38.7999 258.2 39.6063 258.2 40.5999C258.2 41.5935 257.394 42.3999 256.4 42.3999L254.4 42.3999C253.075 42.3999 252 43.4751 252 44.7999C252 46.1247 253.075 47.1999 254.4 47.1999Z" fill="white"/>
<path opacity="0.3" d="M173.2 62L150.4 62C149.075 62 148 63.0752 148 64.4C148 65.7248 149.075 66.8 150.4 66.8L162.8 66.8V66.8036C163.776 66.8252 164.563 67.6196 164.563 68.6C164.563 69.5816 163.777 70.376 162.8 70.3964V70.4H159.2C157.875 70.4 156.8 71.4752 156.8 72.8C156.8 74.1248 157.875 75.2 159.2 75.2H171.2C172.525 75.2 173.6 74.1248 173.6 72.8C173.6 71.4752 172.525 70.4 171.2 70.4C170.206 70.4 169.4 69.5936 169.4 68.6C169.4 67.6064 170.206 66.8 171.2 66.8H173.2C174.525 66.8 175.6 65.7248 175.6 64.4C175.6 63.0752 174.525 62 173.2 62Z" fill="white"/>
</svg>
