<svg width="85" height="84" viewBox="0 0 85 84" fill="none" xmlns="http://www.w3.org/2000/svg">
<path opacity="0.3" d="M49.4484 12.2472L47.7516 10.5504L3.71998 54.5808C4.10518 55.3224 4.50478 56.0544 4.91878 56.7768L49.4484 12.2472V12.2472ZM1.72438 50.3736L42.2496 9.84839L40.5528 8.15039L0.763184 47.9388C1.06798 48.7584 1.38358 49.572 1.72438 50.3736V50.3736ZM77.0484 43.4484L75.3516 41.7516L34.4856 82.6164C35.2968 82.9452 36.114 83.2596 36.9432 83.5536L77.0484 43.4484V43.4484ZM27.9828 79.5192C28.716 79.9248 29.4588 80.31 30.21 80.6868L72.2472 38.6484L70.5504 36.9528L27.9828 79.5192V79.5192Z" fill="white"/>
<path opacity="0.2" d="M81.186 3.99123C78.876 1.67883 73.0836 3.72723 70.3116 6.50283L59.7648 17.0568C58.7316 16.0992 33.1164 6.96603 32.1948 7.88403L28.8516 11.2212C27.9276 12.144 27.9276 13.6392 28.8516 14.5608L47.58 29.2488L40.2 36.6336C39.6384 37.1952 38.934 38.0592 38.19 39.0888L37.896 38.7948C37.4244 38.3244 30.6996 37.4748 30.228 37.9452L28.524 39.6456C28.0536 40.1148 28.0536 40.8756 28.524 41.346L29.364 42.1824L33.8688 46.6788C32.976 48.9048 32.646 50.838 33.5088 51.7008C34.3716 52.566 36.306 52.2336 38.5344 51.3372L42.9732 55.7664L43.8564 56.6472C44.3268 57.1176 45.0888 57.1176 45.5604 56.6472L47.2644 54.948C47.7348 54.4764 46.8828 47.7648 46.4124 47.2956L46.122 47.0064C47.1456 46.2648 48.0036 45.5628 48.5628 45.0036L55.9428 37.6176L70.638 56.2872C71.562 57.2088 73.0584 57.2088 73.9812 56.2872L77.3244 52.9488C78.2472 52.0272 69.0816 26.4096 68.136 25.416L78.6732 14.8716C81.4488 12.0996 83.496 6.30243 81.186 3.99123V3.99123ZM81.186 3.99123C78.876 1.67883 73.0836 3.72723 70.3116 6.50283L59.7648 17.0568C58.7316 16.0992 33.1164 6.96603 32.1948 7.88403L28.8516 11.2212C27.9276 12.144 27.9276 13.6392 28.8516 14.5608L47.58 29.2488L40.2 36.6336C39.6384 37.1952 38.934 38.0592 38.19 39.0888L37.896 38.7948C37.4244 38.3244 30.6996 37.4748 30.228 37.9452L28.524 39.6456C28.0536 40.1148 28.0536 40.8756 28.524 41.346L29.364 42.1824L33.8688 46.6788C32.976 48.9048 32.646 50.838 33.5088 51.7008C34.3716 52.566 36.306 52.2336 38.5344 51.3372L42.9732 55.7664L43.8564 56.6472C44.3268 57.1176 45.0888 57.1176 45.5604 56.6472L47.2644 54.948C47.7348 54.4764 46.8828 47.7648 46.4124 47.2956L46.122 47.0064C47.1456 46.2648 48.0036 45.5628 48.5628 45.0036L55.9428 37.6176L70.638 56.2872C71.562 57.2088 73.0584 57.2088 73.9812 56.2872L77.3244 52.9488C78.2472 52.0272 69.0816 26.4096 68.136 25.416L78.6732 14.8716C81.4488 12.0996 83.496 6.30243 81.186 3.99123V3.99123Z" fill="#087ABA"/>
<path d="M43.8 5.39893C42.4752 5.39893 41.4 6.47413 41.4 7.79893C41.4 9.12373 42.4752 10.1989 43.8 10.1989C45.1248 10.1989 46.2 9.12373 46.2 7.79893C46.2 6.47413 45.1248 5.39893 43.8 5.39893V5.39893ZM51 7.79893C49.6752 7.79893 48.6 8.87413 48.6 10.1989C48.6 11.5237 49.6752 12.5989 51 12.5989C52.3248 12.5989 53.4 11.5237 53.4 10.1989C53.4 8.87413 52.3248 7.79893 51 7.79893ZM77.4 32.9989C77.4 31.6741 76.3248 30.5989 75 30.5989C73.6752 30.5989 72.6 31.6741 72.6 32.9989C72.6 34.3237 73.6752 35.3989 75 35.3989C76.3248 35.3989 77.4 34.3249 77.4 32.9989ZM77.4 37.7989C76.0752 37.7989 75 38.8741 75 40.1989C75 41.5237 76.0752 42.5989 77.4 42.5989C78.7248 42.5989 79.8 41.5237 79.8 40.1989C79.8 38.8741 78.7248 37.7989 77.4 37.7989ZM43.8 5.39893C42.4752 5.39893 41.4 6.47413 41.4 7.79893C41.4 9.12373 42.4752 10.1989 43.8 10.1989C45.1248 10.1989 46.2 9.12373 46.2 7.79893C46.2 6.47413 45.1248 5.39893 43.8 5.39893V5.39893ZM51 7.79893C49.6752 7.79893 48.6 8.87413 48.6 10.1989C48.6 11.5237 49.6752 12.5989 51 12.5989C52.3248 12.5989 53.4 11.5237 53.4 10.1989C53.4 8.87413 52.3248 7.79893 51 7.79893ZM77.4 32.9989C77.4 31.6741 76.3248 30.5989 75 30.5989C73.6752 30.5989 72.6 31.6741 72.6 32.9989C72.6 34.3237 73.6752 35.3989 75 35.3989C76.3248 35.3989 77.4 34.3249 77.4 32.9989ZM77.4 37.7989C76.0752 37.7989 75 38.8741 75 40.1989C75 41.5237 76.0752 42.5989 77.4 42.5989C78.7248 42.5989 79.8 41.5237 79.8 40.1989C79.8 38.8741 78.7248 37.7989 77.4 37.7989Z" fill="#23609E"/>
<path d="M40.2973 36.396L48.8161 44.898C49.2865 45.3672 50.1385 52.0788 49.6681 52.5504L47.9641 54.2496C47.4925 54.72 46.7305 54.72 46.2601 54.2496L45.3769 53.3688L38.6197 46.626L31.7665 39.7848L30.9265 38.9484C30.4561 38.478 30.4561 37.7172 30.9265 37.248L32.6305 35.5476C33.1009 35.076 39.8257 35.9256 40.2973 36.396V36.396ZM62.1769 14.6652L70.5349 23.01C71.4577 23.9328 80.6521 49.6284 79.7281 50.55L76.3849 53.8884C75.4609 54.81 73.9645 54.81 73.0417 53.8884L54.6241 30.4896L31.2529 12.162C30.3289 11.2392 30.3289 9.74402 31.2529 8.82242L34.5961 5.48522C35.5201 4.56362 61.2541 13.7424 62.1769 14.6652V14.6652Z" fill="#EAEAEA"/>
<path d="M83.586 1.59121C85.896 3.90241 83.8488 9.69961 81.0768 12.4716L50.9664 42.606C48.1944 45.3804 38.22 51.6144 35.9112 49.302C33.6012 46.9908 39.8304 37.0092 42.6012 34.2348L72.7128 4.10281C75.4836 1.32721 81.276 -0.721195 83.586 1.59121V1.59121Z" fill="white"/>
<path d="M45.3575 23.2238L50.1131 26.9522L62.2883 14.777L62.1767 14.6654C61.9091 14.399 59.5619 13.4402 56.3447 12.2366L45.3575 23.2238V23.2238Z" fill="#DEDEDE"/>
<path d="M45.0012 36.6348L75.1128 6.5028C77.3844 4.2288 81.6792 2.448 84.4284 3.1476C84.2748 2.5416 84.0036 2.00881 83.5872 1.59121C81.2772 -0.721195 75.4848 1.32721 72.7128 4.10281L42.6012 34.2348C39.8292 37.0092 33.6012 46.9908 35.9112 49.302C36.3288 49.7208 37.002 49.8516 37.8324 49.7808C38.1456 46.0152 42.7296 38.9088 45.0012 36.6348V36.6348Z" fill="#F2F2F2"/>
</svg>
