<svg width="80" height="80" viewBox="0 0 80 80" fill="none" xmlns="http://www.w3.org/2000/svg">
<g clip-path="url(#clip0)">
<path d="M40.2897 64.5597C58.1228 64.5597 72.5794 50.1075 72.5794 32.2798C72.5794 14.4522 58.1228 0 40.2897 0C22.4566 0 8 14.4522 8 32.2798C8 50.1075 22.4566 64.5597 40.2897 64.5597Z" fill="#79E4FF"/>
<path d="M72.2716 53.6967C72.0949 53.5701 71.8177 53.5701 71.6411 53.6967L64.9588 58.4853L61.0973 55.718C60.9946 55.6446 60.8337 55.6446 60.7312 55.718L56.823 58.5187H25.407L13.7496 50.1646C13.4433 49.9451 12.9634 49.9451 12.6574 50.1646L1 58.5187H1.00064L1 79H78.9997L79 58.5187L72.2716 53.6967Z" fill="#F6B330"/>
<path d="M21.2986 60.935C20.293 60.935 19.4776 61.7502 19.4776 62.756V68.3806H37.4946V60.9349H21.2986V60.935Z" fill="#F6B330"/>
<path d="M23.04 69.1798C22.5994 69.1798 22.2408 68.8223 22.2408 68.3803V62.7559C22.2408 61.3106 23.4158 60.1355 24.8594 60.1355C25.3002 60.1355 25.6589 60.4928 25.6589 60.935C25.6589 61.3771 25.3002 61.7342 24.8594 61.7342C24.2973 61.7342 23.8397 62.1933 23.8397 62.7557V68.3802C23.8395 68.8223 23.481 69.1798 23.04 69.1798Z" fill="#FFEAC9"/>
<path d="M57.3671 60.935H22.6311V55.3104C22.6311 54.3046 23.4466 53.4894 24.452 53.4894H55.5459C56.5517 53.4894 57.3669 54.3046 57.3669 55.3104V60.935H57.3671Z" fill="#F6B330"/>
<path d="M54.1206 53.4894H25.8774V47.8648C25.8774 46.8591 26.6926 46.0439 27.6984 46.0439H52.2994C53.3051 46.0439 54.1206 46.8591 54.1206 47.8648V53.4894V53.4894Z" fill="#F6B330"/>
<path d="M26.1928 61.7344C25.752 61.7344 25.3933 61.3771 25.3933 60.9352V55.3104C25.3933 53.8654 26.5683 52.6904 28.0147 52.6904C28.4555 52.6904 28.8142 53.0477 28.8142 53.4896C28.8142 53.9318 28.4555 54.2891 28.0147 54.2891C27.4526 54.2891 26.9922 54.7482 26.9922 55.3102V60.9349C26.9922 61.3771 26.6334 61.7344 26.1928 61.7344Z" fill="#FFEAC9"/>
<path d="M29.4386 54.2893C28.9979 54.2893 28.6394 53.932 28.6394 53.4898V47.8653C28.6394 46.4189 29.8144 45.2435 31.2608 45.2435C31.7016 45.2435 32.0603 45.6011 32.0603 46.043C32.0603 46.4851 31.7016 46.8426 31.2608 46.8426C30.6959 46.8426 30.2383 47.3016 30.2383 47.8651V53.4896C30.2381 53.932 29.8794 54.2893 29.4386 54.2893Z" fill="#FFEAC9"/>
<path d="M53.8069 61.7344C53.3661 61.7344 53.0074 61.3771 53.0074 60.9352V55.3104C53.0074 54.7483 52.5498 54.2893 51.9848 54.2893C51.544 54.2893 51.1853 53.932 51.1853 53.4898C51.1853 53.0477 51.544 52.6906 51.9848 52.6906C53.4312 52.6906 54.6063 53.8656 54.6063 55.3106V60.9352C54.6061 61.3771 54.2474 61.7344 53.8069 61.7344Z" fill="#FFEAC9"/>
<path d="M50.5579 54.2893C50.1173 54.2893 49.7584 53.932 49.7584 53.4898V47.8653C49.7584 47.3018 49.3008 46.8427 48.7387 46.8427C48.2981 46.8427 47.9392 46.4851 47.9392 46.0432C47.9392 45.6011 48.2982 45.2437 48.7387 45.2437C50.1822 45.2437 51.3576 46.419 51.3576 47.8654V53.4899C51.3576 53.932 50.9989 54.2893 50.5579 54.2893Z" fill="#FFEAC9"/>
<path d="M51.0778 41.0377L58.6235 32.7722C59.5454 31.7622 59.8891 30.352 59.535 29.0315L57.5462 21.6104C56.5882 18.0349 53.348 15.549 49.6464 15.549H30.3518C26.6499 15.549 23.4101 18.035 22.4517 21.6104L20.4629 29.0315C20.1091 30.352 20.4528 31.7622 21.3744 32.7722L28.9202 41.0377H51.0778Z" fill="#D5870E"/>
<path d="M36.2264 68.3816H32.7493H26.9672H21.1848H18.0951C16.6082 68.3816 15.4027 69.5867 15.4027 71.0736V78.6003H21.1848H26.9672H32.7493H37.4946V69.6496C37.4946 68.9493 36.9267 68.3816 36.2264 68.3816Z" fill="#F6B330"/>
<path d="M61.903 68.3816H58.813H53.0309H47.2485H43.7717C43.0714 68.3816 42.5035 68.9491 42.5035 69.6494V78.6003H47.2485H53.0309H58.813H64.595V71.0736C64.595 69.5867 63.3899 68.3816 61.903 68.3816Z" fill="#F6B330"/>
<path d="M37.4946 72.4669V69.6496C37.4946 68.9493 36.9267 68.3818 36.2264 68.3818H18.0952C16.6083 68.3818 15.4029 69.5869 15.4029 71.0738V72.4669H37.4946Z" fill="#FFEAC9"/>
<path d="M64.5951 72.4669V71.0738C64.5951 69.5869 63.3899 68.3818 61.9031 68.3818H43.7719C43.0715 68.3818 42.5037 68.9493 42.5037 69.6496V72.4669H64.5951Z" fill="#FFEAC9"/>
<path d="M42.5037 60.935H37.4945V70.0424H42.5037V60.935Z" fill="#D5870E"/>
<path d="M42.5037 70.0424H37.4945V78.6003H42.5037V70.0424Z" fill="#D5870E"/>
<path d="M60.5203 62.7562C60.5203 61.7504 59.7051 60.9352 58.6994 60.9352H42.5037V68.381H60.5203V62.7562Z" fill="#F6B330"/>
<path d="M44.4152 36.0971H35.5831C31.7514 36.0971 28.6453 39.2034 28.6453 43.0349V46.0437H51.3528V43.0349C51.353 39.2034 48.2467 36.0971 44.4152 36.0971Z" fill="#F6B330"/>
<path d="M56.9593 69.1798C56.5187 69.1798 56.1598 68.8222 56.1598 68.3803V62.7558C56.1598 62.1934 55.7022 61.7344 55.1373 61.7344C54.6966 61.7344 54.3381 61.3771 54.3381 60.9352C54.3381 60.493 54.6968 60.1357 55.1373 60.1357C56.5837 60.1357 57.759 61.3107 57.759 62.756V68.3805C57.7589 68.8222 57.4 69.1798 56.9593 69.1798Z" fill="#FFEAC9"/>
<path d="M37.1448 13.3826L30.3517 15.549L32.464 28.2621C32.7408 29.9291 34.1829 31.1514 35.8728 31.1514H39.999H44.1253C45.8149 31.1514 47.257 29.9291 47.5341 28.2621L49.6464 15.549L42.8533 13.3826C40.9965 12.7904 39.0014 12.7904 37.1448 13.3826Z" fill="#F6B330"/>
<path d="M38.2779 28.7501H35.8738C35.3626 28.7501 34.9246 28.3842 34.8315 27.88L33.1731 17.888C33.1 17.4515 33.3936 17.0405 33.8315 16.9669C34.2579 16.9006 34.6762 17.1917 34.7498 17.6253L36.3344 27.1512H38.2781C38.7187 27.1512 39.0776 27.5085 39.0776 27.9504C39.0774 28.3928 38.7186 28.7501 38.2779 28.7501Z" fill="#FFEAC9"/>
<path d="M45.9727 39.9229L45.7106 39.4424C44.5087 37.2387 43.8858 34.8394 43.8858 32.4109V31.1514H36.1123V32.4109C36.1123 34.8394 35.4895 37.2386 34.2875 39.4424L34.0255 39.9229" fill="#F6B330"/>
<path d="M29.6907 20.2838C28.3731 20.2838 27.3048 21.3518 27.3048 22.6694C27.3048 23.9874 28.3731 25.0554 29.6907 25.0554H31.9312L31.1382 20.2837H29.6907V20.2838Z" fill="#F6B330"/>
<path d="M50.3072 20.2838H48.8597L48.0671 25.0555H50.3072C51.6251 25.0555 52.6931 23.9875 52.6931 22.6696C52.6931 21.3518 51.6251 20.2838 50.3072 20.2838Z" fill="#F6B330"/>
<path d="M40.2763 17.6069H39.7217C38.8969 17.6069 38.2048 16.9853 38.1166 16.1654L37.6237 11.5877C37.5209 10.6331 38.2691 9.80048 39.2288 9.80048H40.7691C41.7293 9.80048 42.4769 10.633 42.3742 11.5877L41.8813 16.1654C41.7933 16.9851 41.1009 17.6069 40.2763 17.6069Z" fill="#F6B330"/>
<path d="M23.3076 36.0775L22.9603 35.6976C22.6609 35.3714 22.6835 34.8656 23.0112 34.5674C23.336 34.2695 23.8443 34.2964 24.1411 34.6183L24.4884 34.9984C24.7878 35.3245 24.7652 35.8304 24.4376 36.1284C24.2851 36.268 24.0902 36.3372 23.898 36.3372C23.6804 36.3372 23.4659 36.2498 23.3076 36.0775ZM34.9521 21.7208H36.5736C36.9155 21.7208 37.1952 22.0005 37.1952 22.3437V23.8538C37.1952 24.2959 37.5539 24.6533 37.9944 24.6533C38.4352 24.6533 38.7939 24.2957 38.7939 23.8538V22.3437C38.7939 21.1178 37.7996 20.1221 36.5734 20.1221H34.952C34.5112 20.1221 34.1524 20.4794 34.1524 20.9213C34.1526 21.3637 34.5113 21.7208 34.9521 21.7208ZM42.0004 24.6533C42.4411 24.6533 42.8 24.2957 42.8 23.8538V22.3437C42.8 22.0007 43.0796 21.7208 43.4214 21.7208H45.0457C45.4865 21.7208 45.8452 21.3636 45.8452 20.9213C45.8452 20.4792 45.4865 20.1221 45.0457 20.1221H43.4214C42.1955 20.1221 41.2009 21.1178 41.2009 22.3437V23.8538C41.2008 24.2957 41.5598 24.6533 42.0004 24.6533ZM32.7488 56.413H32.1667C31.7259 56.413 31.3672 56.7703 31.3672 57.2125C31.3672 57.6546 31.7259 58.0117 32.1667 58.0117H32.7488C33.1894 58.0117 33.548 57.6544 33.548 57.2125C33.548 56.7703 33.1892 56.413 32.7488 56.413ZM52.9272 63.8597H52.3425C51.9019 63.8597 51.543 64.217 51.543 64.6592C51.543 65.1013 51.902 65.4584 52.3425 65.4584H52.9272C53.368 65.4584 53.7267 65.1012 53.7267 64.6592C53.7267 64.2168 53.368 63.8597 52.9272 63.8597ZM46.6785 48.9679H45.9725C45.5317 48.9679 45.1729 49.3252 45.1729 49.7671C45.1729 50.2093 45.5317 50.5666 45.9725 50.5666H46.6785C47.119 50.5666 47.4781 50.2093 47.4781 49.7671C47.4781 49.3252 47.1192 48.9679 46.6785 48.9679ZM2.95932 77.8023H0.798201C0.357561 77.8023 -0.000999451 78.1599 -0.000999451 78.6018C-0.000999451 79.0437 0.357721 79.4013 0.798201 79.4013H2.95932C3.40012 79.4013 3.75884 79.0437 3.75884 78.6018C3.75884 78.1599 3.40028 77.8023 2.95932 77.8023ZM75.4083 78.6018C75.4083 79.0439 75.0496 79.4013 74.6091 79.4013H55.9217C55.4812 79.4013 55.1222 79.0437 55.1222 78.6018C55.1222 78.1599 55.4812 77.8023 55.9217 77.8023H58.0123V69.1821H53.8285V78.6018C53.8285 79.0439 53.4694 79.4013 53.0289 79.4013C52.5885 79.4013 52.2294 79.0437 52.2294 78.6018V69.1821H48.0485V77.8023H50.139C50.5796 77.8023 50.9382 78.1599 50.9382 78.6018C50.9382 79.0437 50.5795 79.4013 50.139 79.4013H29.5846C29.144 79.4013 28.7851 79.0437 28.7851 78.6018C28.7851 78.1599 29.1441 77.8023 29.5846 77.8023H31.9491V69.1821H27.7652V78.6018C27.7652 79.0439 27.4065 79.4013 26.9657 79.4013C26.5251 79.4013 26.1665 79.0437 26.1665 78.6018V69.1821H21.9827V77.8023H23.0392C23.48 77.8023 23.8387 78.1599 23.8387 78.6018C23.8387 79.0437 23.48 79.4013 23.0392 79.4013H6.07804C5.6374 79.4013 5.27884 79.0437 5.27884 78.6018C5.27884 78.1599 5.63756 77.8023 6.07804 77.8023H14.604V71.0746C14.604 69.1495 16.1689 67.5831 18.0955 67.5831H18.6776V62.7568C18.6776 61.3116 19.8529 60.1365 21.2993 60.1365H21.8302V55.3112C21.8302 53.8663 23.0056 52.6912 24.452 52.6912H25.0763V47.8661C25.0763 46.4197 26.2516 45.2444 27.698 45.2444H27.8449V43.0354C27.8449 42.432 27.9308 41.8511 28.0622 41.2871L25.2939 38.254C24.9945 37.9279 25.02 37.422 25.3448 37.124C25.6724 36.8276 26.1811 36.8501 26.4747 37.1749L28.6876 39.5991C29.8694 37.2432 32.2038 35.5906 34.958 35.3652C35.1779 34.3896 35.3113 33.4004 35.3113 32.4119V31.8509C34.6086 31.7554 33.9636 31.5136 33.411 31.1167H21.324C21.4646 31.5202 21.6648 31.9055 21.9633 32.2338L22.5144 32.8356C22.8108 33.1604 22.7912 33.6676 22.4635 33.9655C22.311 34.1055 22.1161 34.1746 21.924 34.1746C21.7064 34.1746 21.4918 34.0869 21.3336 33.9146L20.7825 33.3128C20.0353 32.4936 19.6384 31.4637 19.5673 30.397C19.5638 30.3666 19.534 30.3484 19.534 30.3172C19.534 30.2992 19.5516 30.2888 19.5529 30.2714C19.5339 29.7898 19.5627 29.3047 19.6923 28.8242L21.6782 21.4028C22.7139 17.5426 26.194 14.8423 30.1774 14.7644L36.9019 12.6199C36.9104 12.617 36.9187 12.616 36.927 12.6138L36.8254 11.6736C36.7548 10.9927 36.9753 10.3106 37.4329 9.80197C37.8905 9.29205 38.546 9.00101 39.2296 9.00101H40.7691C41.4529 9.00101 42.1053 9.29205 42.5629 9.80053C43.0205 10.309 43.2409 10.9912 43.1704 11.6722L43.0694 12.6132C43.0787 12.616 43.088 12.617 43.0969 12.6199L49.8185 14.7644C53.8019 14.8424 57.2851 17.5426 58.3206 21.4028L60.3094 28.8242C60.4361 29.301 60.4651 29.7816 60.4462 30.2588C60.4483 30.281 60.4705 30.2943 60.4705 30.3172C60.4705 30.3576 60.4336 30.3816 60.4275 30.4207C60.3497 31.4794 59.9537 32.5004 59.2134 33.3128L51.934 41.2861C52.0654 41.8503 52.151 42.4311 52.151 43.0351V45.244H52.2979C53.7443 45.244 54.9193 46.4194 54.9193 47.8658V52.6909H55.5465C56.99 52.6909 58.1654 53.866 58.1654 55.3109V60.136H58.6993C60.1457 60.136 61.3208 61.3111 61.3208 62.7564V67.5826H61.9029C63.8294 67.5826 65.3944 69.149 65.3944 71.0741V77.8018H74.6096C75.0496 77.8023 75.4083 78.1597 75.4083 78.6018ZM38.2942 61.7352V68.3812V69.244H41.704V68.3812V61.7352H38.2942ZM38.2942 77.8023H41.704V70.8431H38.2942V77.8023V77.8023ZM58.6988 61.7352H57.3653H43.3027V67.5815H59.7214V65.4584H55.9217C55.4812 65.4584 55.1222 65.1012 55.1222 64.6592C55.1222 64.217 55.4812 63.8597 55.9217 63.8597H59.7214V62.7567C59.7214 62.1943 59.2638 61.7352 58.6988 61.7352ZM58.032 32.2341C58.3308 31.9061 58.5313 31.521 58.6718 31.117H46.5859C46.0328 31.5144 45.3868 31.7568 44.6838 31.8517V32.412C44.6838 33.3984 44.8174 34.3869 45.0371 35.3621C47.7928 35.586 50.1272 37.2399 51.3086 39.598L58.032 32.2341ZM56.5081 21.0839H53.0073C53.288 21.558 53.4925 22.0802 53.4925 22.67C53.4925 23.26 53.2877 23.782 53.007 24.2564H57.4257L56.7723 21.8183C56.7043 21.5636 56.6016 21.3261 56.5081 21.0839ZM50.3057 21.0839H49.5374L49.1128 23.6351L49.0096 24.2565H50.3059C51.1816 24.2565 51.8934 23.5447 51.8934 22.6701C51.8932 21.7959 51.1814 21.0839 50.3057 21.0839ZM47.923 29.5178H58.7995C58.783 29.4244 58.7859 29.3306 58.7611 29.2381L57.8545 25.8552H50.3059H48.7444L48.323 28.3948C48.2548 28.801 48.0924 29.1629 47.923 29.5178ZM50.3125 16.4052L49.8016 19.4852H50.3057H55.6675C54.4384 17.745 52.491 16.605 50.3125 16.4052ZM38.4182 11.5031L38.9126 16.0794C38.9552 16.4948 39.3025 16.8084 39.7206 16.8084H40.2742C40.6924 16.8084 41.04 16.4948 41.088 16.078L41.5766 11.5031C41.602 11.27 41.5315 11.0455 41.3733 10.8701C41.2179 10.6965 41.0032 10.6005 40.7686 10.6005H39.2291C38.9945 10.6005 38.7798 10.6965 38.6216 10.8716C38.4662 11.0469 38.3928 11.27 38.4182 11.5031ZM31.2544 16.102L33.2515 28.1322C33.4662 29.4189 34.568 30.3527 35.8729 30.3527H36.1104H43.8846H44.1248C45.427 30.3527 46.5286 29.4178 46.7462 28.1308L47.2782 24.9271C47.2782 24.9263 47.2774 24.9253 47.2774 24.9245L48.0373 20.3565L48.7437 16.1021L42.8945 14.2365L42.6784 16.2504C42.5427 17.4821 41.5088 18.4072 40.2742 18.4072H39.7206C38.4833 18.4072 37.4521 17.4807 37.3193 16.2504L37.1017 14.237L31.2544 16.102ZM21.1979 29.5178H32.0737C31.9044 29.1626 31.7422 28.8007 31.6752 28.3948L31.2528 25.8552H29.6889H22.1438L21.2369 29.2396C21.2118 29.3316 21.2147 29.425 21.1979 29.5178ZM22.5723 24.2564H26.99C26.71 23.782 26.5056 23.26 26.5056 22.67C26.5056 22.0802 26.7099 21.558 26.9899 21.0839H23.4897C23.3963 21.326 23.2939 21.5636 23.2259 21.8183L22.5723 24.2564ZM30.46 21.0839H29.6891C28.8163 21.0839 28.1044 21.7957 28.1044 22.67C28.1044 23.5445 28.8163 24.2564 29.6891 24.2564H30.9859L30.5164 21.4229L30.46 21.0839ZM24.3299 19.4852H29.6891H30.1945L29.6825 16.4052C27.5044 16.605 25.5579 17.745 24.3299 19.4852ZM29.4435 45.2444H50.5517V43.0354C50.5517 40.028 48.3752 37.5311 45.5164 37.0092C45.7667 37.709 46.0524 38.3991 46.4129 39.0607L46.6728 39.5394C46.8876 39.9279 46.7437 40.4136 46.3566 40.6256C46.2352 40.6919 46.1024 40.7231 45.9725 40.7231C45.6899 40.7231 45.4158 40.5732 45.2718 40.3077L45.0089 39.8276C43.7491 37.518 43.0852 34.9544 43.0852 32.4119V31.9514H36.9097V32.4119C36.9097 34.9602 36.2459 37.5237 34.9889 39.8261L34.7289 40.3048C34.5201 40.6933 34.0312 40.8319 33.6441 40.6271C33.2571 40.4165 33.1131 39.9319 33.3222 39.5423L33.582 39.0618C33.9419 38.4023 34.2272 37.7146 34.4771 37.0168C31.6204 37.5402 29.4436 40.0303 29.4436 43.0352V45.2444H29.4435ZM26.6752 52.6912H53.3201V50.5668H49.6449C49.2041 50.5668 48.8454 50.2095 48.8454 49.7672C48.8454 49.3252 49.2041 48.968 49.6449 48.968H53.3201V47.8661C53.3201 47.3026 52.8625 46.8436 52.2976 46.8436H51.351H28.644H27.6977C27.1328 46.8436 26.6752 47.3026 26.6752 47.8661V52.6912V52.6912ZM23.4291 60.1364H37.4945H42.503H56.5659V55.3112C56.5659 54.7492 56.1083 54.2901 55.5459 54.2901H54.1195H25.8755H24.4516C23.8867 54.2901 23.4291 54.7492 23.4291 55.3112V56.4132H29.1411C29.5817 56.4132 29.9406 56.7704 29.9406 57.2127C29.9406 57.6548 29.5816 58.0119 29.1411 58.0119H23.4291V60.1364ZM20.2763 67.5815H36.695V61.7352H22.6296H21.2992C20.7339 61.7352 20.2763 62.1943 20.2763 62.7567V67.5815ZM20.3836 77.8023V69.1821H18.0955C17.0532 69.1821 16.2027 70.0309 16.2027 71.0746V77.8023H20.3836ZM33.548 77.8023H36.695V70.0436V69.6511C36.695 69.3925 36.4833 69.1821 36.226 69.1821H33.548V77.8023ZM46.4497 77.8023V69.1821H43.7716C43.5145 69.1821 43.3027 69.3924 43.3027 69.6511V70.0436V77.8023H46.4497ZM59.6112 77.8023H63.795V71.0746C63.795 70.0309 62.9446 69.1821 61.9022 69.1821H59.6112V77.8023ZM79.1966 77.8023H78.0496C77.6089 77.8023 77.2504 78.1599 77.2504 78.6018C77.2504 79.0437 77.6091 79.4013 78.0496 79.4013H79.1966C79.6373 79.4013 79.9961 79.0437 79.9961 78.6018C79.9961 78.1599 79.6373 77.8023 79.1966 77.8023Z" fill="#231F20"/>
</g>
<defs>
<clipPath id="clip0">
<rect width="80" height="80" fill="white"/>
</clipPath>
</defs>
</svg>
