<svg width="67" height="80" viewBox="0 0 67 80" fill="none" xmlns="http://www.w3.org/2000/svg">
<path d="M33.2897 74.5597C51.1228 74.5597 65.5794 60.1075 65.5794 42.2798C65.5794 24.4522 51.1228 10 33.2897 10C15.4566 10 1 24.4522 1 42.2798C1 60.1075 15.4566 74.5597 33.2897 74.5597Z" fill="#79E4FF"/>
<path d="M9.27516 55.6142C7.47959 55.6142 6.02386 57.0692 6.02386 58.8643C6.02386 60.6594 7.47959 62.1145 9.27516 62.1145H22.4208C24.2164 62.1145 25.6721 60.6594 25.6721 58.8643C25.6721 57.0692 24.2164 55.6142 22.4208 55.6142H22.3493C22.3493 54.3124 21.2938 53.2571 19.9916 53.2571C18.6895 53.2571 17.634 54.3125 17.634 55.6142C17.634 53.3482 15.7965 51.5115 13.5298 51.5115C11.2632 51.5115 9.42605 53.3482 9.42605 55.6142H9.27516Z" fill="white"/>
<path d="M51.5372 22.5351C49.9919 22.5351 48.7395 23.7877 48.7395 25.3327C48.7395 26.8777 49.9919 28.1304 51.5372 28.1304H62.8494C64.3944 28.1304 65.6471 26.8777 65.6471 25.3327C65.6471 23.7877 64.3944 22.5351 62.8494 22.5351H62.7878C62.7878 21.4147 61.8794 20.5064 60.7591 20.5064C59.6387 20.5064 58.7304 21.4147 58.7304 22.5351C58.7304 20.5848 57.1492 19.0034 55.1988 19.0034C53.2483 19.0034 51.6671 20.5846 51.6671 22.5351H51.5372Z" fill="white"/>
<path d="M37.7979 79.2013V68.4992H27.8229V79.2013" fill="#D5870E"/>
<path d="M24.4897 79.2013V68.4992H27.8229V79.2013" fill="#F6B330"/>
<path d="M37.7979 79.2013V68.4992H41.1311V79.2013" fill="#F6B330"/>
<path d="M32.8104 12.1786L32.6192 13.0798C31.6758 17.5252 30.2702 21.8599 28.4252 26.0129L27.8295 27.3538H37.7912L37.1953 26.0129C35.3503 21.86 33.9447 17.5253 33.0016 13.0798L32.8104 12.1786Z" fill="#7A7979"/>
<path d="M37.798 35.9768H27.8229L24.4897 43.5503H41.1312L37.798 35.9768Z" fill="#7A7979"/>
<path d="M41.1312 43.5503H24.4897V46.4868H41.1312V43.5503Z" fill="#D5870E"/>
<path d="M43.4202 63.9499H22.2003V66.6162C22.2003 67.6562 23.0436 68.4991 24.0833 68.4991H41.5372C42.5773 68.4991 43.4202 67.6562 43.4202 66.6162V63.9499V63.9499Z" fill="#F6B330"/>
<path d="M41.1312 46.4868H24.4897V51.0359H41.1312V46.4868Z" fill="#F6B330"/>
<path d="M43.4202 63.9499H22.2003V52.9189C22.2003 51.8788 23.0436 51.0359 24.0833 51.0359H41.5372C42.5773 51.0359 43.4202 51.8788 43.4202 52.9189V63.9499V63.9499Z" fill="#F6B330"/>
<path d="M39.2673 51.0359H26.3533V63.9499H39.2673V51.0359Z" fill="#D5870E"/>
<path d="M37.7981 33.0405H27.8229V35.9767H37.7981V33.0405Z" fill="#D5870E"/>
<path d="M32.8104 61.3452C30.6827 61.3452 28.958 59.6205 28.958 57.4931C28.958 55.3653 30.6827 53.6406 32.8104 53.6406C34.9378 53.6406 36.6625 55.3653 36.6625 57.4931C36.6625 59.6205 34.9378 61.3452 32.8104 61.3452Z" fill="white"/>
<path d="M37.7981 27.3538H27.8229V33.0405H37.7981V27.3538Z" fill="#F6B330"/>
<path d="M32.8104 5.74753C33.686 5.74753 34.3958 5.03775 34.3958 4.1622C34.3958 3.28665 33.686 2.57687 32.8104 2.57687C31.9349 2.57687 31.2251 3.28665 31.2251 4.1622C31.2251 5.03775 31.9349 5.74753 32.8104 5.74753Z" fill="#F6B330"/>
<path d="M1.9719 62.1147C1.9719 62.5569 1.61429 62.9142 1.17236 62.9142H0.799544C0.357451 62.9142 0 62.5569 0 62.1147C0 61.6726 0.357611 61.3154 0.799544 61.3154H1.17236C1.61429 61.3154 1.9719 61.6726 1.9719 62.1147ZM66.4465 25.3324C66.4465 27.317 64.8332 28.93 62.8501 28.93H51.9156H51.5369H46.8179C46.3758 28.93 46.0183 28.5727 46.0183 28.1308C46.0183 27.6885 46.376 27.3312 46.8179 27.3312H48.6271C48.2272 26.7515 47.9394 26.0888 47.9394 25.3326C47.9394 23.5556 49.2344 22.0752 50.9311 21.7871C51.287 19.7531 53.0654 18.2034 55.1983 18.2034C56.7958 18.2034 58.1955 19.0735 58.9458 20.3646C59.4373 19.9536 60.0703 19.7065 60.7593 19.7065C62.0646 19.7065 63.1664 20.5963 63.4914 21.8013C65.1906 22.1218 66.4465 23.5823 66.4465 25.3324ZM64.8472 25.3324C64.8472 24.2319 63.9504 23.3349 62.8501 23.3349C62.408 23.3349 61.9883 22.9777 61.9883 22.5357C61.9883 21.8576 61.4375 21.3054 60.7594 21.3054C60.0816 21.3054 59.5292 21.8576 59.5292 22.5357C59.5292 22.9778 59.1719 23.3349 58.7299 23.3349C58.2877 23.3349 57.9304 22.9777 57.9304 22.5357C57.9304 21.0285 56.7044 19.8025 55.1986 19.8025C53.6928 19.8025 52.4665 21.0285 52.4665 22.5357C52.4665 22.9778 52.1092 23.3349 51.6673 23.3349H51.5371C50.4354 23.3349 49.5385 24.2321 49.5385 25.3324C49.5385 26.4341 50.4356 27.3311 51.5371 27.3311H51.9158H62.8502C63.9506 27.3312 64.8472 26.4341 64.8472 25.3324ZM43.9872 27.3312H43.4208C42.9786 27.3312 42.6213 27.6885 42.6213 28.1308C42.6213 28.5729 42.9786 28.93 43.4208 28.93H43.9872C44.4293 28.93 44.7865 28.5727 44.7865 28.1308C44.7866 27.6885 44.4293 27.3312 43.9872 27.3312ZM44.2202 52.9192V54.7144C44.2202 55.1565 43.8629 55.514 43.421 55.514C42.9787 55.514 42.6214 55.1564 42.6214 54.7144V52.9192C42.6214 52.3219 42.1355 51.8358 41.538 51.8358H41.1313H40.0676V63.1501H42.6214V61.1204C42.6214 60.6781 42.9787 60.3208 43.421 60.3208C43.8631 60.3208 44.2202 60.6781 44.2202 61.1204V63.9496V66.6166C44.2202 67.9563 43.2159 69.0214 41.9305 69.2192V79.2008C41.9305 79.6429 41.5732 80 41.1313 80C40.6891 80 40.3318 79.6427 40.3318 79.2008V72.6183H38.5972V79.2008C38.5972 79.6429 38.2399 80 37.7976 80C37.3555 80 36.9984 79.6427 36.9984 79.2008V72.6183H33.6097V79.2008C33.6097 79.6429 33.252 80 32.8101 80C32.3682 80 32.0106 79.6427 32.0106 79.2008V72.6183H28.6221V79.2008C28.6221 79.6429 28.2645 80 27.8226 80C27.3805 80 27.0231 79.6427 27.0231 79.2008V72.6183H25.2899V79.2008C25.2899 79.6429 24.9326 80 24.4903 80C24.0482 80 23.6911 79.6427 23.6911 79.2008V69.2192C22.4058 69.0213 21.4014 67.9561 21.4014 66.6166V63.9496V62.9142H10.2397H9.27484H3.57211C3.12985 62.9142 2.77256 62.5569 2.77256 62.1147C2.77256 61.6726 3.12985 61.3154 3.57211 61.3154H6.07266C5.54881 60.633 5.2248 59.7898 5.2248 58.8646C5.2248 56.8321 6.729 55.1442 8.6841 54.8572C9.04827 52.511 11.084 50.7114 13.5305 50.7114C15.3963 50.7114 17.0221 51.758 17.8498 53.295C18.4134 52.7752 19.1663 52.4573 19.9913 52.4573C20.5115 52.4573 20.9939 52.5929 21.4206 52.8224C21.4696 51.5291 22.4383 50.509 23.6906 50.3162V46.4867V43.5498V35.9774C23.6906 35.5351 24.0479 35.1779 24.4899 35.1779C24.9321 35.1779 25.2894 35.5351 25.2894 35.9774V39.7482L27.0226 35.8096V33.0405V27.3538C27.0226 27.3469 27.0298 27.3431 27.0298 27.3365V19.7798C27.0298 19.3377 27.3871 18.9806 27.829 18.9806C28.2712 18.9806 28.6285 19.3379 28.6285 19.7798V23.4265C29.9887 20.0208 31.075 16.4999 31.8365 12.9135L32.0101 12.0946V9.70157H30.8236C30.3816 9.70157 30.0241 9.34396 30.0241 8.90203C30.0241 8.46009 30.3817 8.10248 30.8236 8.10248H32.0101V6.38563C31.0917 6.05378 30.4254 5.19472 30.4254 4.163C30.4254 3.13017 31.0917 2.27111 32.0101 1.93926V0.799544C32.0101 0.357451 32.3677 0 32.8096 0C33.2516 0 33.6092 0.357611 33.6092 0.799544V1.93878C34.5289 2.27031 35.1953 3.12969 35.1953 4.16284C35.1953 5.19472 34.5287 6.05426 33.6092 6.38547V8.10232H34.797C35.2393 8.10232 35.5966 8.45993 35.5966 8.90187C35.5966 9.3438 35.2393 9.70141 34.797 9.70141H33.6092V12.0917L33.7842 12.9133C34.5444 16.4994 35.6339 20.0251 36.9979 23.4388V19.7796C36.9979 19.3375 37.3552 18.9804 37.7971 18.9804C38.2394 18.9804 38.5967 19.3377 38.5967 19.7796V27.3538V33.0405V35.8088L40.3313 39.7494V35.9774C40.3313 35.5351 40.6886 35.1779 41.1308 35.1779C41.5729 35.1779 41.9301 35.5351 41.9301 35.9774V43.5498V46.4867V50.3162C43.2157 50.514 44.2202 51.5795 44.2202 52.9192ZM32.0245 4.16284C32.0245 4.59502 32.3778 4.94831 32.8099 4.94831C33.2436 4.94831 33.5968 4.59502 33.5968 4.16284C33.5968 3.72923 33.2436 3.37594 32.8099 3.37594C32.3776 3.37594 32.0245 3.72923 32.0245 4.16284ZM25.2896 45.687H40.3315V44.3493H25.2896V45.687V45.687ZM36.9981 28.1533H28.6218V32.2413H30.3579V29.7494C30.3579 29.3073 30.7152 28.9501 31.1571 28.9501C31.5993 28.9501 31.9566 29.3074 31.9566 29.7494V32.2413H33.6642V29.7494C33.6642 29.3073 34.0218 28.9501 34.4638 28.9501C34.9059 28.9501 35.2633 29.3074 35.2633 29.7494V32.2413H36.9979V28.1533H36.9981ZM28.622 35.1779H36.9982V33.8402H28.622V35.1779ZM29.061 26.5542H36.5601L36.4641 26.3381C34.9511 22.9325 33.7266 19.3929 32.8099 15.7838C31.8933 19.3971 30.6672 22.937 29.1572 26.3381L29.061 26.5542ZM25.7163 42.7504H39.9049L37.275 36.7766H28.3452L25.7163 42.7504ZM22.9999 63.1501H25.5537V51.8358H24.49H24.0833C23.486 51.8358 22.9999 52.3217 22.9999 52.9192V63.1501V63.1501ZM21.4011 61.3154V54.9714C21.1547 54.4348 20.6192 54.0563 19.9915 54.0563C19.1326 54.0563 18.4334 54.7556 18.4334 55.6145C18.4334 56.0566 18.0761 56.4137 17.6338 56.4137C17.1917 56.4137 16.8346 56.0564 16.8346 55.6145C16.8346 53.7923 15.3526 52.3105 13.5306 52.3105C11.7085 52.3105 10.2253 53.7922 10.2253 55.6145C10.2253 56.0566 9.86766 56.4137 9.42572 56.4137H9.27468C7.92424 56.4137 6.82389 57.5142 6.82389 58.8645C6.82389 60.2148 7.9244 61.3153 9.27468 61.3153H10.2395H21.4011V61.3154ZM27.0227 71.0192V69.2989H25.2896V71.0192H27.0227ZM32.0102 71.0192V69.2989H28.6218V71.0192H32.0102ZM36.9981 71.0192V69.2989H33.6093V71.0192H36.9981ZM40.3316 71.0192V69.2989H38.597V71.0192H40.3316ZM42.6213 64.7491H39.2679H26.3534H23.0001V66.6166C23.0001 67.2139 23.486 67.6999 24.0834 67.6999H24.4902H27.0229V66.2252C27.0229 65.7831 27.3805 65.426 27.8224 65.426C28.2645 65.426 28.622 65.7832 28.622 66.2252V67.6999H30.3478V66.2252C30.3478 65.7831 30.7054 65.426 31.1473 65.426C31.5894 65.426 31.9469 65.7832 31.9469 66.2252V67.6999H33.673V66.2252C33.673 65.7831 34.0303 65.426 34.4722 65.426C34.9145 65.426 35.2718 65.7832 35.2718 66.2252V67.6999H36.9979V66.2252C36.9979 65.7831 37.3552 65.426 37.7971 65.426C38.2394 65.426 38.5967 65.7832 38.5967 66.2252V67.6999H41.1308H41.5376C42.1349 67.6999 42.621 67.214 42.621 66.6166V64.7491H42.6213ZM38.4685 51.8358H27.1525V63.1501H38.4685V51.8358ZM40.3316 50.2369V47.2859H25.2897V50.2369H26.3534H28.5765V48.7621C28.5765 48.32 28.9341 47.9626 29.3761 47.9626C29.818 47.9626 30.1756 48.3202 30.1756 48.7621V50.2369H32.0102V48.7621C32.0102 48.32 32.3679 47.9626 32.8098 47.9626C33.2517 47.9626 33.6093 48.3202 33.6093 48.7621V50.2369H35.4443V48.7621C35.4443 48.32 35.8016 47.9626 36.2435 47.9626C36.6857 47.9626 37.043 48.3202 37.043 48.7621V50.2369H39.2676H40.3316ZM43.4208 56.6934C42.9786 56.6934 42.6213 57.0507 42.6213 57.4929V58.4011C42.6213 58.8434 42.9786 59.2007 43.4208 59.2007C43.8629 59.2007 44.22 58.8434 44.22 58.4011V57.4931C44.2202 57.0507 43.8629 56.6934 43.4208 56.6934ZM37.4627 57.4931C37.4627 60.0581 35.3764 62.1446 32.8099 62.1446C30.2449 62.1446 28.1586 60.0583 28.1586 57.4931C28.1586 54.9277 30.2449 52.8416 32.8099 52.8416C35.3764 52.8416 37.4627 54.9276 37.4627 57.4931ZM35.8638 57.4931C35.8638 55.8106 34.4935 54.4405 32.8098 54.4405C31.1277 54.4405 29.7572 55.8106 29.7572 57.4931C29.7572 59.1752 31.1275 60.5453 32.8098 60.5453C34.4935 60.5453 35.8638 59.1752 35.8638 57.4931ZM29.7759 38.7444C29.3338 38.7444 28.9764 39.1017 28.9764 39.5439V39.9831C28.9764 40.4254 29.334 40.7827 29.7759 40.7827C30.2179 40.7827 30.5755 40.4254 30.5755 39.9831V39.5439C30.5755 39.1017 30.2179 38.7444 29.7759 38.7444ZM32.8099 38.7444C32.3679 38.7444 32.0104 39.1017 32.0104 39.5439V39.9831C32.0104 40.4254 32.368 40.7827 32.8099 40.7827C33.2519 40.7827 33.6095 40.4254 33.6095 39.9831V39.5439C33.6095 39.1017 33.2519 38.7444 32.8099 38.7444ZM35.844 38.7444C35.4019 38.7444 35.0447 39.1017 35.0447 39.5439V39.9831C35.0447 40.4254 35.402 40.7827 35.844 40.7827C36.2862 40.7827 36.6435 40.4254 36.6435 39.9831V39.5439C36.6435 39.1017 36.2862 38.7444 35.844 38.7444ZM31.6701 23.3833C31.2278 23.3833 30.8705 23.7406 30.8705 24.1825V24.6233C30.8705 25.0654 31.2278 25.4225 31.6701 25.4225C32.1122 25.4225 32.4693 25.0652 32.4693 24.6233V24.1825C32.4695 23.7406 32.1122 23.3833 31.6701 23.3833ZM33.9511 23.3833C33.509 23.3833 33.1519 23.7406 33.1519 24.1825V24.6233C33.1519 25.0654 33.5092 25.4225 33.9511 25.4225C34.3934 25.4225 34.7506 25.0652 34.7506 24.6233V24.1825C34.7506 23.7406 34.3934 23.3833 33.9511 23.3833Z" fill="#231F20"/>
</svg>
