<svg width="80" height="80" viewBox="0 0 80 80" fill="none" xmlns="http://www.w3.org/2000/svg">
<path d="M40.2897 71.5597C58.1228 71.5597 72.5794 57.1075 72.5794 39.2798C72.5794 21.4522 58.1228 7 40.2897 7C22.4566 7 8 21.4522 8 39.2798C8 57.1075 22.4566 71.5597 40.2897 71.5597Z" fill="#79E4FF"/>
<path d="M48.1022 53.965L33.2766 39.1392C32.3944 38.257 31.8989 37.0602 31.8989 35.8125V28.4018C30.7336 28.4018 29.6165 27.9389 28.793 27.1154L26.7862 25.1086H21.3603C20.2888 25.1086 19.2877 24.5752 18.6901 23.6858L14.2806 17.1242H40.001H65.7211L61.312 23.6858C60.7144 24.5754 59.7131 25.1086 58.6414 25.1086H53.2155L51.2091 27.1154C50.3853 27.9389 49.268 28.4018 48.1032 28.4018L48.1022 53.965Z" fill="#C6C6C6"/>
<path d="M35.4077 42.0133C34.9654 42.0133 34.6082 41.6557 34.6082 41.2138V24.1931C34.6082 23.751 34.9654 23.3936 35.4077 23.3936C35.8498 23.3936 36.2069 23.7512 36.2069 24.1931V41.2136C36.2069 41.6557 35.8496 42.0133 35.4077 42.0133Z" fill="#F6F6F6"/>
<path d="M33.2674 39.1299V67.0589H48.1022V53.965L33.2674 39.1299Z" fill="#C6C6C6"/>
<path d="M53.6691 70.4359H26.3325V79.1995H53.6691V70.4359Z" fill="#7A7979"/>
<path d="M16.997 69.153C17.0653 68.9403 17.1029 68.7138 17.1029 68.4787C17.1029 67.2654 16.1194 66.2819 14.9058 66.2819C13.6925 66.2819 12.709 67.2654 12.709 68.4787C12.709 68.7139 12.7462 68.9405 12.8149 69.153C11.832 69.3717 11.0968 70.2482 11.0968 71.2968C11.0968 72.5104 12.0806 73.4939 13.2939 73.4939C13.9312 73.4939 14.5045 73.2222 14.9058 72.789C15.3072 73.2222 15.8806 73.4939 16.5179 73.4939C17.7312 73.4939 18.7147 72.5104 18.7147 71.2968C18.7147 70.2482 17.9797 69.3717 16.997 69.153Z" fill="#08AF6C"/>
<path d="M24.6144 69.153C24.6829 68.9403 24.7206 68.7138 24.7206 68.4787C24.7206 67.2654 23.7368 66.2819 22.5235 66.2819C21.3102 66.2819 20.3267 67.2654 20.3267 68.4787C20.3267 68.7139 20.364 68.9405 20.4326 69.153C19.4496 69.3717 18.7145 70.2482 18.7145 71.2968C18.7145 72.5104 19.6981 73.4939 20.9117 73.4939C21.5486 73.4939 22.1222 73.2222 22.5235 72.789C22.9248 73.2222 23.4984 73.4939 24.1357 73.4939C25.3489 73.4939 26.3325 72.5104 26.3325 71.2968C26.3325 70.2482 25.5974 69.3717 24.6144 69.153Z" fill="#08AF6C"/>
<path d="M29.307 79.999C28.8649 79.999 28.5075 79.6418 28.5075 79.1998V73.479C28.5075 73.0369 28.8651 72.6795 29.307 72.6795H37.3537C37.796 72.6795 38.1533 73.0371 38.1533 73.479C38.1533 73.9209 37.796 74.2785 37.3537 74.2785H30.1065V79.1997C30.1067 79.6418 29.7491 79.999 29.307 79.999Z" fill="#C6C6C6"/>
<path d="M63.0045 69.153C62.936 68.9403 62.8986 68.7138 62.8986 68.4787C62.8986 67.2654 63.8821 66.2819 65.0954 66.2819C66.3088 66.2819 67.2925 67.2654 67.2925 68.4787C67.2925 68.7139 67.2549 68.9405 67.1865 69.153C68.1693 69.3717 68.9043 70.2482 68.9043 71.2968C68.9043 72.5104 67.9208 73.4939 66.7075 73.4939C66.0702 73.4939 65.4966 73.2222 65.0954 72.789C64.6941 73.2222 64.1205 73.4939 63.4835 73.4939C62.2701 73.4939 61.2864 72.5104 61.2864 71.2968C61.2866 70.2482 62.0216 69.3717 63.0045 69.153Z" fill="#08AF6C"/>
<path d="M55.3867 69.153C55.3182 68.9403 55.2808 68.7138 55.2808 68.4787C55.2808 67.2654 56.2643 66.2819 57.4776 66.2819C58.691 66.2819 59.6747 67.2654 59.6747 68.4787C59.6747 68.7139 59.6374 68.9405 59.5688 69.153C60.5515 69.3717 61.2865 70.2482 61.2865 71.2968C61.2865 72.5104 60.303 73.4939 59.0897 73.4939C58.4525 73.4939 57.8792 73.2222 57.4776 72.789C57.0763 73.2222 56.503 73.4939 55.8657 73.4939C54.6525 73.4939 53.6689 72.5104 53.6689 71.2968C53.6691 70.2482 54.4038 69.3717 55.3867 69.153Z" fill="#08AF6C"/>
<path d="M56.0931 8.0144C54.6745 8.0144 53.5246 9.16432 53.5246 10.5829C53.5246 12.0018 54.6745 13.1517 56.0931 13.1517H66.4798C67.8984 13.1517 69.0486 12.0018 69.0486 10.5829C69.0486 9.16432 67.8984 8.0144 66.4798 8.0144H66.4232C66.4232 6.98544 65.5893 6.15152 64.5605 6.15152C63.5317 6.15152 62.6977 6.98544 62.6977 8.0144C62.6977 6.22352 61.2459 4.77168 59.455 4.77168C57.6645 4.77168 56.2125 6.22352 56.2125 8.0144H56.0931Z" fill="white"/>
<path d="M45.7597 7.65103V17.124H40.0008H34.2419V7.65103V6.55839C34.2419 3.37775 36.8202 0.799515 40.0008 0.799515C43.1815 0.799515 45.7597 3.37791 45.7597 6.55839V7.65103Z" fill="#C6C6C6"/>
<path d="M15.5173 18.9648H14.6888C14.2473 18.9648 13.8142 19.0862 13.4371 19.3163C13.0601 19.5462 12.6272 19.6678 12.1854 19.6678H8.72253C8.02013 19.6678 7.45053 19.0986 7.45053 18.3958C7.45053 17.6934 8.02013 17.1242 8.72253 17.1242H14.2804L15.5173 18.9648Z" fill="#C6C6C6"/>
<path d="M64.4842 18.9648H65.3123C65.7541 18.9648 66.187 19.0862 66.564 19.3163C66.9413 19.5462 67.3742 19.6678 67.8157 19.6678H71.2786C71.9813 19.6678 72.5506 19.0986 72.5506 18.3958C72.5506 17.6934 71.9813 17.1242 71.2786 17.1242H65.7206L64.4842 18.9648Z" fill="#C6C6C6"/>
<path d="M50.8148 67.0589H29.1867V70.4359H50.8148V67.0589Z" fill="#7A7979"/>
<path d="M21.2768 49.3962C19.4816 49.3962 18.0259 50.8518 18.0259 52.6474C18.0259 54.4429 19.4816 55.8982 21.2768 55.8982H34.4224C36.2179 55.8982 37.6736 54.4429 37.6736 52.6474C37.6736 50.8518 36.2179 49.3962 34.4224 49.3962H34.3507C34.3507 48.0941 33.2955 47.0389 31.9935 47.0389C30.6911 47.0389 29.6359 48.0942 29.6359 49.3962C29.6359 47.1296 27.7984 45.2925 25.5319 45.2925C23.2655 45.2925 21.4282 47.1298 21.4282 49.3962H21.2768Z" fill="white"/>
<path d="M8.81037 79.1998C8.81037 79.6419 8.45309 79.999 8.01117 79.999H7.29085C6.84861 79.999 6.49133 79.6418 6.49133 79.1998C6.49133 78.7576 6.84861 78.4003 7.29085 78.4003H8.01117C8.45309 78.4003 8.81037 78.7574 8.81037 79.1998ZM72.7112 78.4003H71.9909C71.5486 78.4003 71.1913 78.7576 71.1913 79.1998C71.1913 79.6419 71.5486 79.999 71.9909 79.999H72.7112C73.1533 79.999 73.5107 79.6418 73.5107 79.1998C73.5107 78.7574 73.1533 78.4003 72.7112 78.4003ZM65.8944 74.1757V78.4003H68.711C69.1531 78.4003 69.5102 78.7576 69.5102 79.1998C69.5102 79.6419 69.1529 79.999 68.711 79.999H53.6696C53.2273 79.999 52.8701 79.6418 52.8701 79.1998V71.2346H50.8147H48.5197V79.1998C48.5197 79.6419 48.1624 79.999 47.7201 79.999C47.2781 79.999 46.9209 79.6418 46.9209 79.1998V71.2346H33.08V79.1998C33.08 79.6419 32.7227 79.999 32.2805 79.999C31.8384 79.999 31.4813 79.6418 31.4813 79.1998V71.2346H29.1873H27.132V79.1998C27.132 79.6419 26.7747 79.999 26.3328 79.999H11.291C10.8488 79.999 10.4915 79.6418 10.4915 79.1998C10.4915 78.7576 10.8488 78.4003 11.291 78.4003H14.1059V74.1757C13.8432 74.2501 13.571 74.2928 13.2936 74.2928C11.6413 74.2928 10.2979 72.9494 10.2979 71.2968C10.2979 70.1683 10.9448 69.1472 11.9137 68.6386C11.9109 68.5848 11.9094 68.5326 11.9094 68.4789C11.9094 66.8262 13.2528 65.4832 14.9054 65.4832C16.5581 65.4832 17.9025 66.8262 17.9025 68.4789C17.9025 68.5326 17.9011 68.5848 17.8982 68.6386C18.2141 68.8043 18.4782 69.0392 18.7142 69.2995C18.9505 69.0386 19.215 68.804 19.5312 68.6386C19.5283 68.5848 19.5269 68.5326 19.5269 68.4789C19.5269 66.8262 20.8702 65.4832 22.5229 65.4832C24.1755 65.4832 25.52 66.8262 25.52 68.4789C25.52 68.5326 25.5185 68.5848 25.5157 68.6386C25.9621 68.872 26.3285 69.2235 26.6065 69.6357H28.3873V67.0594C28.3873 66.6171 28.7449 66.2598 29.1869 66.2598H32.4681V56.6971H22.2401H21.2768H15.5734C15.1313 56.6971 14.7742 56.3398 14.7742 55.8979C14.7742 55.4557 15.1315 55.0984 15.5734 55.0984H18.0739C17.5501 54.416 17.2261 53.5728 17.2261 52.6477C17.2261 50.6138 18.7318 48.9258 20.6867 48.6392C21.0512 46.2931 23.0851 44.4936 25.5315 44.4936C27.3973 44.4936 29.023 45.5402 29.8525 47.0782C30.416 46.5573 31.1686 46.2394 31.9937 46.2394C32.1601 46.2394 32.3088 46.2963 32.4685 46.3213V39.4085C31.6064 38.4142 31.0997 37.1336 31.0997 35.8125V29.1414C30.0163 28.9746 29.0177 28.4718 28.228 27.6808L26.4541 25.9082H21.3605C20.0189 25.9082 18.7729 25.2443 18.0257 24.1326L15.0902 19.764H14.6896C14.3942 19.764 14.1046 19.8459 13.8518 19.9998C13.3534 20.305 12.7755 20.4674 12.1849 20.4674H8.72301C7.58013 20.4674 6.65085 19.5394 6.65085 18.3966C6.65085 17.2539 7.57997 16.3245 8.72301 16.3245H14.2797H27.8997C27.9008 16.3245 27.9022 16.3245 27.9035 16.3245H33.4429V8.9624C33.4429 8.52016 33.8001 8.16288 34.2421 8.16288C34.6843 8.16288 35.0416 8.52016 35.0416 8.9624V16.3242H36.5771C37.3289 15.0896 37.2731 13.2291 37.272 13.2083C37.2699 13.1597 37.3118 13.1285 37.3182 13.0822C36.6254 12.1114 36.2141 10.943 36.2141 9.72368V5.4424C36.2141 5.15568 36.3665 4.89168 36.6153 4.74864L39.0051 3.37424C39.6267 3.01552 40.3739 3.01552 40.9982 3.37424L43.3867 4.74864C43.6352 4.89152 43.788 5.15568 43.788 5.4424V9.72368C43.788 10.9424 43.3755 12.1114 42.683 13.0798C42.6897 13.127 42.7321 13.1589 42.7299 13.2083C42.7288 13.2291 42.6715 15.0907 43.4253 16.3242H44.9601V6.55824C44.9601 3.82368 42.7357 1.5992 40.0011 1.5992C39.672 1.5992 39.3526 1.63152 39.0419 1.69232C38.6209 1.77568 38.1888 1.49584 38.1027 1.0608C38.0179 0.6272 38.3006 0.20624 38.7342 0.12144C39.1437 0.04112 39.5673 0 40.0011 0C43.6171 0 46.5593 2.94224 46.5593 6.55824V16.3243H65.7209H71.279C72.4217 16.3243 73.3496 17.2538 73.3496 18.3965C73.3496 19.5392 72.4216 20.4672 71.279 20.4672H67.8155C67.2265 20.4672 66.6502 20.3064 66.1472 19.9982C65.8958 19.8458 65.6077 19.764 65.3126 19.764H64.9105L61.975 24.1326C61.2278 25.2443 59.9819 25.9082 58.6414 25.9082H53.5467L51.7755 27.6808C50.9843 28.4717 49.9857 28.9744 48.9024 29.1414L48.9009 53.9658V66.26H50.8148C51.2571 66.26 51.6144 66.6173 51.6144 67.0595V69.6358H53.3958C53.6737 69.2242 54.04 68.8728 54.486 68.6387C54.4832 68.585 54.4817 68.5328 54.4817 68.479C54.4817 66.8264 55.8251 65.4834 57.4777 65.4834C59.1304 65.4834 60.4748 66.8264 60.4748 68.479C60.4748 68.5328 60.4734 68.585 60.4705 68.6387C60.7864 68.8045 61.0509 69.0394 61.2872 69.3003C61.5232 69.0394 61.7876 68.8045 62.1035 68.6387C62.1006 68.585 62.0992 68.5328 62.0992 68.479C62.0992 66.8264 63.4425 65.4834 65.0952 65.4834C66.7478 65.4834 68.0923 66.8264 68.0923 68.479C68.0923 68.5328 68.0909 68.585 68.088 68.6387C69.0571 69.1472 69.7038 70.1685 69.7038 71.297C69.7038 72.9496 68.3608 74.293 66.7081 74.293C66.4307 74.2928 66.1576 74.2498 65.8944 74.1757ZM23.3222 78.4003H25.5329V73.9008C25.1101 74.1291 24.6494 74.2928 24.136 74.2928C23.8589 74.2928 23.5854 74.2499 23.3222 74.1754V78.4003ZM19.5142 71.2968C19.5142 72.0666 20.1414 72.6938 20.9112 72.6938C21.304 72.6938 21.6685 72.5344 21.9355 72.2448C21.9395 72.2402 21.947 72.2419 21.9512 72.2379C22.0966 72.0866 22.296 71.9891 22.523 71.9891C22.7501 71.9891 22.9494 72.0869 23.0949 72.2386C23.0987 72.2426 23.1053 72.2408 23.1091 72.245C23.3776 72.5346 23.7435 72.6939 24.136 72.6939C24.9057 72.6939 25.5329 72.0667 25.5329 71.297C25.5329 70.6472 25.0739 70.0754 24.4413 69.9339C24.2222 69.8845 24.0328 69.7462 23.9214 69.5512C23.8097 69.3562 23.7843 69.1234 23.8534 68.9085C23.8974 68.7688 23.9214 68.6232 23.9214 68.4792C23.9214 67.7094 23.2942 67.0822 22.523 67.0822C21.7533 67.0822 21.1261 67.7094 21.1261 68.4792C21.1261 68.6232 21.1501 68.7688 21.1937 68.9085C21.2629 69.1234 21.2374 69.3563 21.1261 69.5512C21.0144 69.7462 20.8253 69.8845 20.6062 69.9339C19.9733 70.0752 19.5142 70.647 19.5142 71.2968ZM13.2936 72.6936C13.6864 72.6936 14.0509 72.5342 14.3179 72.2446C14.3219 72.24 14.3294 72.2418 14.3336 72.2378C14.479 72.0864 14.6784 71.989 14.9054 71.989C15.1325 71.989 15.3318 72.0867 15.4773 72.2384C15.4808 72.2424 15.4877 72.2406 15.4915 72.2448C15.76 72.5344 16.1259 72.6938 16.5184 72.6938C17.2881 72.6938 17.9153 72.0666 17.9153 71.2968C17.9153 70.6485 17.4563 70.0752 16.8237 69.9338C16.6032 69.8843 16.4152 69.7461 16.3038 69.551C16.1921 69.356 16.1667 69.1232 16.2358 68.9083C16.2798 68.7686 16.3038 68.623 16.3038 68.479C16.3038 67.7093 15.6766 67.0821 14.9054 67.0821C14.1357 67.0821 13.5085 67.7093 13.5085 68.479C13.5085 68.6259 13.531 68.7701 13.5747 68.9043C13.6453 69.119 13.6213 69.3533 13.5099 69.5483C13.3982 69.7448 13.2088 69.8845 12.9886 69.9339C12.3557 70.0754 11.8966 70.6472 11.8966 71.297C11.8968 72.0666 12.5238 72.6936 13.2936 72.6936ZM15.7048 78.4003H21.7235V74.1757C21.4608 74.2501 21.1886 74.2928 20.9112 74.2928C20.0344 74.2928 19.2632 73.9 18.715 73.2978C18.1669 73.9 17.3957 74.2928 16.5185 74.2928C16.2414 74.2928 15.968 74.2499 15.7048 74.1754V78.4003ZM43.5603 66.2598V50.5555L41.4841 48.4787V66.2597H43.5603V66.2598ZM39.8851 66.2598V46.8797L37.8089 44.8032V50.5434C38.1989 51.1642 38.4725 51.8637 38.4725 52.6475C38.4725 53.4635 38.2257 54.221 37.8089 54.8573V66.2597H39.8851V66.2598ZM29.831 17.923L32.4629 20.5549C32.4637 20.5557 32.4643 20.5563 32.4651 20.5571L34.5037 22.5957C35.3411 23.4317 36.4542 23.8936 37.6393 23.8936H41.9203V20.288C41.3585 20.6603 40.7238 20.9302 40.0009 20.9302C38.2347 20.9302 36.8302 19.6131 36.5565 17.9229H29.831V17.923ZM43.5195 17.923V24.6045C43.5235 24.6381 43.5563 24.6582 43.5563 24.6933C43.5563 24.728 43.5237 24.7485 43.5195 24.7821V48.2515L44.9243 49.6565C44.9249 49.6571 44.9254 49.6576 44.9261 49.6582L47.3022 52.0347L47.3037 28.4026V17.9232H43.5195V17.923ZM41.9203 25.4926H37.8088V42.5403L41.2398 45.9717C41.2451 45.977 41.2491 45.981 41.2542 45.9861L41.9201 46.6523V25.4926H41.9203ZM40.4925 14.8426H39.5093C39.2507 14.8426 39.0024 14.7784 38.7734 14.6725C38.6688 15.4032 38.4505 16.2739 38.0129 17.0462C38.0158 17.0757 38.0448 17.0934 38.0448 17.1238V17.3752C38.0448 18.4528 38.9233 19.3315 40.0011 19.3315C41.0787 19.3315 41.9573 18.4526 41.9573 17.3752V17.1238C41.9573 17.0941 41.9859 17.0762 41.9891 17.0472C41.5512 16.2742 41.3331 15.4035 41.2283 14.6725C40.9993 14.7782 40.7509 14.8426 40.4925 14.8426ZM32.6985 28.4024V35.8123C32.6985 36.839 33.1145 37.8427 33.8382 38.5694L36.2097 40.9413V25.3032C35.147 25.0451 34.1657 24.519 33.3737 23.7258L32.6985 23.0506V28.4024ZM34.0672 41.0611V47.0459C34.5445 47.468 34.9093 48.0165 35.0629 48.656C35.476 48.7254 35.8505 48.8834 36.2099 49.0624V43.204L34.0672 41.0611ZM45.1593 66.2598H47.3021V54.2976L45.3627 52.3578L45.1593 52.1547V66.2598ZM71.279 17.923H66.1472L66.1446 17.927L65.9438 18.2267C66.3083 18.3002 66.6601 18.4373 66.9806 18.6334C67.232 18.7862 67.5205 18.868 67.8155 18.868H71.279C71.5388 18.868 71.7509 18.6563 71.7509 18.3962C71.7509 18.135 71.5387 17.923 71.279 17.923ZM64.2192 17.923H48.9024V27.445C49.5494 27.2949 50.1619 27.0315 50.6441 26.5509L52.6483 24.5435C52.6497 24.5424 52.652 24.5429 52.6533 24.5414L57.6288 19.5659C57.9395 19.2523 58.448 19.2523 58.7587 19.5659C59.0723 19.8781 59.0723 20.3837 58.7587 20.6958L55.1456 24.3093H58.6414C59.448 24.3093 60.1981 23.9094 60.6472 23.2398L64.2192 17.923ZM37.8129 9.72384C37.8129 10.6758 38.128 11.5995 38.7013 12.3242L39.3665 13.1645L40.4925 13.2437L41.3005 12.324C41.8723 11.5994 42.1888 10.6757 42.1888 9.72368V5.9056L40.2 4.76144C40.0729 4.688 39.9275 4.688 39.803 4.76144L37.8128 5.9056V9.72384H37.8129ZM14.0573 18.227L13.8531 17.923H8.72301C8.46157 17.923 8.24973 18.135 8.24973 18.3963C8.24973 18.6563 8.46141 18.8682 8.72301 18.8682H12.1848C12.4801 18.8682 12.7683 18.7862 13.0182 18.6336C13.3401 18.4374 13.6917 18.3005 14.0573 18.227ZM31.0995 27.445V21.4517L27.5712 17.923H15.7811L15.8662 18.0494L16.1809 18.5178C16.1813 18.5181 16.1809 18.5181 16.1813 18.5184L19.3534 23.2397C19.8024 23.9093 20.5525 24.3091 21.3605 24.3091H24.8622L21.2489 20.6957C20.9353 20.3835 20.9353 19.8779 21.2489 19.5658C21.56 19.2522 22.0681 19.2522 22.3792 19.5658L27.3568 24.5434C27.3593 24.5459 27.3582 24.5502 27.3608 24.5531L29.3582 26.5506C29.84 27.0315 30.4523 27.2947 31.0995 27.445ZM22.2403 55.0984H34.4217C35.7733 55.0984 36.8736 53.9979 36.8736 52.6477C36.8736 51.2962 35.7731 50.1958 34.4217 50.1958C33.9795 50.1958 33.5517 49.8382 33.5517 49.3963C33.5517 48.5374 32.8525 47.8382 31.9936 47.8382C31.1347 47.8382 30.4355 48.5374 30.4355 49.3963C30.4355 49.8384 30.0782 50.1958 29.6363 50.1958C29.1941 50.1958 28.8368 49.8382 28.8368 49.3963C28.8368 47.5742 27.3537 46.0925 25.5315 46.0925C23.7093 46.0925 22.2277 47.5741 22.2277 49.3963C22.2277 49.8384 21.8704 50.1958 21.4285 50.1958H21.2771C19.9253 50.1958 18.8253 51.2963 18.8253 52.6477C18.8253 53.9981 19.9254 55.0984 21.2771 55.0984H22.2403ZM34.0672 66.2598H36.2099V56.2632C35.6683 56.532 35.0667 56.6971 34.4219 56.6971H34.0672V66.2598V66.2598ZM31.4809 69.6357V67.8587H29.9865V69.6357H31.4809ZM46.9208 69.6357V67.8587H33.2675H33.0798V69.6357H46.9208ZM50.0155 69.6357V67.8587H48.5197V69.6357H50.0155ZM62.0864 71.2968C62.0864 72.0666 62.7136 72.6938 63.4833 72.6938C63.8761 72.6938 64.2406 72.5344 64.5073 72.2448C64.5116 72.2402 64.5192 72.2419 64.5232 72.2379C64.6686 72.0866 64.868 71.9891 65.095 71.9891C65.3217 71.9891 65.5214 72.0866 65.6667 72.2379C65.671 72.2419 65.6785 72.2402 65.6825 72.2448C65.9496 72.5344 66.3141 72.6938 66.708 72.6938C67.4777 72.6938 68.1049 72.0666 68.1049 71.2968C68.1049 70.6485 67.6459 70.0752 67.0133 69.9338C66.7928 69.8843 66.6048 69.7461 66.4934 69.551C66.3817 69.356 66.3563 69.1232 66.4254 68.9083C66.4694 68.7686 66.4934 68.623 66.4934 68.479C66.4934 67.7093 65.8662 67.0821 65.095 67.0821C64.3253 67.0821 63.6981 67.7093 63.6981 68.479C63.6981 68.6259 63.7206 68.7701 63.7643 68.9043C63.8349 69.119 63.8109 69.3533 63.6995 69.5483C63.5878 69.7448 63.3984 69.8845 63.1782 69.9339C62.5454 70.0752 62.0864 70.647 62.0864 71.2968ZM54.4689 71.2968C54.4689 72.0666 55.0961 72.6938 55.8659 72.6938C56.2587 72.6938 56.6232 72.5344 56.8899 72.2448C56.8942 72.2402 56.9017 72.2419 56.9057 72.2379C57.0512 72.0866 57.2505 71.9891 57.4776 71.9891C57.7043 71.9891 57.904 72.0866 58.0493 72.2379C58.0536 72.2419 58.0611 72.2402 58.0651 72.2448C58.3321 72.5344 58.6966 72.6938 59.0891 72.6938C59.8603 72.6938 60.4875 72.0666 60.4875 71.2968C60.4875 70.6485 60.0285 70.0752 59.3958 69.9338C59.1753 69.8843 58.9873 69.7461 58.876 69.551C58.7643 69.356 58.7389 69.1232 58.808 68.9083C58.852 68.7686 58.876 68.623 58.876 68.479C58.876 67.7093 58.2488 67.0821 57.4776 67.0821C56.7078 67.0821 56.0806 67.7093 56.0806 68.479C56.0806 68.6259 56.1032 68.7701 56.1468 68.9043C56.2174 69.119 56.1934 69.3533 56.0821 69.5483C55.9704 69.7448 55.7809 69.8845 55.5608 69.9339C54.928 70.0752 54.4689 70.647 54.4689 71.2968ZM56.6781 74.176C56.4153 74.2501 56.1432 74.2928 55.8657 74.2928C55.3523 74.2928 54.8918 74.1291 54.4688 73.9008V78.4002H56.6779V74.176H56.6781ZM64.2955 78.4003V74.176C64.0328 74.2501 63.7606 74.2928 63.4832 74.2928C62.606 74.2928 61.8349 73.8994 61.2864 73.2971C60.7376 73.8994 59.9661 74.2928 59.0891 74.2928C58.812 74.2928 58.5395 74.2499 58.2768 74.176V78.4003H64.2955ZM35.0912 4.34496C35.3611 4.34496 35.6237 4.21072 35.7747 3.9648C36.1392 3.3704 36.6379 2.84768 37.2171 2.4536C37.5813 2.2048 37.6761 1.70784 37.4273 1.34192C37.1789 0.97744 36.6845 0.88 36.3157 1.13136C35.5517 1.6512 34.8933 2.34192 34.4105 3.12592C34.1803 3.5032 34.2974 3.996 34.6733 4.22784C34.8045 4.30672 34.9485 4.34496 35.0912 4.34496ZM34.2421 7.35776C34.6843 7.35776 35.0416 7.00048 35.0416 6.55824C35.0416 6.40864 35.0488 6.26032 35.0613 6.11328C35.1009 5.67408 34.7774 5.28416 34.3369 5.24464C33.9259 5.21232 33.5091 5.53008 33.4683 5.96928C33.4497 6.16432 33.4429 6.36064 33.4429 6.55824C33.4429 7.00048 33.8001 7.35776 34.2421 7.35776ZM50.9617 13.1517C50.9617 12.7096 51.3193 12.3525 51.7613 12.3525H53.3001C52.9672 11.8301 52.7245 11.2462 52.7245 10.5824C52.7245 8.93408 53.9137 7.55968 55.4801 7.27024C55.8304 5.396 57.4801 3.97216 59.455 3.97216C60.9197 3.97216 62.2049 4.75472 62.9142 5.92272C63.3675 5.56544 63.9396 5.352 64.5611 5.352C65.7758 5.352 66.8027 6.16976 67.1206 7.28288C68.691 7.59792 69.848 8.95808 69.848 10.5824C69.848 12.4398 68.3368 13.9514 66.4793 13.9514H56.4409H56.0936H51.7614C51.3192 13.9512 50.9617 13.5941 50.9617 13.1517ZM56.0934 12.3525H56.4408H66.4792C67.4552 12.3525 68.2489 11.5584 68.2489 10.5824C68.2489 9.60784 67.4552 8.81408 66.4792 8.81408C66.0371 8.81408 65.6232 8.4568 65.6232 8.01456C65.6232 7.42848 65.1459 6.9512 64.5609 6.9512C63.9749 6.9512 63.4972 7.42848 63.4972 8.01456C63.4972 8.4568 63.14 8.81408 62.6981 8.81408C62.2558 8.81408 61.8985 8.4568 61.8985 8.01456C61.8985 6.66704 60.8025 5.57104 59.455 5.57104C58.1073 5.57104 57.0112 6.66704 57.0112 8.01456C57.0112 8.4568 56.6539 8.81408 56.212 8.81408H56.0934C55.1174 8.81408 54.3233 9.60784 54.3233 10.5824C54.3233 11.5584 55.1174 12.3525 56.0934 12.3525ZM48.6411 13.9512H49.1609C49.603 13.9512 49.9601 13.5939 49.9601 13.1517C49.9601 12.7096 49.6029 12.3525 49.1609 12.3525H48.6411C48.199 12.3525 47.8416 12.7098 47.8416 13.1517C47.8416 13.5941 48.1992 13.9512 48.6411 13.9512ZM13.1736 56.6973C13.6158 56.6973 13.9731 56.34 13.9731 55.8981C13.9731 55.4558 13.6158 55.0986 13.1736 55.0986H12.8008C12.3587 55.0986 12.0016 55.4558 12.0016 55.8981C12.0016 56.3402 12.3589 56.6973 12.8008 56.6973H13.1736Z" fill="#231F20"/>
<path d="M40.4401 74.2928H40.0009C39.5587 74.2928 39.2014 73.9352 39.2014 73.4933C39.2014 73.0514 39.5587 72.6938 40.0009 72.6938H40.4401C40.8824 72.6938 41.2397 73.0514 41.2397 73.4933C41.2397 73.9352 40.8824 74.2928 40.4401 74.2928Z" fill="#C6C6C6"/>
<path d="M43.1608 74.2928H42.8797C42.4376 74.2928 42.0802 73.9352 42.0802 73.4933C42.0802 73.0514 42.4378 72.6938 42.8797 72.6938H43.1608C43.6029 72.6938 43.96 73.0514 43.96 73.4933C43.96 73.9352 43.6029 74.2928 43.1608 74.2928Z" fill="#C6C6C6"/>
</svg>
