<svg width="80" height="80" viewBox="0 0 80 80" fill="none" xmlns="http://www.w3.org/2000/svg">
<g clip-path="url(#clip0)">
<path d="M40 73C59.33 73 75 57.33 75 38C75 18.67 59.33 3 40 3C20.67 3 5 18.67 5 38C5 57.33 20.67 73 40 73Z" fill="#79E4FF"/>
<path d="M23.068 20.4974H16.4363C14.2566 20.4974 12.4894 22.2643 12.4894 24.444H24.0458V20.6195C23.733 20.54 23.4056 20.4974 23.068 20.4974Z" fill="#08AF6C"/>
<path d="M0.800964 24.444V20.4974H5.49424C7.67392 20.4974 9.4408 22.2643 9.4408 24.444H0.800964V24.444Z" fill="#08AF6C"/>
<path d="M9.4408 24.444V12.3256C9.4408 11.4838 10.1232 10.8014 10.9653 10.8014C11.807 10.8014 12.4894 11.4838 12.4894 12.3256V24.444H9.4408Z" fill="#08AF6C"/>
<path d="M75.3606 55.733V62.1334H73.555L73.5547 59.1045H63.8938V56.1659L58.2398 52.2997L58.2397 67.3392H20.9989V58.1H15.4334L15.4338 64.3622H5.6808V54.9632L0.800964 51.8374V86.3043V79.2014H79.1997L79.2003 64.3629L79.2005 55.733H75.3606Z" fill="#C6C6C6"/>
<path d="M38.4785 10.8014H27.0149H24.0457V13.7702V79.2474H27.0149V13.7702H38.4785V79.2474H41.4477V13.7702V10.8014H38.4785Z" fill="#C6C6C6"/>
<path d="M12.4894 24.444H9.4408V79.2474H12.4894V24.444Z" fill="#D5870E"/>
<path d="M40.0008 55.4309C39.0194 55.4309 38.0699 55.2085 37.1784 54.7699L16.3066 44.5029C13.9525 43.345 12.4899 40.888 12.4896 38.0917C12.4896 35.2949 13.9522 32.8381 16.3066 31.6798L37.3797 21.3139C38.2074 20.9069 39.089 20.7006 40.0008 20.7006C40.9123 20.7006 41.7942 20.9069 42.6216 21.3139L63.6947 31.6798C66.0494 32.8381 67.5117 35.2949 67.5117 38.0917C67.5117 40.8882 66.0491 43.345 63.6947 44.5029L42.8232 54.7699C41.9317 55.2085 40.9819 55.4309 40.0008 55.4309Z" fill="#F6B330"/>
<path d="M38.7922 24.1851L17.719 34.5514C15.0131 35.8824 15.0131 40.3005 17.719 41.6314L38.5909 51.8984C39.4914 52.3416 40.5102 52.3416 41.4107 51.8984L62.2823 41.6314C64.9885 40.3003 64.9885 35.8822 62.2823 34.5514L41.2093 24.1851C40.4373 23.8056 39.5642 23.8056 38.7922 24.1851Z" fill="white"/>
<path d="M23.7178 32.4419C25.2193 32.4419 26.4366 31.2246 26.4366 29.723C26.4366 28.2214 25.2193 27.0042 23.7178 27.0042C22.2162 27.0042 20.9989 28.2214 20.9989 29.723C20.9989 31.2246 22.2162 32.4419 23.7178 32.4419Z" fill="#F93A6D"/>
<path d="M29.1455 32.4419C30.647 32.4419 31.8643 31.2246 31.8643 29.723C31.8643 28.2214 30.647 27.0042 29.1455 27.0042C27.6439 27.0042 26.4266 28.2214 26.4266 29.723C26.4266 31.2246 27.6439 32.4419 29.1455 32.4419Z" fill="#F93A6D"/>
<path d="M34.5731 32.4419C36.0747 32.4419 37.292 31.2246 37.292 29.723C37.292 28.2214 36.0747 27.0042 34.5731 27.0042C33.0715 27.0042 31.8542 28.2214 31.8542 29.723C31.8542 31.2246 33.0715 32.4419 34.5731 32.4419Z" fill="#F93A6D"/>
<path d="M40.0008 32.4419C41.5024 32.4419 42.7197 31.2246 42.7197 29.723C42.7197 28.2214 41.5024 27.0042 40.0008 27.0042C38.4992 27.0042 37.2819 28.2214 37.2819 29.723C37.2819 31.2246 38.4992 32.4419 40.0008 32.4419Z" fill="#F93A6D"/>
<path d="M45.4285 32.4419C46.9301 32.4419 48.1473 31.2246 48.1473 29.723C48.1473 28.2214 46.9301 27.0042 45.4285 27.0042C43.9269 27.0042 42.7096 28.2214 42.7096 29.723C42.7096 31.2246 43.9269 32.4419 45.4285 32.4419Z" fill="#F93A6D"/>
<path d="M53.575 29.723C53.575 31.2246 52.3578 32.4419 50.8562 32.4419C49.3546 32.4419 48.137 31.2246 48.137 29.723C48.137 28.2214 49.3546 27.0042 50.8562 27.0042C52.3578 27.0042 53.575 28.2214 53.575 29.723Z" fill="#F93A6D"/>
<path d="M59.0027 29.723C59.0027 31.2246 57.7854 32.4419 56.2838 32.4419C54.7822 32.4419 53.5646 31.2246 53.5646 29.723C53.5646 28.2214 54.7822 27.0042 56.2838 27.0042C57.7854 27.0042 59.0027 28.2214 59.0027 29.723Z" fill="#F93A6D"/>
<path d="M51.0983 43.0042H28.828C27.8266 43.0042 27.0149 42.1925 27.0149 41.191C27.0149 40.1896 27.8266 39.3776 28.828 39.3776H51.0983C52.0997 39.3776 52.9117 40.1896 52.9117 41.191C52.9117 42.1923 52.0997 43.0042 51.0983 43.0042Z" fill="#F93A6D"/>
<path d="M79.2005 24.444V20.4974H74.5058C72.3261 20.4974 70.5592 22.2643 70.5592 24.444H79.2005V24.444Z" fill="#08AF6C"/>
<path d="M70.5594 24.444V12.3256C70.5594 11.4838 69.877 10.8014 69.0352 10.8014H69.0349C68.1931 10.8014 67.5107 11.4838 67.5107 12.3256V24.444H70.5594Z" fill="#08AF6C"/>
<path d="M70.5592 24.444H67.5106V79.2474H70.5592V24.444Z" fill="#D5870E"/>
<path d="M52.5242 24.444C52.5242 22.2643 54.291 20.4974 56.4707 20.4974H63.564C65.7437 20.4974 67.5106 22.2643 67.5106 24.444H52.5242Z" fill="#08AF6C"/>
<path d="M23.2463 59.4418V58.6423C23.2463 58.2017 23.6035 57.8431 24.0455 57.8431C24.4877 57.8431 24.845 58.2018 24.845 58.6423V59.4418C24.845 59.8826 24.4877 60.2413 24.0455 60.2413C23.6034 60.2413 23.2463 59.8826 23.2463 59.4418ZM38.4387 23.4687L36.073 24.6325C35.676 24.8276 35.5135 25.3077 35.7085 25.7031C35.8467 25.9857 36.1309 26.1495 36.4259 26.1495C36.5445 26.1495 36.6661 26.1241 36.7792 26.0676L39.1466 24.9037C39.6973 24.6324 40.3034 24.6324 40.8571 24.9037L43.1482 26.0308C43.5407 26.2287 44.0239 26.0617 44.2187 25.6663C44.4138 25.2708 44.2512 24.7906 43.8543 24.5957L41.5647 23.4687C40.5675 22.9743 39.4274 22.9769 38.4387 23.4687ZM29.1291 36.9973H30.3013C30.7435 36.9973 31.1008 36.6386 31.1008 36.1981C31.1008 35.7573 30.7435 35.3986 30.3013 35.3986H29.1291C28.6869 35.3986 28.3296 35.7573 28.3296 36.1981C28.3296 36.6386 28.6869 36.9973 29.1291 36.9973ZM33.7605 36.9973H50.8714C51.3135 36.9973 51.6706 36.6386 51.6706 36.1981C51.6706 35.7573 51.3133 35.3986 50.8714 35.3986H33.7605C33.3184 35.3986 32.9613 35.7573 32.9613 36.1981C32.9613 36.6386 33.3186 36.9973 33.7605 36.9973ZM53.7104 41.1895C53.7104 42.6305 52.5394 43.8028 51.0989 43.8028H28.8283C27.3874 43.8028 26.2151 42.6303 26.2151 41.1895C26.2151 39.7489 27.3875 38.5794 28.8283 38.5794H51.0989C52.5394 38.5794 53.7104 39.7489 53.7104 41.1895ZM52.1115 41.1895C52.1115 40.6332 51.6568 40.1781 51.0987 40.1781H28.8283C28.2688 40.1781 27.8141 40.6332 27.8141 41.1895C27.8141 41.749 28.2688 42.2037 28.8283 42.2037H51.0989C51.6568 42.2037 52.1115 41.749 52.1115 41.1895ZM44.237 45.2973H35.765C35.3229 45.2973 34.9655 45.6561 34.9655 46.0965C34.9655 46.5373 35.3231 46.8961 35.765 46.8961H44.237C44.6792 46.8961 45.0365 46.5373 45.0365 46.0965C45.0365 45.6559 44.6792 45.2973 44.237 45.2973ZM79.9995 24.4433C79.9995 24.8839 79.6423 25.2425 79.2 25.2425H71.3595V78.4481H73.68C74.1223 78.4481 74.4795 78.8068 74.4795 79.2476C74.4795 79.6882 74.1223 80.0471 73.68 80.0471H49.041C48.5987 80.0471 48.2415 79.6881 48.2415 79.2476C48.2415 78.8068 48.5987 78.4481 49.041 78.4481H66.7111V42.8983C66.0083 43.8553 65.1407 44.6837 64.0485 45.2209L43.176 55.4868C42.8752 55.6349 42.5581 55.7165 42.2466 55.8205V78.4481H45.6803C46.1226 78.4481 46.4799 78.8068 46.4799 79.2476C46.4799 79.6882 46.1226 80.0471 45.6803 80.0471H5.84018C5.3981 80.0471 5.04066 79.6881 5.04066 79.2476C5.04066 78.8068 5.39826 78.4481 5.84018 78.4481H8.64098V25.2425H0.800344C0.358264 25.2425 0.000823975 24.8837 0.000823975 24.4433C0.000823975 24.0025 0.358424 23.6437 0.800344 23.6437H8.53794C8.1821 22.2933 6.9533 21.2962 5.4941 21.2962H0.800344C0.358264 21.2962 0.000823975 20.9375 0.000823975 20.4967C0.000823975 20.0561 0.358424 19.6975 0.800344 19.6975H5.4941C6.05442 19.6975 6.58498 19.8124 7.0845 19.9917C5.81778 18.4244 3.9045 17.4007 1.7381 17.4007H1.15362C0.711384 17.4007 0.354104 17.042 0.354104 16.6012C0.354104 16.1605 0.711384 15.802 1.15362 15.802H1.73826C4.58642 15.802 7.09746 17.2215 8.64098 19.3777V12.3269C8.64098 11.0442 9.68354 10.002 10.9647 10.002C12.2471 10.002 13.2896 11.0442 13.2896 12.3269V19.3775C14.8331 17.2212 17.3443 15.8018 20.1923 15.8018H20.7773C21.2194 15.8018 21.5765 16.1605 21.5765 16.601C21.5765 17.0418 21.2192 17.4005 20.7773 17.4005H20.1923C18.0256 17.4005 16.1123 18.4245 14.8456 19.9919C15.3455 19.8122 15.876 19.6973 16.4367 19.6973H23.0683C23.1288 19.6973 23.1858 19.7177 23.2463 19.7199V10.8015C23.2463 10.3607 23.6035 10.002 24.0455 10.002H41.4474C41.8895 10.002 42.2466 10.3607 42.2466 10.8015V20.3367C42.4896 20.4229 42.74 20.4805 42.9741 20.5956L49.3387 23.7255C49.7357 23.9205 49.8983 24.4007 49.7032 24.7961C49.5647 25.0786 49.2808 25.2425 48.9855 25.2425C48.8669 25.2425 48.7453 25.2173 48.6325 25.1605L42.2679 22.0306C40.8354 21.3245 39.1645 21.3245 37.7323 22.0306L31.3691 25.1605C30.9738 25.3527 30.4906 25.1917 30.2986 24.7961C30.1035 24.4005 30.2659 23.9204 30.6627 23.7255L37.0259 20.5956C37.236 20.4925 37.4613 20.4437 37.6786 20.3639V14.57H27.8139V26.0193L26.2149 26.8058V13.7703C26.2149 13.3297 26.5725 12.9711 27.0144 12.9711H38.4781C38.9202 12.9711 39.2776 13.3298 39.2776 13.7703V19.9873C39.7355 19.9375 40.1898 19.9338 40.6477 19.9783V11.6009H24.8448V20.6212V24.4433V26.4338C25.4874 26.6545 26.0178 27.0514 26.4319 27.573C27.077 26.7607 28.0295 26.2061 29.1458 26.2061C30.2613 26.2061 31.2138 26.7607 31.8586 27.573C32.5034 26.7607 33.4562 26.2061 34.5725 26.2061C35.6888 26.2061 36.6416 26.7607 37.2867 27.5733C37.9315 26.7607 38.8842 26.2061 40.0007 26.2061C41.1173 26.2061 42.0698 26.7607 42.7146 27.573C43.3594 26.7607 44.312 26.2061 45.4285 26.2061C46.544 26.2061 47.4965 26.7607 48.1413 27.573C48.7861 26.7607 49.7389 26.2061 50.8552 26.2061C51.9715 26.2061 52.9243 26.7607 53.5695 27.5733C54.2143 26.7607 55.1669 26.2061 56.2834 26.2061C58.2242 26.2061 59.8018 27.7825 59.8018 29.7231C59.8018 30.6031 59.4466 31.3839 58.9107 32.0012L62.6352 33.8335C64.1619 34.5847 65.1111 36.2148 65.1111 38.0905C65.1111 39.9665 64.1619 41.5965 62.6352 42.3477L41.7627 52.6165C41.2035 52.8933 40.6019 53.0319 40.0002 53.0319C39.3984 53.0319 38.7968 52.8933 38.2373 52.6165L17.3651 42.3477C15.8381 41.5965 14.889 39.9665 14.889 38.0905C14.889 36.2148 15.8381 34.5847 17.3651 33.8335L21.0896 32.0012C20.5541 31.3839 20.1986 30.6031 20.1986 29.7231C20.1986 27.9495 21.5373 26.5417 23.2453 26.3015V25.2425H13.2896V33.2866C13.9925 32.3293 14.8607 31.5007 15.9536 30.9631L17.76 30.0735C18.1499 29.8727 18.6357 30.0394 18.8306 30.4377C19.0256 30.8333 18.8629 31.3137 18.4661 31.5085L16.6595 32.3983C14.5805 33.4209 13.2895 35.6018 13.2895 38.0905C13.2895 40.5823 14.5805 42.7631 16.6595 43.7858L37.532 54.0517C39.0941 54.8204 40.9075 54.8204 42.4699 54.0517L63.3421 43.7858C65.4168 42.7647 66.7072 40.5858 66.7111 38.1012V38.0797C66.7074 35.5954 65.4183 33.4193 63.3421 32.3983L61.5341 31.5085C61.1371 31.3135 60.9749 30.8333 61.1696 30.4377C61.3647 30.0393 61.8491 29.8756 62.2405 30.0735L64.0485 30.9633C65.1405 31.5004 66.0083 32.3287 66.7111 33.2853V25.2425H52.5242C52.0819 25.2425 51.7247 24.8837 51.7247 24.4433C51.7247 21.8273 53.8531 19.6973 56.4706 19.6973H63.5642C64.1248 19.6973 64.6554 19.8122 65.1552 19.9919C63.8882 18.4244 61.9749 17.4005 59.8082 17.4005H59.2235C58.7815 17.4005 58.424 17.0418 58.424 16.601C58.424 16.1604 58.7816 15.8018 59.2235 15.8018H59.8082C62.6563 15.8018 65.1679 17.2213 66.7112 19.3778V12.3269C66.7112 11.0442 67.7535 10.002 69.0347 10.002C70.3171 10.002 71.3597 11.0442 71.3597 12.3269V19.3777C72.9032 17.221 75.4143 15.8017 78.2624 15.8017H78.8474C79.2895 15.8017 79.6466 16.1604 79.6466 16.6009C79.6466 17.0417 79.2893 17.4004 78.8474 17.4004H78.2624C76.096 17.4004 74.1824 18.4244 72.916 19.9917C73.4155 19.8121 73.9461 19.6972 74.5067 19.6972H79.2C79.6423 19.6972 79.9995 20.0559 79.9995 20.4964C79.9995 20.9372 79.6423 21.2959 79.2 21.2959H74.5066C73.0475 21.2959 71.8186 22.293 71.4626 23.6434H79.2C79.6423 23.6437 79.9995 24.0025 79.9995 24.4433ZM36.8256 55.4868L27.8141 51.0545V78.4482H37.6787V55.7932C37.3933 55.6941 37.1019 55.6228 36.8256 55.4868ZM13.2896 42.8969V78.4482H23.2463V62.4815C23.2463 62.0407 23.6035 61.682 24.0455 61.682C24.4877 61.682 24.845 62.0407 24.845 62.4815V78.4482H26.2151V50.2679L24.845 49.5941V55.0404C24.845 55.4812 24.4877 55.8399 24.0455 55.8399C23.6034 55.8399 23.2463 55.4812 23.2463 55.0404V48.8076L15.9536 45.2209C14.8607 44.6831 13.9925 43.8543 13.2896 42.8969ZM10.24 25.2425V27.8417H11.6904V25.2425H10.24ZM11.6904 46.5599H10.24V53.5234H11.6904V46.5599ZM10.24 55.1223V62.0833H11.6904V55.1223H10.24ZM11.6904 38.0002H10.24V44.9609H11.6904V38.0002ZM11.6904 36.4013V29.4404H10.24V36.4013H11.6904ZM10.24 70.6429H11.6904V63.682H10.24V70.6429ZM61.9296 35.2685L57.3631 33.022C57.0183 33.1351 56.6664 33.2401 56.284 33.2401C55.1674 33.2401 54.2149 32.6855 53.5701 31.8727C52.925 32.6855 51.9722 33.2401 50.8559 33.2401C49.7395 33.2401 48.7867 32.6855 48.1419 31.8732C47.4971 32.6855 46.5445 33.2401 45.4291 33.2401C44.3125 33.2401 43.36 32.6855 42.7152 31.8729C42.0704 32.6855 41.1178 33.2401 40.0013 33.2401C38.8847 33.2401 37.9322 32.6855 37.2874 31.8727C36.6423 32.6855 35.6895 33.2401 34.5731 33.2401C33.4568 33.2401 32.504 32.6855 31.8592 31.8729C31.2144 32.6855 30.2618 33.2401 29.1464 33.2401C28.0301 33.2401 27.0775 32.6855 26.4325 31.8729C25.7877 32.6855 24.8349 33.2401 23.7186 33.2401C23.3362 33.2401 22.9843 33.1351 22.6395 33.022L18.0728 35.2685C16.9061 35.8418 16.4893 37.102 16.4893 38.0905C16.4893 39.0793 16.9061 40.3393 18.0728 40.9127L38.945 51.1815C39.6259 51.5151 40.3775 51.5151 41.0581 51.1815L61.9303 40.9127C63.0971 40.3394 63.5123 39.0793 63.5123 38.0905C63.5117 37.102 63.0965 35.842 61.9296 35.2685ZM54.3695 29.6986C54.3695 29.7073 54.3744 29.7145 54.3744 29.7233C54.3744 29.7319 54.3695 29.7389 54.3695 29.7476C54.3834 30.7922 55.2349 31.6415 56.2842 31.6415C57.3421 31.6415 58.2035 30.7797 58.2035 29.7233C58.2035 28.6665 57.3421 27.805 56.2842 27.805C55.2349 27.805 54.3832 28.6537 54.3695 29.6986ZM48.9411 29.6977C48.9411 29.7069 48.9464 29.7141 48.9464 29.7231C48.9464 29.7321 48.9411 29.7393 48.9411 29.7482C48.9555 30.7922 49.8069 31.6412 50.8559 31.6412C51.9051 31.6412 52.757 30.7919 52.7706 29.7469C52.7706 29.7383 52.7656 29.7313 52.7656 29.7229C52.7656 29.7143 52.7706 29.7073 52.7706 29.6989C52.757 28.6538 51.9051 27.8047 50.8559 27.8047C49.8069 27.805 48.9555 28.6537 48.9411 29.6977ZM43.5146 29.6991C43.5146 29.7074 43.5195 29.7145 43.5195 29.7231C43.5195 29.7314 43.5146 29.7385 43.5146 29.7471C43.5282 30.7919 44.3795 31.6413 45.429 31.6413C46.4784 31.6413 47.3283 30.7921 47.3423 29.7474C47.3423 29.7388 47.3373 29.7317 47.3373 29.7231C47.3373 29.7145 47.3423 29.7073 47.3423 29.6985C47.3283 28.6537 46.4784 27.8049 45.429 27.8049C44.3795 27.8049 43.5282 28.654 43.5146 29.6991ZM38.0864 29.6986C38.0864 29.7073 38.0914 29.7145 38.0914 29.7233C38.0914 29.7319 38.0864 29.7389 38.0864 29.7476C38.1003 30.7922 38.9517 31.6415 40.0011 31.6415C41.0506 31.6415 41.9019 30.7922 41.9155 29.7473C41.9155 29.7386 41.9106 29.7316 41.9106 29.7233C41.9106 29.7146 41.9155 29.7076 41.9155 29.6993C41.9019 28.6541 41.0506 27.805 40.0011 27.805C38.9517 27.805 38.1002 28.6537 38.0864 29.6986ZM32.6581 29.6991C32.6581 29.7074 32.6631 29.7145 32.6631 29.7231C32.6631 29.7314 32.6581 29.7385 32.6581 29.7471C32.6717 30.7919 33.5234 31.6413 34.5728 31.6413C35.6223 31.6413 36.4739 30.7921 36.4875 29.7471C36.4875 29.7385 36.4826 29.7314 36.4826 29.7231C36.4826 29.7145 36.4875 29.7074 36.4875 29.6991C36.4739 28.654 35.6223 27.8049 34.5728 27.8049C33.5234 27.8049 32.6717 28.654 32.6581 29.6991ZM27.2315 29.6991C27.2315 29.7074 27.2365 29.7145 27.2365 29.7231C27.2365 29.7314 27.2315 29.7385 27.2315 29.7471C27.2451 30.7919 28.0965 31.6413 29.1459 31.6413C30.1952 31.6413 31.0453 30.7921 31.0592 29.7474C31.0592 29.7388 31.0543 29.7317 31.0543 29.7231C31.0543 29.7145 31.0592 29.7073 31.0592 29.6985C31.0453 28.6537 30.1952 27.8049 29.1459 27.8049C28.0965 27.805 27.2451 28.654 27.2315 29.6991ZM23.7179 27.805C22.6597 27.805 21.7983 28.6665 21.7983 29.7233C21.7983 30.7797 22.6597 31.6415 23.7179 31.6415C24.7674 31.6415 25.6187 30.7922 25.6323 29.7473C25.6323 29.7386 25.6274 29.7316 25.6274 29.7233C25.6274 29.7146 25.6323 29.7076 25.6323 29.6993C25.6189 28.654 24.7675 27.805 23.7179 27.805ZM16.4367 21.2962C14.9776 21.2962 13.7487 22.2933 13.3927 23.6437H23.2463V21.3017C23.1869 21.2991 23.1277 21.2962 23.0683 21.2962H16.4367ZM10.24 23.6437H11.6904V12.3269C11.6904 11.9257 11.3643 11.6009 10.9647 11.6009C10.5648 11.6009 10.24 11.9257 10.24 12.3269V23.6437ZM10.24 78.4482H11.6904V72.2418H10.24V78.4482ZM40.6479 56.1556C40.4315 56.1753 40.2207 56.23 40.001 56.23C39.7554 56.23 39.5197 56.1716 39.2778 56.1469V78.4482H40.6479V56.1556V56.1556ZM69.7607 53.5234V46.5599H68.3099V53.5234H69.7607ZM68.3099 55.1223V62.0833H69.7607V55.1223H68.3099ZM68.3099 70.6429H69.7607V63.682H68.3099V70.6429ZM69.7607 29.4405H68.3099V36.4015H69.7607V29.4405ZM69.7607 25.2425H68.3099V27.8417H69.7607V25.2425ZM68.3099 23.6437H69.7607V12.3269C69.7607 11.9257 69.4344 11.6009 69.0346 11.6009C68.6347 11.6009 68.3099 11.9257 68.3099 12.3269V23.6437ZM66.6079 23.6437C66.252 22.2933 65.0232 21.2962 63.564 21.2962H56.4704C55.0114 21.2962 53.7824 22.2933 53.4267 23.6437H66.6079ZM68.3114 38.0905C68.3114 38.0943 68.3099 38.0973 68.3099 38.1012V44.9609H69.7607V38.0002H68.3099V38.0797C68.3099 38.0836 68.3114 38.0868 68.3114 38.0905ZM69.7607 78.4482V72.2418H68.3099V78.4482H69.7607ZM2.40066 78.4482H0.800344C0.358264 78.4482 0.000823975 78.8069 0.000823975 79.2477C0.000823975 79.6884 0.358424 80.0473 0.800344 80.0473H2.40066C2.8429 80.0473 3.20018 79.6882 3.20018 79.2477C3.20018 78.8069 2.84306 78.4482 2.40066 78.4482ZM79.2 78.4482H76.6408C76.1987 78.4482 75.8413 78.8069 75.8413 79.2477C75.8413 79.6884 76.1989 80.0473 76.6408 80.0473H79.2C79.6423 80.0473 79.9995 79.6882 79.9995 79.2477C79.9995 78.8069 79.6423 78.4482 79.2 78.4482Z" fill="#231F20"/>
</g>
<defs>
<clipPath id="clip0">
<rect width="80" height="80" fill="white"/>
</clipPath>
</defs>
</svg>
