<svg width="80" height="80" viewBox="0 0 80 80" fill="none" xmlns="http://www.w3.org/2000/svg">
<g clip-path="url(#clip0)">
<path d="M79.1992 79.2003H0.800171L0.800491 15.5738H55.7638C58.2339 15.5738 60.6173 16.4845 62.4583 18.1315L64.581 20.0312C66.4219 21.6784 68.8053 22.589 71.2754 22.589H79.1995L79.1992 79.2003Z" fill="#F6B330"/>
<path d="M79.199 46.2661H0.800003V51.4403H79.199V46.2661Z" fill="#D5870E"/>
<path d="M61.3677 59.287C61.2971 59.0686 61.2586 58.8355 61.2586 58.5933C61.2586 57.3451 62.2707 56.3331 63.5195 56.3331C64.7683 56.3331 65.7805 57.345 65.7805 58.5933C65.7805 58.8354 65.7421 59.0686 65.6714 59.287C66.6829 59.5122 67.4394 60.4141 67.4394 61.4928C67.4394 62.7413 66.4272 63.7533 65.1784 63.7533C64.5226 63.7533 63.9325 63.4737 63.5194 63.028C63.1062 63.4737 62.5162 63.7533 61.8603 63.7533C60.6115 63.7533 59.5994 62.7414 59.5994 61.4928C59.5995 60.4141 60.356 59.512 61.3677 59.287Z" fill="#08AF6C"/>
<path d="M54.0075 25.543C53.9373 25.3243 53.8984 25.0912 53.8984 24.8491C53.8984 23.601 54.9109 22.589 56.1594 22.589C57.4082 22.589 58.4203 23.6008 58.4203 24.8491C58.4203 25.0912 58.3819 25.3245 58.3115 25.543C59.3229 25.7682 60.0794 26.6698 60.0794 27.7488C60.0794 28.997 59.0672 30.009 57.8184 30.009C57.1629 30.009 56.5725 29.7298 56.1594 29.2837C55.7466 29.7298 55.1562 30.009 54.5003 30.009C53.2519 30.009 52.2394 28.9971 52.2394 27.7488C52.2395 26.6698 52.9963 25.7682 54.0075 25.543Z" fill="#08AF6C"/>
<path d="M14.7259 62.9973C14.6554 62.7785 14.6168 62.5454 14.6168 62.3033C14.6168 61.0552 15.629 60.0432 16.8778 60.0432C18.1266 60.0432 19.1387 61.055 19.1387 62.3033C19.1387 62.5454 19.1003 62.7785 19.0296 62.9973C20.0411 63.2221 20.7976 64.124 20.7976 65.203C20.7976 66.4512 19.7855 67.4632 18.5367 67.4632C17.8808 67.4632 17.2907 67.1837 16.8776 66.7379C16.4645 67.1837 15.8744 67.4632 15.2186 67.4632C13.9698 67.4632 12.9576 66.4514 12.9576 65.203C12.9579 64.124 13.7144 63.2221 14.7259 62.9973Z" fill="#08AF6C"/>
<path d="M10.4078 74.7341C10.3373 74.5157 10.2987 74.2826 10.2987 74.0403C10.2987 72.7922 11.3112 71.7802 12.5597 71.7802C13.8085 71.7802 14.8206 72.792 14.8206 74.0403C14.8206 74.2824 14.7822 74.5157 14.7115 74.7341C15.723 74.9592 16.4795 75.8611 16.4795 76.9398C16.4795 78.1883 15.4674 79.2003 14.2186 79.2003C13.5627 79.2003 12.9726 78.9208 12.5595 78.475C12.1467 78.9208 11.5563 79.2003 10.9005 79.2003C9.65201 79.2003 8.63953 78.1885 8.63953 76.9398C8.63985 75.8611 9.39633 74.9592 10.4078 74.7341Z" fill="#08AF6C"/>
<path d="M2.56797 74.7341C2.49741 74.5157 2.45885 74.2826 2.45885 74.0403C2.45885 72.7922 3.47133 71.7802 4.71981 71.7802C5.96861 71.7802 6.98077 72.792 6.98077 74.0403C6.98077 74.2824 6.94237 74.5157 6.87165 74.7341C7.88317 74.9592 8.63965 75.8611 8.63965 76.9398C8.63965 78.1883 7.62749 79.2003 6.37869 79.2003C5.72285 79.2003 5.13277 78.9208 4.71965 78.475C4.30685 78.9208 3.71645 79.2003 3.06061 79.2003C1.81213 79.2003 0.799652 78.1885 0.799652 76.9398C0.799812 75.8611 1.55629 74.9592 2.56797 74.7341Z" fill="#08AF6C"/>
<path d="M26.0879 74.7341C26.0173 74.5157 25.9787 74.2826 25.9787 74.0403C25.9787 72.7922 26.9909 71.7802 28.2397 71.7802C29.4885 71.7802 30.5007 72.792 30.5007 74.0403C30.5007 74.2824 30.4623 74.5157 30.3915 74.7341C31.4031 74.9592 32.1595 75.8611 32.1595 76.9398C32.1595 78.1883 31.1474 79.2003 29.8986 79.2003C29.2427 79.2003 28.6527 78.9208 28.2395 78.475C27.8264 78.9208 27.2363 79.2003 26.5805 79.2003C25.3317 79.2003 24.3195 78.1885 24.3195 76.9398C24.3197 75.8611 25.0762 74.9592 26.0879 74.7341Z" fill="#08AF6C"/>
<path d="M18.2479 74.7341C18.1773 74.5157 18.1387 74.2826 18.1387 74.0403C18.1387 72.7922 19.1512 71.7802 20.3997 71.7802C21.6485 71.7802 22.6607 72.792 22.6607 74.0403C22.6607 74.2824 22.6223 74.5157 22.5515 74.7341C23.5631 74.9592 24.3195 75.8611 24.3195 76.9398C24.3195 78.1883 23.3074 79.2003 22.0586 79.2003C21.4027 79.2003 20.8127 78.9208 20.3995 78.475C19.9864 78.9208 19.3963 79.2003 18.7405 79.2003C17.4917 79.2003 16.4795 78.1885 16.4795 76.9398C16.4799 75.8611 17.2363 74.9592 18.2479 74.7341Z" fill="#08AF6C"/>
<path d="M41.7677 74.7341C41.6971 74.5157 41.6586 74.2826 41.6586 74.0403C41.6586 72.7922 42.6707 71.7802 43.9195 71.7802C45.1683 71.7802 46.1805 72.792 46.1805 74.0403C46.1805 74.2824 46.1421 74.5157 46.0714 74.7341C47.0829 74.9592 47.8394 75.8611 47.8394 76.9398C47.8394 78.1883 46.8272 79.2003 45.5784 79.2003C44.9226 79.2003 44.3325 78.9208 43.9194 78.475C43.5062 78.9208 42.9162 79.2003 42.2603 79.2003C41.0115 79.2003 39.9994 78.1885 39.9994 76.9398C39.9997 75.8611 40.7562 74.9592 41.7677 74.7341Z" fill="#08AF6C"/>
<path d="M33.9279 74.7341C33.8573 74.5157 33.8187 74.2826 33.8187 74.0403C33.8187 72.7922 34.8309 71.7802 36.0797 71.7802C37.3285 71.7802 38.3407 72.792 38.3407 74.0403C38.3407 74.2824 38.3023 74.5157 38.2315 74.7341C39.2431 74.9592 39.9995 75.8611 39.9995 76.9398C39.9995 78.1883 38.9874 79.2003 37.7386 79.2003C37.0827 79.2003 36.4927 78.9208 36.0795 78.475C35.6664 78.9208 35.0763 79.2003 34.4205 79.2003C33.1717 79.2003 32.1595 78.1885 32.1595 76.9398C32.1597 75.8611 32.9162 74.9592 33.9279 74.7341Z" fill="#08AF6C"/>
<path d="M57.4477 74.7341C57.3771 74.5157 57.3386 74.2826 57.3386 74.0403C57.3386 72.7922 58.3507 71.7802 59.5995 71.7802C60.8483 71.7802 61.8605 72.792 61.8605 74.0403C61.8605 74.2824 61.8221 74.5157 61.7514 74.7341C62.7629 74.9592 63.5194 75.8611 63.5194 76.9398C63.5194 78.1883 62.5072 79.2003 61.2584 79.2003C60.6026 79.2003 60.0125 78.9208 59.5994 78.475C59.1862 78.9208 58.5962 79.2003 57.9403 79.2003C56.6915 79.2003 55.6794 78.1885 55.6794 76.9398C55.6795 75.8611 56.436 74.9592 57.4477 74.7341Z" fill="#08AF6C"/>
<path d="M49.6077 74.7341C49.5371 74.5157 49.4986 74.2826 49.4986 74.0403C49.4986 72.7922 50.5107 71.7802 51.7595 71.7802C53.0083 71.7802 54.0205 72.792 54.0205 74.0403C54.0205 74.2824 53.9821 74.5157 53.9114 74.7341C54.9231 74.9592 55.6794 75.8611 55.6794 76.9398C55.6794 78.1883 54.6672 79.2003 53.4184 79.2003C52.7626 79.2003 52.1725 78.9208 51.7594 78.475C51.3463 78.9208 50.7562 79.2003 50.1003 79.2003C48.8515 79.2003 47.8394 78.1885 47.8394 76.9398C47.8397 75.8611 48.596 74.9592 49.6077 74.7341Z" fill="#08AF6C"/>
<path d="M73.1275 74.7341C73.057 74.5157 73.0184 74.2826 73.0184 74.0403C73.0184 72.7922 74.0306 71.7802 75.2794 71.7802C76.5282 71.7802 77.5403 72.792 77.5403 74.0403C77.5403 74.2824 77.5019 74.5157 77.4312 74.7341C78.4427 74.9592 79.1992 75.8611 79.1992 76.9398C79.1992 78.1883 78.187 79.2003 76.9382 79.2003C76.2824 79.2003 75.6923 78.9208 75.2792 78.475C74.8661 78.9208 74.276 79.2003 73.6202 79.2003C72.3714 79.2003 71.3592 78.1885 71.3592 76.9398C71.3595 75.8611 72.116 74.9592 73.1275 74.7341Z" fill="#08AF6C"/>
<path d="M65.2875 74.7341C65.217 74.5157 65.1784 74.2826 65.1784 74.0403C65.1784 72.7922 66.1906 71.7802 67.4394 71.7802C68.6882 71.7802 69.7003 72.792 69.7003 74.0403C69.7003 74.2824 69.6619 74.5157 69.5912 74.7341C70.6027 74.9592 71.3592 75.8611 71.3592 76.9398C71.3592 78.1883 70.347 79.2003 69.0982 79.2003C68.4424 79.2003 67.8523 78.9208 67.4392 78.475C67.0261 78.9208 66.436 79.2003 65.7802 79.2003C64.5314 79.2003 63.5192 78.1885 63.5192 76.9398C63.5195 75.8611 64.276 74.9592 65.2875 74.7341Z" fill="#08AF6C"/>
<path d="M10.4078 12.3176C10.3373 12.0989 10.2987 11.8658 10.2987 11.6237C10.2987 10.3755 11.3112 9.36353 12.5597 9.36353C13.8085 9.36353 14.8206 10.3754 14.8206 11.6237C14.8206 11.8658 14.7822 12.099 14.7115 12.3176C15.723 12.5427 16.4795 13.4443 16.4795 14.5234C16.4795 15.7715 15.4674 16.7835 14.2186 16.7835C13.5627 16.7835 12.9726 16.5043 12.5595 16.0582C12.1467 16.5043 11.5563 16.7835 10.9005 16.7835C9.65201 16.7835 8.63953 15.7717 8.63953 14.5234C8.63985 13.4443 9.39633 12.5427 10.4078 12.3176Z" fill="#08AF6C"/>
<path d="M2.56797 12.3176C2.49741 12.0989 2.45885 11.8658 2.45885 11.6237C2.45885 10.3755 3.47133 9.36353 4.71981 9.36353C5.96861 9.36353 6.98077 10.3754 6.98077 11.6237C6.98077 11.8658 6.94237 12.099 6.87165 12.3176C7.88317 12.5427 8.63965 13.4443 8.63965 14.5234C8.63965 15.7715 7.62749 16.7835 6.37869 16.7835C5.72285 16.7835 5.13277 16.5043 4.71965 16.0582C4.30685 16.5043 3.71645 16.7835 3.06061 16.7835C1.81213 16.7835 0.799652 15.7717 0.799652 14.5234C0.799812 13.4443 1.55629 12.5427 2.56797 12.3176Z" fill="#08AF6C"/>
<path d="M26.0879 12.3176C26.0173 12.0989 25.9787 11.8658 25.9787 11.6237C25.9787 10.3755 26.9909 9.36353 28.2397 9.36353C29.4885 9.36353 30.5007 10.3754 30.5007 11.6237C30.5007 11.8658 30.4623 12.099 30.3915 12.3176C31.4031 12.5427 32.1595 13.4443 32.1595 14.5234C32.1595 15.7715 31.1474 16.7835 29.8986 16.7835C29.2427 16.7835 28.6527 16.5043 28.2395 16.0582C27.8264 16.5043 27.2363 16.7835 26.5805 16.7835C25.3317 16.7835 24.3195 15.7717 24.3195 14.5234C24.3197 13.4443 25.0762 12.5427 26.0879 12.3176Z" fill="#08AF6C"/>
<path d="M18.2479 12.3176C18.1773 12.0989 18.1387 11.8658 18.1387 11.6237C18.1387 10.3755 19.1512 9.36353 20.3997 9.36353C21.6485 9.36353 22.6607 10.3754 22.6607 11.6237C22.6607 11.8658 22.6223 12.099 22.5515 12.3176C23.5631 12.5427 24.3195 13.4443 24.3195 14.5234C24.3195 15.7715 23.3074 16.7835 22.0586 16.7835C21.4027 16.7835 20.8127 16.5043 20.3995 16.0582C19.9864 16.5043 19.3963 16.7835 18.7405 16.7835C17.4917 16.7835 16.4795 15.7717 16.4795 14.5234C16.4799 13.4443 17.2363 12.5427 18.2479 12.3176Z" fill="#08AF6C"/>
<path d="M41.7677 12.3176C41.6971 12.0989 41.6586 11.8658 41.6586 11.6237C41.6586 10.3755 42.6707 9.36353 43.9195 9.36353C45.1683 9.36353 46.1805 10.3754 46.1805 11.6237C46.1805 11.8658 46.1421 12.099 46.0714 12.3176C47.0829 12.5427 47.8394 13.4443 47.8394 14.5234C47.8394 15.7715 46.8272 16.7835 45.5784 16.7835C44.9226 16.7835 44.3325 16.5043 43.9194 16.0582C43.5062 16.5043 42.9162 16.7835 42.2603 16.7835C41.0115 16.7835 39.9994 15.7717 39.9994 14.5234C39.9997 13.4443 40.7562 12.5427 41.7677 12.3176Z" fill="#08AF6C"/>
<path d="M33.9279 12.3176C33.8573 12.0989 33.8187 11.8658 33.8187 11.6237C33.8187 10.3755 34.8309 9.36353 36.0797 9.36353C37.3285 9.36353 38.3407 10.3754 38.3407 11.6237C38.3407 11.8658 38.3023 12.099 38.2315 12.3176C39.2431 12.5427 39.9995 13.4443 39.9995 14.5234C39.9995 15.7715 38.9874 16.7835 37.7386 16.7835C37.0827 16.7835 36.4927 16.5043 36.0795 16.0582C35.6664 16.5043 35.0763 16.7835 34.4205 16.7835C33.1717 16.7835 32.1595 15.7717 32.1595 14.5234C32.1597 13.4443 32.9162 12.5427 33.9279 12.3176Z" fill="#08AF6C"/>
<path d="M26.6825 46.2661H23.0979C22.5233 46.2661 22.0579 45.8003 22.0579 45.2261V38.9346C22.0579 38.36 22.5233 37.8942 23.0979 37.8942C23.6721 37.8942 24.1379 38.36 24.1379 38.9346V44.1861H26.6827C27.2569 44.1861 27.7227 44.6515 27.7227 45.2261C27.7225 45.8003 27.2568 46.2661 26.6825 46.2661Z" fill="white"/>
<path d="M33.9491 46.2661H30.3645C29.7899 46.2661 29.3245 45.8003 29.3245 45.2261V38.9346C29.3245 38.36 29.7899 37.8942 30.3645 37.8942C30.9387 37.8942 31.4045 38.36 31.4045 38.9346V44.1861H33.9493C34.5235 44.1861 34.9893 44.6515 34.9893 45.2261C34.9891 45.8003 34.5234 46.2661 33.9491 46.2661Z" fill="white"/>
<path d="M12.1688 37.8944C11.5942 37.8944 11.1286 38.3602 11.1286 38.9347V41.0403H9.62399V38.9347C9.62399 38.3602 9.15823 37.8944 8.58399 37.8944C8.00943 37.8944 7.54399 38.3602 7.54399 38.9347V45.2262C7.54399 45.8005 8.00943 46.2662 8.58399 46.2662C9.15823 46.2662 9.62399 45.8005 9.62399 45.2262V43.1203H11.1285V45.2262C11.1285 45.8005 11.5942 46.2662 12.1686 46.2662C12.7429 46.2662 13.2086 45.8005 13.2086 45.2262V38.9347C13.2086 38.3602 12.7429 37.8944 12.1688 37.8944Z" fill="white"/>
<path d="M39.6982 37.9797C39.1709 37.752 38.5587 37.995 38.3312 38.5224L37.628 40.1517L36.9245 38.5224C36.6968 37.9947 36.0846 37.752 35.5575 37.9797C35.0301 38.2073 34.7871 38.8192 35.0147 39.3465L36.5878 42.9902V45.2261C36.5878 45.8003 37.0536 46.2661 37.628 46.2661C38.2022 46.2661 38.668 45.8003 38.668 45.2261V42.9902L40.2408 39.3465C40.4683 38.8192 40.2256 38.2073 39.6982 37.9797Z" fill="white"/>
<path d="M48.5344 46.2661H47.5832C47.0869 46.2661 46.6592 45.9149 46.5629 45.4277L46.3395 44.2974L46.1161 45.4277C46.0198 45.9149 45.5923 46.2661 45.0958 46.2661H44.1446C43.6437 46.2661 43.2137 45.9088 43.1221 45.4162L41.9517 39.1246C41.8467 38.56 42.2192 38.017 42.784 37.912C43.3481 37.8082 43.8917 38.1795 43.9966 38.7443L44.6368 42.1853L45.3192 38.7328C45.4155 38.2456 45.843 37.8944 46.3395 37.8944C46.8361 37.8944 47.2635 38.2456 47.3598 38.7328L48.0422 42.185L48.6824 38.7443C48.7873 38.1797 49.3325 37.8077 49.895 37.912C50.4597 38.017 50.8323 38.56 50.7273 39.1246L49.5569 45.4162C49.4653 45.9088 49.0355 46.2661 48.5344 46.2661Z" fill="white"/>
<path d="M70.1563 46.2661H67.8309C67.2563 46.2661 66.7909 45.8003 66.7909 45.2261V38.9346C66.7909 38.36 67.2563 37.8942 67.8309 37.8942H70.1563C70.3891 37.8942 70.615 37.9723 70.7982 38.1162L72.0574 39.1037C72.3088 39.301 72.4555 39.6027 72.4555 39.9221V44.2384C72.4555 44.5578 72.3088 44.8595 72.0574 45.0565L70.7982 46.044C70.6152 46.188 70.3893 46.2661 70.1563 46.2661ZM68.8709 44.1861H69.7971L70.3754 43.7325V40.428L69.7971 39.9744H68.8709V44.1861Z" fill="white"/>
<path d="M63.14 46.2661H61.5551C61.2927 46.2661 61.0402 46.1669 60.8479 45.9886L59.8483 45.0621C59.636 44.8654 59.5154 44.5888 59.5154 44.2992V39.8611C59.5154 39.5715 59.636 39.2954 59.8483 39.0986L60.8479 38.1717C61.0402 37.9934 61.2928 37.8942 61.5551 37.8942H63.14C63.4024 37.8942 63.6546 37.9934 63.8471 38.1717L64.8471 39.0982C65.0594 39.2952 65.18 39.5715 65.18 39.8611V44.2992C65.18 44.5888 65.0594 44.8653 64.8471 45.0621L63.8471 45.989C63.6546 46.1669 63.4024 46.2661 63.14 46.2661ZM61.9629 44.1861H62.7323L63.0997 43.8453V40.3152L62.7323 39.9744H61.9629L61.5952 40.3152V43.8453L61.9629 44.1861Z" fill="white"/>
<path d="M55.8621 46.2661H54.2768C54.0147 46.2661 53.7623 46.1669 53.5698 45.989L52.5701 45.0621C52.3578 44.8654 52.2371 44.5888 52.2371 44.2992V39.8611C52.2371 39.5715 52.3578 39.2954 52.5701 39.0982L53.5698 38.1717C53.7621 37.9934 54.0147 37.8942 54.2768 37.8942H55.8621C56.1242 37.8942 56.3767 37.9934 56.5691 38.1717L57.5688 39.0982C57.7811 39.2952 57.9018 39.5715 57.9018 39.8611V44.2992C57.9018 44.5888 57.7811 44.8653 57.5688 45.0621L56.5691 45.989C56.3768 46.1669 56.1242 46.2661 55.8621 46.2661ZM54.6848 44.1861H55.4543L55.8219 43.8453V40.3152L55.4543 39.9744H54.6848L54.3171 40.3152V43.8453L54.6848 44.1861Z" fill="white"/>
<path d="M18.4225 46.2661H16.8376C16.5755 46.2661 16.323 46.1669 16.1305 45.9886L15.1309 45.0621C14.9185 44.8654 14.7979 44.5888 14.7979 44.2992V39.8611C14.7979 39.5715 14.9185 39.2954 15.1309 39.0986L16.1305 38.1717C16.3229 37.9934 16.5755 37.8942 16.8376 37.8942H18.4225C18.6849 37.8942 18.9374 37.9934 19.1296 38.1717L20.1296 39.0982C20.3419 39.2952 20.4625 39.5715 20.4625 39.8611V44.2992C20.4625 44.5888 20.3419 44.8653 20.1296 45.0621L19.1296 45.989C18.9374 46.1669 18.6849 46.2661 18.4225 46.2661ZM17.2454 44.1861H18.0149L18.3825 43.8453V40.3152L18.0149 39.9744H17.2454L16.8777 40.3152V43.8453L17.2454 44.1861Z" fill="white"/>
<path d="M77.227 22.5885C77.227 22.1464 77.586 21.7893 78.0265 21.7893H79.199C79.6396 21.7893 79.9982 22.1466 79.9982 22.5885C79.9982 23.0307 79.6395 23.388 79.199 23.388H78.0265C77.586 23.3882 77.227 23.0309 77.227 22.5885ZM71.2748 21.7893C68.9979 21.7893 66.8088 20.953 65.1136 19.436L62.992 17.536C61.0006 15.7549 58.4353 14.7749 55.763 14.7749H54.2377C53.7969 14.7749 53.4382 15.1322 53.4382 15.5741C53.4382 16.0163 53.7969 16.3736 54.2377 16.3736H55.763C58.04 16.3736 60.2294 17.2096 61.9243 18.7283L64.0459 20.628C66.0376 22.4077 68.6054 23.388 71.2748 23.388H74.3993C74.84 23.388 75.1988 23.0307 75.1988 22.5885C75.1988 22.1464 74.8398 21.7893 74.3993 21.7893H71.2748ZM50.7459 16.3738H51.4126C51.8534 16.3738 52.2121 16.0165 52.2121 15.5742C52.2121 15.1322 51.8534 14.775 51.4126 14.775H50.7459C50.3052 14.775 49.9467 15.1323 49.9467 15.5742C49.9465 16.0165 50.3052 16.3738 50.7459 16.3738ZM13.8224 62.4816C13.8195 62.4221 13.818 62.3627 13.818 62.3034C13.818 60.6154 15.1896 59.244 16.8774 59.244C18.5652 59.244 19.9382 60.6155 19.9382 62.3034C19.9382 62.3627 19.9371 62.4219 19.9342 62.4816C20.9313 62.9971 21.598 64.0451 21.598 65.2034C21.598 65.7426 21.4204 66.2237 21.1745 66.664H28.6404C29.0827 66.664 29.44 67.0213 29.44 67.4632C29.44 67.9055 29.0827 68.2627 28.6404 68.2627H18.5372C17.9468 68.2627 17.3691 68.0903 16.8774 67.7739C16.3873 68.0904 15.8112 68.2627 15.2193 68.2627C13.5313 68.2627 12.1585 66.8912 12.1585 65.2034C12.1584 64.0451 12.8252 62.9971 13.8224 62.4816ZM13.7572 65.2035C13.7572 66.0087 14.4142 66.6642 15.2193 66.6642C15.6304 66.6642 16.0102 66.4973 16.2913 66.1949C16.4424 66.0312 16.6544 65.9395 16.8774 65.9395C17.0993 65.9395 17.3124 66.0312 17.4638 66.1938C17.7448 66.4973 18.1262 66.6642 18.5372 66.6642C19.3424 66.6642 19.999 66.0087 19.999 65.2035C19.999 64.524 19.5188 63.9253 18.8563 63.7783C18.6372 63.7288 18.4481 63.5906 18.3364 63.3941C18.2236 63.1991 18.1996 62.9659 18.2688 62.7514C18.3153 62.6074 18.3393 62.4563 18.3393 62.3035C18.3393 61.4984 17.6827 60.8429 16.8772 60.8429C16.0721 60.8429 15.4169 61.4984 15.4169 62.3035C15.4169 62.4563 15.4409 62.6072 15.4875 62.7514C15.5566 62.9661 15.5326 63.1992 15.4195 63.3941C15.3081 63.5906 15.1187 63.7288 14.8996 63.7783C14.2374 63.9251 13.7572 64.524 13.7572 65.2035ZM79.9982 76.9397C79.9982 78.6277 78.6252 80.0005 76.9388 80.0005C76.3459 80.0005 75.7692 79.8266 75.2808 79.5104C74.7892 79.8266 74.2102 80.0005 73.6198 80.0005C72.7136 80.0005 71.9206 79.5866 71.36 78.9579C70.799 79.5866 70.0059 80.0005 69.0998 80.0005C68.498 80.0005 67.9273 79.8311 67.4388 79.5119C66.947 79.828 66.3708 80.0005 65.7804 80.0005C64.8744 80.0005 64.0809 79.5863 63.5203 78.9576C62.9592 79.5863 62.1652 80.0005 61.2576 80.0005C60.6672 80.0005 60.0908 79.828 59.5995 79.5119C59.108 79.828 58.5318 80.0005 57.9411 80.0005C57.0336 80.0005 56.2398 79.5866 55.6787 78.9576C55.1177 79.5866 54.3249 80.0005 53.4185 80.0005C52.8281 80.0005 52.2518 79.828 51.7601 79.5119C51.2686 79.828 50.6924 80.0005 50.102 80.0005C49.1944 80.0005 48.4006 79.5863 47.8393 78.9576C47.2787 79.5863 46.4852 80.0005 45.5792 80.0005C44.9859 80.0005 44.4096 79.8266 43.9211 79.5104C43.4292 79.8266 42.8516 80.0005 42.2612 80.0005C41.3544 80.0005 40.5609 79.5866 40 78.9583C39.439 79.5866 38.6456 80.0005 37.7387 80.0005C37.1468 80.0005 36.5705 79.8266 36.0803 79.5104C35.5888 79.8266 35.0126 80.0005 34.4208 80.0005C33.5139 80.0005 32.7209 79.5866 32.1603 78.9583C31.5993 79.5866 30.8062 80.0005 29.8993 80.0005C29.3075 80.0005 28.7312 79.8266 28.2398 79.5104C27.7494 79.8266 27.1732 80.0005 26.5814 80.0005C25.6742 80.0005 24.8811 79.5866 24.3201 78.9579C23.759 79.5866 22.9657 80.0005 22.0588 80.0005C21.467 80.0005 20.8905 79.8266 20.4004 79.5104C19.9089 79.8266 19.3328 80.0005 18.7409 80.0005C17.834 80.0005 17.0411 79.5866 16.4808 78.9583C15.9198 79.5866 15.1264 80.0005 14.2195 80.0005C13.6276 80.0005 13.0513 79.8266 12.56 79.5104C12.0696 79.8266 11.4934 80.0005 10.9016 80.0005C9.99469 80.0005 9.20125 79.5866 8.64029 78.9576C8.07933 79.5866 7.28557 80.0005 6.37869 80.0005C5.78717 80.0005 5.21053 79.8266 4.72061 79.5119C4.23053 79.8266 3.65293 80.0005 3.06109 80.0005C1.37325 80.0005 0.00173122 78.6276 0.00173122 76.9397C0.00173122 75.7815 0.668291 74.7349 1.66413 74.2194C1.66125 74.16 1.65981 74.1008 1.65981 74.0412C1.65981 72.3532 3.03277 70.9803 4.72061 70.9803C6.40845 70.9803 7.78141 72.3533 7.78141 74.0412C7.78141 74.1007 7.77997 74.16 7.77709 74.2194C8.11293 74.3933 8.39213 74.644 8.64029 74.9226C8.88845 74.644 9.16829 74.3931 9.50461 74.2194C9.50173 74.16 9.50029 74.1008 9.50029 74.0412C9.50029 72.3532 10.872 70.9803 12.56 70.9803C14.248 70.9803 15.6208 72.3533 15.6208 74.0412C15.6208 74.1007 15.6193 74.16 15.6164 74.2194C15.9529 74.3933 16.2326 74.6437 16.4808 74.9226C16.7286 74.6437 17.0078 74.3931 17.344 74.2194C17.3411 74.16 17.3396 74.1008 17.3396 74.0412C17.3396 72.3532 18.7126 70.9803 20.4004 70.9803C22.0883 70.9803 23.4598 72.3533 23.4598 74.0412C23.4598 74.1007 23.4584 74.16 23.4558 74.2194C23.7924 74.3933 24.072 74.644 24.3204 74.9226C24.5686 74.644 24.8481 74.3931 25.1844 74.2194C25.1816 74.16 25.1804 74.1008 25.1804 74.0412C25.1804 72.3532 26.552 70.9803 28.2398 70.9803C29.9276 70.9803 31.3006 72.3533 31.3006 74.0412C31.3006 74.1007 31.2992 74.16 31.2963 74.2194C31.6328 74.3933 31.9124 74.6437 32.1606 74.9226C32.4084 74.6437 32.6876 74.3931 33.0238 74.2194C33.0209 74.16 33.0195 74.1008 33.0195 74.0412C33.0195 72.3532 34.3924 70.9803 36.0803 70.9803C37.7681 70.9803 39.1396 72.3533 39.1396 74.0412C39.1396 74.1007 39.1382 74.16 39.1356 74.2194C39.4721 74.3933 39.7518 74.644 40 74.9226C40.2481 74.644 40.5276 74.3931 40.8643 74.2194C40.8617 74.16 40.8603 74.1008 40.8603 74.0412C40.8603 72.3532 42.2332 70.9803 43.9211 70.9803C45.6075 70.9803 46.9804 72.3533 46.9804 74.0412C46.9804 74.1007 46.9804 74.16 46.9747 74.2194C47.3113 74.3933 47.5908 74.644 47.8393 74.9232C48.0881 74.6436 48.3688 74.3922 48.7065 74.2179C48.7008 74.16 48.7008 74.1008 48.7008 74.0412C48.7008 72.3532 50.0737 70.9803 51.7601 70.9803C53.4465 70.9803 54.8195 72.3533 54.8195 74.0412C54.8195 74.1007 54.8195 74.16 54.814 74.2179C55.1507 74.392 55.4305 74.6432 55.679 74.9223C55.9278 74.6431 56.2081 74.392 56.5457 74.2179C56.5403 74.16 56.5403 74.1008 56.5403 74.0412C56.5403 72.3532 57.9132 70.9803 59.5996 70.9803C61.286 70.9803 62.659 72.3533 62.659 74.0412C62.659 74.1007 62.659 74.16 62.6536 74.2179C62.9915 74.392 63.272 74.6435 63.5208 74.9229C63.7689 74.644 64.0488 74.3933 64.3851 74.2194C64.3793 74.16 64.3793 74.1008 64.3793 74.0412C64.3793 72.3532 65.7523 70.9803 67.439 70.9803C69.1281 70.9803 70.5009 72.3533 70.5009 74.0412C70.5009 74.1007 70.5009 74.16 70.4955 74.2194C70.832 74.3933 71.1116 74.644 71.3598 74.9232C71.608 74.644 71.8878 74.3933 72.2241 74.2194C72.2187 74.16 72.2187 74.1008 72.2187 74.0412C72.2187 72.3532 73.5916 70.9803 75.2809 70.9803C76.9673 70.9803 78.3403 72.3533 78.3403 74.0412C78.3403 74.1007 78.3403 74.16 78.3348 74.2194C79.3318 74.7349 79.9982 75.7829 79.9982 76.9397ZM7.84045 76.9397C7.84045 76.2616 7.36029 75.6629 6.69773 75.5159C6.47869 75.4664 6.28957 75.3282 6.17789 75.1317C6.06477 74.9367 6.04077 74.7035 6.11021 74.489C6.15821 74.3421 6.18221 74.1911 6.18221 74.0412C6.18221 73.236 5.52525 72.5794 4.72013 72.5794C3.91501 72.5794 3.25805 73.236 3.25805 74.0412C3.25805 74.194 3.28205 74.3448 3.32861 74.489C3.39805 74.7037 3.37405 74.9368 3.26093 75.1317C3.14925 75.3282 2.96013 75.4664 2.74109 75.5159C2.08013 75.6627 1.59997 76.2616 1.59997 76.9397C1.59997 77.7448 2.25517 78.4018 3.06045 78.4018C3.47261 78.4018 3.85277 78.2352 4.13245 77.9328C4.28349 77.7688 4.49693 77.6757 4.71997 77.6757C4.94301 77.6757 5.15645 77.7688 5.30749 77.9328C5.58717 78.2351 5.96733 78.4018 6.37805 78.4018C7.18381 78.4018 7.84045 77.7448 7.84045 76.9397ZM15.6812 76.9397C15.6812 76.2616 15.2008 75.6629 14.5384 75.5159C14.3196 75.4664 14.1302 75.3282 14.0188 75.1317C13.9057 74.9367 13.8817 74.7035 13.9508 74.489C13.9974 74.345 14.0214 74.194 14.0214 74.0412C14.0214 73.236 13.3648 72.5794 12.5596 72.5794C11.7544 72.5794 11.0992 73.236 11.0992 74.0412C11.0992 74.194 11.1232 74.3448 11.1697 74.489C11.2388 74.7037 11.2148 74.9368 11.102 75.1317C10.9904 75.3282 10.8012 75.4664 10.5822 75.5159C9.91981 75.6627 9.43933 76.2616 9.43933 76.9397C9.43933 77.7448 10.0963 78.4018 10.9014 78.4018C11.3125 78.4018 11.6926 78.2352 11.972 77.9328C12.1233 77.7688 12.3364 77.6757 12.5598 77.6757C12.7828 77.6757 12.9948 77.7674 13.1459 77.9314C13.427 78.2336 13.8083 78.4018 14.2193 78.4018C15.0243 78.4018 15.6812 77.7448 15.6812 76.9397ZM23.5203 76.9397C23.5203 76.2616 23.0401 75.6629 22.3777 75.5159C22.1587 75.4664 21.9696 75.3282 21.8579 75.1317C21.7451 74.9367 21.7211 74.7035 21.7902 74.489C21.8368 74.345 21.8608 74.194 21.8608 74.0412C21.8608 73.236 21.2052 72.5794 20.4003 72.5794C19.5952 72.5794 18.9382 73.236 18.9382 74.0412C18.9382 74.194 18.9622 74.3448 19.0091 74.489C19.0782 74.7037 19.0542 74.9368 18.9411 75.1317C18.8294 75.3282 18.6403 75.4664 18.4212 75.5159C17.7603 75.6627 17.2801 76.2616 17.2801 76.9397C17.2801 77.7448 17.9356 78.4018 18.7406 78.4018C19.1516 78.4018 19.5329 78.2338 19.814 77.9314C19.9651 77.7674 20.1771 77.6757 20.4001 77.6757C20.6235 77.6757 20.8366 77.7688 20.9876 77.9328C21.2673 78.2351 21.6475 78.4018 22.0585 78.4018C22.8636 78.4018 23.5203 77.7448 23.5203 76.9397ZM31.3611 76.9397C31.3611 76.2616 30.8809 75.6629 30.2185 75.5159C29.9995 75.4664 29.81 75.3282 29.6987 75.1317C29.5856 74.9367 29.5616 74.7035 29.6307 74.489C29.6772 74.345 29.7012 74.194 29.7012 74.0412C29.7012 73.236 29.0446 72.5794 28.2395 72.5794C27.4344 72.5794 26.779 73.236 26.779 74.0412C26.779 74.194 26.803 74.3448 26.8496 74.489C26.9187 74.7037 26.8947 74.9368 26.7819 75.1317C26.6702 75.3282 26.4811 75.4664 26.262 75.5159C25.5996 75.6627 25.1195 76.2616 25.1195 76.9397C25.1195 77.7448 25.7761 78.4018 26.5812 78.4018C26.9923 78.4018 27.3724 78.2352 27.6518 77.9328C27.8032 77.7688 28.0163 77.6757 28.2396 77.6757C28.4627 77.6757 28.6747 77.7674 28.8257 77.9314C29.1068 78.2336 29.4881 78.4018 29.8992 78.4018C30.7041 78.4018 31.3611 77.7448 31.3611 76.9397ZM39.2003 76.9397C39.2003 76.2616 38.7201 75.6629 38.0576 75.5159C37.8385 75.4664 37.6494 75.3282 37.5377 75.1317C37.4249 74.9367 37.4009 74.7035 37.47 74.489C37.5166 74.345 37.5406 74.194 37.5406 74.0412C37.5406 73.236 36.8851 72.5794 36.0801 72.5794C35.275 72.5794 34.618 73.236 34.618 74.0412C34.618 74.194 34.642 74.3448 34.6889 74.489C34.758 74.7037 34.734 74.9368 34.6209 75.1317C34.5096 75.3282 34.3201 75.4664 34.1011 75.5159C33.4401 75.6627 32.96 76.2616 32.96 76.9397C32.96 77.7448 33.6155 78.4018 34.4204 78.4018C34.8315 78.4018 35.2128 78.2338 35.4939 77.9314C35.6449 77.7674 35.8569 77.6757 36.08 77.6757C36.3033 77.6757 36.5164 77.7688 36.6675 77.9328C36.9472 78.2351 37.3273 78.4018 37.7384 78.4018C38.5436 78.4018 39.2003 77.7448 39.2003 76.9397ZM47.0396 76.9397C47.0396 76.2616 46.5595 75.6629 45.8985 75.5159C45.678 75.4664 45.4889 75.3282 45.3758 75.1317C45.2656 74.9367 45.2401 74.7035 45.3081 74.489C45.3561 74.3421 45.3816 74.1911 45.3816 74.0412C45.3816 73.236 44.726 72.5794 43.9211 72.5794C43.1158 72.5794 42.4592 73.236 42.4592 74.0412C42.4592 74.194 42.4832 74.3448 42.5297 74.489C42.5988 74.7037 42.5748 74.9368 42.462 75.1317C42.3504 75.3282 42.1612 75.4664 41.9422 75.5159C41.2798 75.6627 40.7996 76.2616 40.7996 76.9397C40.7996 77.7448 41.4563 78.4018 42.2614 78.4018C42.671 78.4018 43.054 78.2338 43.3363 77.9299C43.4862 77.7674 43.6979 77.6757 43.9212 77.6757C44.1443 77.6757 44.3563 77.7688 44.5088 77.9328C44.7884 78.2351 45.1697 78.4018 45.5793 78.4018C46.3841 78.4018 47.0396 77.7448 47.0396 76.9397ZM54.879 76.9397C54.879 76.2616 54.3985 75.6629 53.7404 75.5159C53.52 75.4664 53.3308 75.3282 53.2177 75.1317C53.1078 74.9367 53.0824 74.7035 53.15 74.489C53.198 74.3479 53.2206 74.1968 53.2206 74.0412C53.2206 73.236 52.5654 72.5794 51.7601 72.5794C50.955 72.5794 50.2996 73.236 50.2996 74.0412C50.2996 74.1968 50.3225 74.3477 50.3705 74.489C50.4382 74.7037 50.4128 74.9368 50.3025 75.1317C50.1897 75.3282 50.0003 75.4664 49.7801 75.5159C49.1188 75.6627 48.6387 76.2616 48.6387 76.9397C48.6387 77.7448 49.2942 78.4018 50.1022 78.4018C50.5118 78.4018 50.8931 78.2352 51.1728 77.9328C51.3252 77.7688 51.5372 77.6757 51.7603 77.6757C51.9836 77.6757 52.1953 77.7688 52.3481 77.9328C52.6275 78.2351 53.0091 78.4018 53.4187 78.4018C54.2235 78.4018 54.879 77.7448 54.879 76.9397ZM62.7209 76.9397C62.7209 76.2616 62.2408 75.6629 61.5798 75.5159C61.3593 75.4664 61.1702 75.3282 61.0571 75.1317C60.9468 74.9367 60.9214 74.7035 60.9894 74.489C61.0374 74.3479 61.06 74.1968 61.06 74.0412C61.06 73.236 60.4044 72.5794 59.5995 72.5794C58.7945 72.5794 58.139 73.236 58.139 74.0412C58.139 74.1968 58.1616 74.3477 58.2096 74.489C58.2776 74.7037 58.2521 74.9368 58.1419 75.1317C58.0288 75.3282 57.8396 75.4664 57.6192 75.5159C56.9582 75.6627 56.478 76.2616 56.478 76.9397C56.478 77.7448 57.1336 78.4018 57.9412 78.4018C58.3512 78.4018 58.7324 78.2352 59.0121 77.9328C59.1646 77.7688 59.3763 77.6757 59.5996 77.6757C59.8227 77.6757 60.0347 77.7688 60.1872 77.9328C60.4668 78.2351 60.8481 78.4018 61.2577 78.4018C62.0654 78.4018 62.7209 77.7448 62.7209 76.9397ZM70.5603 76.9397C70.5603 76.2616 70.0798 75.6629 69.4188 75.5159C69.1987 75.4664 69.0092 75.3282 68.8964 75.1317C68.7862 74.9367 68.7608 74.7035 68.8284 74.489C68.8764 74.3421 68.9019 74.1911 68.9019 74.0412C68.9019 73.236 68.2464 72.5794 67.4387 72.5794C66.6334 72.5794 65.9782 73.236 65.9782 74.0412C65.9782 74.1911 66.0036 74.3419 66.0516 74.489C66.1193 74.7037 66.0939 74.9368 65.9836 75.1317C65.8708 75.3282 65.6814 75.4664 65.4612 75.5159C64.8 75.6627 64.3198 76.2616 64.3198 76.9397C64.3198 77.7448 64.9753 78.4018 65.7803 78.4018C66.1899 78.4018 66.5712 78.2352 66.8508 77.9328C67.0036 77.7688 67.2153 77.6757 67.4387 77.6757C67.6617 77.6757 67.8734 77.7674 68.0233 77.9299C68.3059 78.2336 68.69 78.4018 69.0996 78.4018C69.9049 78.4018 70.5603 77.7448 70.5603 76.9397ZM78.3995 76.9397C78.3995 76.2616 77.9193 75.6629 77.2584 75.5159C77.0379 75.4664 76.8488 75.3282 76.7356 75.1317C76.6254 74.9367 76.6 74.7035 76.668 74.489C76.716 74.3421 76.7414 74.1911 76.7414 74.0412C76.7414 73.236 76.0859 72.5794 75.2809 72.5794C74.4729 72.5794 73.8174 73.236 73.8174 74.0412C73.8174 74.1911 73.8428 74.3419 73.8908 74.489C73.9588 74.7037 73.9334 74.9368 73.8232 75.1317C73.71 75.3282 73.5209 75.4664 73.3004 75.5159C72.6395 75.6627 72.1593 76.2616 72.1593 76.9397C72.1593 77.7448 72.8148 78.4018 73.6198 78.4018C74.0294 78.4018 74.4136 78.2338 74.696 77.9299C74.8459 77.7674 75.0576 77.6757 75.2809 77.6757C75.504 77.6757 75.716 77.7688 75.8684 77.9328C76.1481 78.2351 76.5294 78.4018 76.939 78.4018C77.7443 78.4018 78.3995 77.7448 78.3995 76.9397ZM0.00125122 14.5232C0.00125122 13.365 0.667811 12.3184 1.66365 11.8029C1.66077 11.7435 1.65933 11.6829 1.65933 11.6235C1.65933 9.93552 3.03229 8.56416 4.72013 8.56416C6.40797 8.56416 7.78093 9.93568 7.78093 11.6235C7.78093 11.6829 7.77949 11.7435 7.77661 11.8029C8.11245 11.9768 8.39165 12.2272 8.63981 12.5061C8.88797 12.2272 9.16781 11.9766 9.50413 11.8029C9.50125 11.7435 9.49981 11.6829 9.49981 11.6235C9.49981 9.93552 10.8715 8.56416 12.5595 8.56416C14.2475 8.56416 15.6203 9.93568 15.6203 11.6235C15.6203 11.6829 15.6188 11.7435 15.616 11.8029C15.9524 11.9768 16.2321 12.2272 16.4803 12.5058C16.7281 12.2272 17.0073 11.9766 17.3435 11.8029C17.3406 11.7435 17.3392 11.6829 17.3392 11.6235C17.3392 9.93552 18.7121 8.56416 20.4 8.56416C22.0878 8.56416 23.4593 9.93568 23.4593 11.6235C23.4593 11.6829 23.4579 11.7435 23.4553 11.8029C23.792 11.9768 24.0715 12.2272 24.32 12.5061C24.5681 12.2272 24.8476 11.9766 25.184 11.8029C25.1811 11.7435 25.18 11.6829 25.18 11.6235C25.18 9.93552 26.5515 8.56416 28.2393 8.56416C29.9272 8.56416 31.3001 9.93568 31.3001 11.6235C31.3001 11.6829 31.2987 11.7435 31.2958 11.8029C31.6323 11.9768 31.912 12.2272 32.1601 12.5058C32.408 12.2272 32.6872 11.9766 33.0233 11.8029C33.0204 11.7435 33.019 11.6829 33.019 11.6235C33.019 9.93552 34.392 8.56416 36.0798 8.56416C37.7676 8.56416 39.1392 9.93568 39.1392 11.6235C39.1392 11.6829 39.1377 11.7435 39.1352 11.8029C39.4716 11.9768 39.7513 12.2272 39.9995 12.5061C40.2476 12.2272 40.5272 11.9766 40.8638 11.8029C40.8612 11.7435 40.8598 11.6829 40.8598 11.6235C40.8598 9.93552 42.2328 8.56416 43.9206 8.56416C45.607 8.56416 46.98 9.93568 46.98 11.6235C46.98 11.6829 46.98 11.7435 46.9742 11.8029C47.9716 12.3184 48.638 13.3664 48.638 14.5232C48.638 16.2112 47.2651 17.5829 45.5787 17.5829C44.9854 17.5829 44.4091 17.4104 43.9206 17.0941C43.4288 17.4106 42.8512 17.5829 42.2608 17.5829C41.3539 17.5829 40.5604 17.1693 39.9995 16.541C39.4385 17.1693 38.6451 17.5829 37.7382 17.5829C37.1464 17.5829 36.57 17.4104 36.0798 17.0941C35.5883 17.4106 35.0121 17.5829 34.4203 17.5829C33.5134 17.5829 32.7204 17.1694 32.1598 16.5414C31.5988 17.1694 30.8057 17.5829 29.8988 17.5829C29.307 17.5829 28.7307 17.4104 28.2393 17.0941C27.7489 17.4106 27.1728 17.5829 26.5809 17.5829C25.6737 17.5829 24.8806 17.1693 24.3196 16.541C23.7585 17.1693 22.9652 17.5829 22.0584 17.5829C21.4665 17.5829 20.89 17.4104 20.4 17.0941C19.9084 17.4106 19.3323 17.5829 18.7404 17.5829C17.8336 17.5829 17.0406 17.1694 16.4803 16.5411C15.9193 17.1694 15.1259 17.5829 14.219 17.5829C13.6272 17.5829 13.0508 17.4104 12.5595 17.0941C12.0691 17.4106 11.4929 17.5829 10.9011 17.5829C9.99421 17.5829 9.20077 17.169 8.63981 16.5406C8.07885 17.169 7.28509 17.5829 6.37821 17.5829C5.78669 17.5829 5.21005 17.4104 4.72013 17.0941C4.23005 17.4106 3.65245 17.5829 3.06061 17.5829C1.37277 17.5829 0.00125122 16.2112 0.00125122 14.5232ZM40.7993 14.5232C40.7993 15.3285 41.456 15.9838 42.2611 15.9838C42.6721 15.9838 43.0537 15.8173 43.336 15.5134C43.4859 15.3512 43.6976 15.2592 43.9209 15.2592C44.144 15.2592 44.356 15.3526 44.5084 15.5163C44.7881 15.8171 45.1665 15.9838 45.579 15.9838C46.3841 15.9838 47.0395 15.3286 47.0395 14.5232C47.0395 13.8454 46.5593 13.2464 45.8984 13.0994C45.6779 13.0502 45.4888 12.9117 45.3756 12.7152C45.2654 12.5205 45.24 12.2874 45.308 12.0726C45.356 11.9258 45.3814 11.7744 45.3814 11.6234C45.3814 10.8182 44.7259 10.1627 43.9209 10.1627C43.1156 10.1627 42.459 10.8182 42.459 11.6234C42.459 11.7773 42.483 11.9285 42.5296 12.0726C42.5987 12.2874 42.5747 12.5205 42.4619 12.7152C42.3502 12.9117 42.1611 13.0502 41.942 13.0994C41.2795 13.2464 40.7993 13.8454 40.7993 14.5232ZM32.96 14.5232C32.96 15.3285 33.6155 15.9838 34.4204 15.9838C34.8329 15.9838 35.2128 15.8173 35.4939 15.5149C35.6449 15.3512 35.8569 15.2592 36.08 15.2592C36.3033 15.2592 36.5164 15.3526 36.6675 15.5163C36.9457 15.8171 37.3259 15.9838 37.7384 15.9838C38.5435 15.9838 39.2001 15.3286 39.2001 14.5232C39.2001 13.8454 38.72 13.2464 38.0574 13.0994C37.8384 13.0502 37.6492 12.9117 37.5376 12.7152C37.4248 12.5205 37.4008 12.2874 37.4699 12.0726C37.5164 11.9286 37.5404 11.7773 37.5404 11.6234C37.5404 10.8182 36.8849 10.1627 36.08 10.1627C35.2748 10.1627 34.6179 10.8182 34.6179 11.6234C34.6179 11.7773 34.6419 11.9285 34.6888 12.0726C34.7579 12.2874 34.7339 12.5205 34.6208 12.7152C34.5094 12.9117 34.32 13.0502 34.1009 13.0994C33.4401 13.2464 32.96 13.8454 32.96 14.5232ZM25.1195 14.5232C25.1195 15.3285 25.7761 15.9838 26.5812 15.9838C26.9937 15.9838 27.3739 15.8173 27.6518 15.5163C27.8032 15.3526 28.0163 15.2592 28.2396 15.2592C28.4627 15.2592 28.6747 15.3512 28.8257 15.5149C29.1068 15.8171 29.4867 15.9838 29.8992 15.9838C30.7043 15.9838 31.3611 15.3286 31.3611 14.5232C31.3611 13.8454 30.8809 13.2464 30.2185 13.0994C29.9995 13.0502 29.81 12.9117 29.6987 12.7152C29.5856 12.5205 29.5616 12.2874 29.6307 12.0726C29.6772 11.9286 29.7012 11.7773 29.7012 11.6234C29.7012 10.8182 29.0446 10.1627 28.2395 10.1627C27.4344 10.1627 26.779 10.8182 26.779 11.6234C26.779 11.7773 26.803 11.9285 26.8496 12.0726C26.9187 12.2874 26.8947 12.5205 26.7819 12.7152C26.6702 12.9117 26.4811 13.0502 26.262 13.0994C25.5996 13.2464 25.1195 13.8454 25.1195 14.5232ZM17.2801 14.5232C17.2801 15.3285 17.9356 15.9838 18.7406 15.9838C19.1531 15.9838 19.5329 15.8173 19.814 15.5149C19.9651 15.3512 20.1771 15.2592 20.4001 15.2592C20.6235 15.2592 20.8366 15.3526 20.9876 15.5163C21.2659 15.8171 21.646 15.9838 22.0585 15.9838C22.8636 15.9838 23.5203 15.3286 23.5203 14.5232C23.5203 13.8454 23.0401 13.2464 22.3777 13.0994C22.1587 13.0502 21.9696 12.9117 21.8579 12.7152C21.7451 12.5205 21.7211 12.2874 21.7902 12.0726C21.8368 11.9286 21.8608 11.7773 21.8608 11.6234C21.8608 10.8182 21.2052 10.1627 20.4003 10.1627C19.5952 10.1627 18.9382 10.8182 18.9382 11.6234C18.9382 11.7773 18.9622 11.9285 19.0091 12.0726C19.0782 12.2874 19.0542 12.5205 18.9411 12.7152C18.8294 12.9117 18.6403 13.0502 18.4212 13.0994C17.7603 13.2464 17.2801 13.8454 17.2801 14.5232ZM9.43917 14.5232C9.43917 15.3285 10.0961 15.9838 10.9012 15.9838C11.3137 15.9838 11.6936 15.8173 11.9718 15.5163C12.1232 15.3526 12.3363 15.2592 12.5596 15.2592C12.7827 15.2592 12.9947 15.3512 13.1457 15.5149C13.4268 15.8171 13.8067 15.9838 14.2192 15.9838C15.0243 15.9838 15.6811 15.3286 15.6811 14.5232C15.6811 13.8454 15.2006 13.2464 14.5382 13.0994C14.3195 13.0502 14.13 12.9117 14.0187 12.7152C13.9056 12.5205 13.8816 12.2874 13.9507 12.0726C13.9972 11.9286 14.0212 11.7773 14.0212 11.6234C14.0212 10.8182 13.3646 10.1627 12.5595 10.1627C11.7542 10.1627 11.099 10.8182 11.099 11.6234C11.099 11.7773 11.123 11.9285 11.1696 12.0726C11.2387 12.2874 11.2147 12.5205 11.1019 12.7152C10.9902 12.9117 10.8011 13.0502 10.582 13.0994C9.91981 13.2464 9.43917 13.8454 9.43917 14.5232ZM1.60013 14.5232C1.60013 15.3285 2.25533 15.9838 3.06061 15.9838C3.47277 15.9838 3.85437 15.8173 4.13261 15.5163C4.28365 15.3526 4.49709 15.2592 4.72013 15.2592C4.94317 15.2592 5.15661 15.3526 5.30765 15.5163C5.58589 15.8171 5.96605 15.9838 6.37821 15.9838C7.18349 15.9838 7.84029 15.3286 7.84029 14.5232C7.84029 13.8454 7.36013 13.2464 6.69757 13.0994C6.47853 13.0502 6.28941 12.9117 6.17773 12.7152C6.06461 12.5205 6.04061 12.2874 6.11005 12.0726C6.15805 11.9258 6.18205 11.7744 6.18205 11.6234C6.18205 10.8182 5.52509 10.1627 4.71997 10.1627C3.91485 10.1627 3.25789 10.8182 3.25789 11.6234C3.25789 11.7773 3.28189 11.9285 3.32845 12.0726C3.39789 12.2874 3.37389 12.5205 3.26077 12.7152C3.14909 12.9117 2.95997 13.0502 2.74093 13.0994C2.08029 13.2464 1.60013 13.8454 1.60013 14.5232ZM70.3755 40.4283L69.7972 39.9747H68.871V44.1863H69.7972L70.3755 43.7327V40.4283ZM61.963 39.9747L61.5953 40.3155V43.8456L61.963 44.1864H62.7324L63.0998 43.8456V40.3155L62.7324 39.9747H61.963ZM54.6849 39.9747L54.3172 40.3155V43.8456L54.6849 44.1864H55.4544L55.822 43.8456V40.3155L55.4544 39.9747H54.6849ZM17.2456 39.9747L16.8779 40.3155V43.8456L17.2456 44.1864H18.015L18.3827 43.8456V40.3155L18.015 39.9747H17.2456ZM79.199 50.6407H76.8542C76.4136 50.6407 76.055 50.9979 76.055 51.4402C76.055 51.8823 76.4137 52.2394 76.8542 52.2394H79.199C79.6396 52.2394 79.9982 51.8821 79.9982 51.4402C79.9982 50.9979 79.6395 50.6407 79.199 50.6407ZM66.1278 52.2395C65.6872 52.2395 65.3286 51.8823 65.3286 51.4403C65.3286 50.9981 65.6873 50.6408 66.1278 50.6408H68.823V47.9063C68.823 47.8906 68.8387 47.8816 68.8395 47.8663H67.831C66.8672 47.8663 66.0588 47.3213 65.598 46.548L64.9336 47.1635C64.4438 47.6165 63.8068 47.8663 63.1401 47.8663H63.1312C63.132 47.8816 63.1476 47.8906 63.1476 47.9063V51.4402C63.1476 51.8823 62.7886 52.2394 62.3481 52.2394C61.9073 52.2394 61.5486 51.8821 61.5486 51.4402V47.9061C61.5486 47.8904 61.5644 47.8815 61.5654 47.8661H61.5553C60.8876 47.8661 60.2504 47.6162 59.7604 47.1619L58.7609 46.2357C58.7384 46.2149 58.7305 46.1839 58.7089 46.1626C58.6875 46.184 58.6795 46.2149 58.6569 46.2357L57.656 47.1634C57.1662 47.6163 56.5292 47.8661 55.8625 47.8661H55.8539C55.8547 47.8815 55.8707 47.8904 55.8707 47.9061V50.6407H58.9329C59.3737 50.6407 59.7324 50.9979 59.7324 51.4402C59.7324 51.8823 59.3737 52.2394 58.9329 52.2394H53.3875C52.9468 52.2394 52.5883 51.8821 52.5883 51.4402C52.5883 50.9979 52.947 50.6407 53.3875 50.6407H54.2718V47.9061C54.2718 47.8904 54.2875 47.8815 54.2883 47.8661H54.2772C53.6105 47.8661 52.9734 47.6165 52.4825 47.1623L51.4828 46.2357C51.3281 46.0922 51.2379 45.9021 51.1233 45.7283C50.9027 46.8629 49.9654 47.677 48.8398 47.812C48.8444 47.8475 48.8788 47.8693 48.8788 47.9061V50.6407H50.2659C50.7067 50.6407 51.0654 50.9979 51.0654 51.4402C51.0654 51.8823 50.7067 52.2394 50.2659 52.2394H41.935C41.4929 52.2394 41.1358 51.8821 41.1358 51.4402C41.1358 50.9979 41.4931 50.6407 41.935 50.6407H43.7996V47.9061C43.7996 47.8691 43.8337 47.8474 43.8387 47.8119C42.7065 47.6755 41.7628 46.8535 41.5496 45.7091L40.8532 41.9656L40.268 43.3211V45.2263C40.268 46.4256 39.4481 47.3999 38.3507 47.7199C38.3689 47.7869 38.4276 47.8333 38.4276 47.9061V51.4402C38.4276 51.8823 38.0704 52.2394 37.6284 52.2394C37.1862 52.2394 36.8289 51.8821 36.8289 51.4402V47.9061C36.8289 47.8331 36.8876 47.7869 36.9059 47.7199C36.4848 47.5971 36.0947 47.4087 35.7889 47.1101C35.3124 47.5749 34.6657 47.8663 33.9494 47.8663H32.9393C32.9401 47.8816 32.9558 47.8906 32.9558 47.9063V50.6408H33.7596C34.2017 50.6408 34.5588 50.9981 34.5588 51.4403C34.5588 51.8824 34.2016 52.2395 33.7596 52.2395H30.3201C29.878 52.2395 29.5206 51.8823 29.5206 51.4403C29.5206 50.9981 29.8782 50.6408 30.3201 50.6408H31.3569V47.9063C31.3569 47.8906 31.3726 47.8816 31.3734 47.8663H30.3648C29.6476 47.8663 29 47.5744 28.5238 47.1087C28.0476 47.5744 27.4 47.8663 26.6828 47.8663H25.6736C25.6747 47.8816 25.69 47.8906 25.69 47.9063V50.6408H27.4176C27.8596 50.6408 28.2171 50.9981 28.2171 51.4403C28.2171 51.8824 27.8595 52.2395 27.4176 52.2395H20.4001C19.958 52.2395 19.6006 51.8823 19.6006 51.4403C19.6006 50.9981 19.9582 50.6408 20.4001 50.6408H24.091V47.9063C24.091 47.8906 24.1067 47.8816 24.1075 47.8663H23.0979C22.138 47.8663 21.3331 47.325 20.8707 46.5567L20.2169 47.1627C19.7272 47.6163 19.0902 47.8663 18.4225 47.8663H18.4132C18.414 47.8816 18.4297 47.8906 18.4297 47.9063V51.4402C18.4297 51.8823 18.0721 52.2394 17.6302 52.2394C17.1881 52.2394 16.8307 51.8821 16.8307 51.4402V47.9061C16.8307 47.8904 16.8464 47.8815 16.8472 47.8661H16.8376C16.1702 47.8661 15.5329 47.6162 15.0428 47.1623L14.3931 46.5603C14.054 47.1218 13.5337 47.5327 12.8905 47.7197C12.9084 47.7867 12.9675 47.8331 12.9675 47.9059V50.6405H14.507C14.9491 50.6405 15.3065 50.9978 15.3065 51.44C15.3065 51.8821 14.9489 52.2392 14.507 52.2392H1.44045C0.998371 52.2392 0.640931 51.8819 0.640931 51.44C0.640931 50.9978 0.998531 50.6405 1.44045 50.6405H7.78541V47.9059C7.78541 47.833 7.84413 47.7867 7.86237 47.7197C6.76461 47.3997 5.94413 46.4258 5.94413 45.2261V38.9346C5.94413 37.4786 7.12845 36.2944 8.58413 36.2944C9.27517 36.2944 9.90525 36.5614 10.3764 36.9976C10.8473 36.5614 11.4777 36.2944 12.1688 36.2944C13.1272 36.2944 13.931 36.8339 14.3936 37.6005L15.0436 36.9976C15.5337 36.544 16.1707 36.2944 16.8377 36.2944H18.4227C19.0907 36.2944 19.728 36.5447 20.2171 36.9983L20.8708 37.604C21.3328 36.8357 22.1382 36.2944 23.098 36.2944C24.5537 36.2944 25.738 37.4787 25.738 38.9346V42.5861H26.6828C27.0534 42.5861 27.4046 42.6659 27.7248 42.8042V38.9346C27.7248 37.4786 28.9091 36.2944 30.3648 36.2944C31.8204 36.2944 33.0048 37.4787 33.0048 38.9346V42.5861H33.9496C34.2296 42.5861 34.4862 42.6648 34.7398 42.7461L33.5459 39.9807C32.9691 38.6442 33.587 37.0879 34.9235 36.5107C35.2561 36.3669 35.6081 36.2944 35.9696 36.2944C36.5865 36.2944 37.168 36.5085 37.6283 36.8797C38.0884 36.5085 38.67 36.2944 39.287 36.2944C39.6483 36.2944 40.0001 36.3671 40.3328 36.5107C40.6544 36.6493 40.9289 36.8504 41.1606 37.0858C41.5318 36.7213 41.97 36.4357 42.4953 36.3383C42.6561 36.3088 42.8164 36.2946 42.9744 36.2946C43.6088 36.2946 44.198 36.5202 44.6585 36.9015C45.1193 36.5202 45.7086 36.2943 46.3401 36.2943C46.9716 36.2943 47.5606 36.5202 48.0217 36.9015C48.4819 36.5202 49.0712 36.2943 49.7056 36.2943C49.8646 36.2943 50.0257 36.3086 50.1881 36.3387C50.8816 36.4677 51.4828 36.8589 51.882 37.4403C51.8993 37.4651 51.9009 37.4965 51.9171 37.5219L52.4832 36.9978C52.9729 36.5442 53.6102 36.2943 54.2772 36.2943H55.8625C56.5296 36.2943 57.1668 36.5442 57.6572 36.9981L58.6579 37.9255C58.6798 37.9459 58.6876 37.977 58.7091 37.9981C58.7305 37.9767 58.7385 37.9458 58.7609 37.9251L59.7612 36.9978C60.251 36.5442 60.8883 36.2943 61.5556 36.2943H63.1406C63.8076 36.2943 64.4449 36.5442 64.935 36.9981L65.5985 37.6125C66.0593 36.8392 66.8676 36.2943 67.8315 36.2943H70.1569C70.7452 36.2943 71.3238 36.4944 71.7862 36.8571L73.046 37.845C73.688 38.349 74.0561 39.1059 74.0561 39.9219V44.2383C74.0561 45.0552 73.6876 45.8122 73.0454 46.3152L71.787 47.3023C71.3867 47.6167 70.8945 47.7805 70.3892 47.8264C70.3928 47.8565 70.4222 47.8747 70.4222 47.9056V50.6402H73.7612C74.2019 50.6402 74.5608 50.9975 74.5608 51.4397C74.5608 51.8818 74.2017 52.2389 73.7612 52.2389L66.1278 52.2395ZM11.3688 50.6407V47.9061C11.3688 47.8359 11.426 47.7915 11.4432 47.7267C11.0451 47.6107 10.6728 47.4375 10.3766 47.1629C10.0801 47.4375 9.70813 47.6107 9.31037 47.7267C9.32717 47.7915 9.38445 47.8359 9.38445 47.9061V50.6407H11.3688ZM13.2088 45.2263V44.3501C13.2084 44.3328 13.198 44.3171 13.198 44.2995V39.8615C13.198 39.8439 13.2084 39.8282 13.2088 39.8109V38.9349C13.2088 38.3603 12.743 37.8946 12.1688 37.8946C11.5942 37.8946 11.1286 38.3603 11.1286 38.9349V41.0405H9.62413V38.9349C9.62413 38.3603 9.15837 37.8946 8.58413 37.8946C8.00957 37.8946 7.54413 38.3603 7.54413 38.9349V45.2264C7.54413 45.8007 8.00957 46.2664 8.58413 46.2664C9.15837 46.2664 9.62413 45.8007 9.62413 45.2264V43.1205H11.1286V45.2264C11.1286 45.8007 11.5944 46.2664 12.1688 46.2664C12.743 46.2663 13.2088 45.8005 13.2088 45.2263ZM20.458 44.3223V39.8384C20.4516 39.5575 20.3363 39.2899 20.1297 39.0984L19.1297 38.1719C18.9377 37.9936 18.6851 37.8944 18.4227 37.8944H16.8377C16.5756 37.8944 16.3232 37.9936 16.1307 38.1719L15.131 39.0987C14.9316 39.2835 14.8224 39.5405 14.8088 39.8106V44.3499C14.8224 44.6202 14.9316 44.8773 15.131 45.0621L16.1307 45.9887C16.323 46.1669 16.5756 46.2661 16.8377 46.2661H18.4227C18.6851 46.2661 18.9376 46.1669 19.1297 45.989L20.1297 45.0621C20.3363 44.8711 20.4516 44.6032 20.458 44.3223ZM27.7227 45.2263C27.7227 44.6517 27.2569 44.1863 26.6827 44.1863H24.1379V38.9347C24.1379 38.3602 23.6721 37.8944 23.0979 37.8944C22.5233 37.8944 22.0579 38.3602 22.0579 38.9347V39.8384C22.0579 39.8463 22.0625 39.8531 22.0625 39.8613V44.2994C22.0625 44.3075 22.0579 44.3141 22.0579 44.3223V45.2263C22.0579 45.8005 22.5233 46.2663 23.0979 46.2663H26.6825C27.2569 46.2663 27.7227 45.8005 27.7227 45.2263ZM34.9884 45.2298L34.9878 45.2263V45.2191C34.9841 44.6483 34.5209 44.1864 33.9492 44.1864H31.4044V38.9349C31.4044 38.3603 30.9387 37.8946 30.3644 37.8946C29.7899 37.8946 29.3244 38.3603 29.3244 38.9349V45.2264C29.3244 45.8007 29.7899 46.2664 30.3644 46.2664H33.9491C34.522 46.2663 34.9864 45.8023 34.9884 45.2298ZM39.6984 37.9799C39.5641 37.9219 39.4241 37.8946 39.2867 37.8946C38.884 37.8946 38.5008 38.1295 38.3312 38.5226L37.628 40.1519L36.9244 38.5226C36.755 38.1295 36.3716 37.8946 35.9692 37.8946C35.8315 37.8942 35.6918 37.9221 35.5572 37.9799C35.0299 38.2075 34.7868 38.8194 35.0145 39.3467L36.5876 42.9904V45.2191C36.5876 45.2216 36.5891 45.2237 36.5891 45.2263L36.5883 45.2298C36.5905 45.8023 37.0545 46.2663 37.628 46.2663C38.2022 46.2663 38.668 45.8005 38.668 45.2263V42.9904L40.2408 39.3467C40.4684 38.8194 40.2257 38.2075 39.6984 37.9799ZM47.2796 50.6407V47.9061C47.2796 47.8771 47.3075 47.8602 47.3104 47.832C46.9664 47.7955 46.6347 47.7117 46.3398 47.5535C46.0444 47.7117 45.7121 47.7959 45.3678 47.8323C45.3707 47.8603 45.3982 47.8771 45.3982 47.9061V50.6407H47.2796ZM50.7276 39.1248C50.8326 38.5602 50.4601 38.0171 49.8953 37.9122C49.8313 37.9003 49.768 37.8946 49.7052 37.8946C49.2147 37.8946 48.7758 38.244 48.6827 38.7445L48.0425 42.1851L47.3601 38.7328C47.2638 38.2456 46.8366 37.8944 46.3398 37.8944C45.8435 37.8944 45.4158 38.2456 45.3195 38.7328L44.6371 42.1853L43.9969 38.7443C43.9038 38.2435 43.4656 37.8947 42.974 37.8947C42.9115 37.8947 42.848 37.9002 42.7843 37.912C42.2196 38.017 41.847 38.56 41.952 39.1247L43.1224 45.4162C43.214 45.9088 43.644 46.2661 44.1449 46.2661H45.0961C45.5925 46.2661 46.0201 45.9149 46.1164 45.4277L46.3398 44.2975L46.5632 45.4277C46.6595 45.9149 47.087 46.2661 47.5835 46.2661H48.5347C49.0356 46.2661 49.4656 45.9088 49.5572 45.4162L50.7276 39.1248ZM57.9019 39.8613C57.9019 39.5717 57.7812 39.2955 57.5689 39.0984L56.5692 38.1719C56.3769 37.9936 56.1243 37.8944 55.8622 37.8944H54.2769C54.0148 37.8944 53.7624 37.9936 53.5699 38.1719L52.5702 39.0984C52.3579 39.2954 52.2372 39.5717 52.2372 39.8613V44.2994C52.2372 44.589 52.3579 44.8655 52.5702 45.0623L53.5699 45.9891C53.7622 46.1671 54.0148 46.2663 54.2769 46.2663H55.8622C56.1243 46.2663 56.3768 46.1671 56.5692 45.9891L57.5689 45.0623C57.7812 44.8656 57.9019 44.589 57.9019 44.2994V39.8613ZM65.1801 39.8613C65.1801 39.5717 65.0595 39.2955 64.8472 39.0984L63.8472 38.1719C63.6548 37.9936 63.4025 37.8944 63.1401 37.8944H61.5552C61.2928 37.8944 61.0403 37.9936 60.848 38.1719L59.8484 39.0987C59.6361 39.2954 59.5155 39.5717 59.5155 39.8613V44.2994C59.5155 44.589 59.6361 44.8655 59.8484 45.0623L60.848 45.9888C61.0403 46.1671 61.2929 46.2663 61.5552 46.2663H63.1401C63.4025 46.2663 63.6547 46.1671 63.8472 45.9891L64.8472 45.0623C65.0595 44.8656 65.1801 44.589 65.1801 44.2994V39.8613ZM67.831 46.2663H70.1564C70.3892 46.2663 70.6152 46.1882 70.7984 46.0443L72.0576 45.0568C72.3089 44.8599 72.4556 44.5581 72.4556 44.2387V39.9224C72.4556 39.6031 72.3089 39.3013 72.0576 39.104L70.7984 38.1165C70.6153 37.9727 70.3894 37.8946 70.1564 37.8946H67.831C67.2564 37.8946 66.791 38.3603 66.791 38.9349V45.2264C66.791 45.8005 67.2566 46.2663 67.831 46.2663ZM56.639 62.9531H59.2232C58.9776 62.5128 58.8 62.032 58.8 61.4928C58.8 60.336 59.4667 59.2891 60.4638 58.7722C60.4584 58.7128 60.4584 58.6522 60.4584 58.5928C60.4584 56.9048 61.8313 55.5335 63.5206 55.5335C65.207 55.5335 66.58 56.905 66.58 58.5928C66.58 58.6507 66.58 58.7088 66.5742 58.7667C67.5829 59.2794 68.238 60.3131 68.238 61.4928C68.238 63.1805 66.8651 64.5522 65.1787 64.5522C64.5854 64.5522 64.0091 64.3797 63.5206 64.0632C63.0288 64.3797 62.4526 64.5522 61.8593 64.5522H56.639C56.1982 64.5522 55.8395 64.1946 55.8395 63.7527C55.8395 63.3107 56.198 62.9531 56.639 62.9531ZM61.8592 62.9531C62.2716 62.9531 62.6532 62.7866 62.9326 62.4856C63.0854 62.3219 63.2971 62.2285 63.5204 62.2285C63.7435 62.2285 63.9555 62.3219 64.108 62.4856C64.3877 62.7864 64.766 62.9531 65.1785 62.9531C65.9836 62.9531 66.6392 62.2979 66.6392 61.4928C66.6392 60.8035 66.1702 60.2171 65.495 60.0675C65.2774 60.0181 65.0883 59.8781 64.9752 59.6834C64.8649 59.4869 64.8395 59.2538 64.91 59.0392C64.9555 58.8938 64.9806 58.7442 64.9806 58.5928C64.9806 57.7877 64.3254 57.1322 63.5203 57.1322C62.7123 57.1322 62.0569 57.7877 62.0569 58.5928C62.0569 58.7442 62.0824 58.8936 62.1275 59.0392C62.198 59.2539 62.1726 59.4871 62.0627 59.6834C61.9496 59.8781 61.763 60.0181 61.5428 60.0675C60.879 60.2157 60.3987 60.8147 60.3987 61.4928C60.399 62.2979 61.0542 62.9531 61.8592 62.9531ZM52.7208 62.9531C52.28 62.9531 51.9212 63.3107 51.9212 63.7527C51.9212 64.1946 52.28 64.5522 52.7208 64.5522H53.9184C54.3592 64.5522 54.7179 64.1946 54.7179 63.7527C54.7179 63.3107 54.3592 62.9531 53.9184 62.9531H52.7208ZM31.7326 66.664C31.2905 66.664 30.9331 67.0213 30.9331 67.4632C30.9331 67.9055 31.2907 68.2627 31.7326 68.2627H32.6395C33.0816 68.2627 33.4387 67.9055 33.4387 67.4632C33.4387 67.0211 33.0814 66.664 32.6395 66.664H31.7326ZM42.3459 29.209H51.8643C51.6187 28.7686 51.4411 28.2878 51.4411 27.7483C51.4411 26.5915 52.1076 25.5435 53.1049 25.028C53.0992 24.9686 53.0992 24.908 53.0992 24.8486C53.0992 23.1606 54.4721 21.7893 56.1585 21.7893C57.848 21.7893 59.2208 23.1608 59.2208 24.8486C59.2208 24.908 59.2208 24.9686 59.2153 25.028C60.2124 25.5435 60.8792 26.5915 60.8792 27.7483C60.8792 29.4363 59.5062 30.8077 57.8198 30.8077C57.2294 30.8077 56.6502 30.6355 56.1585 30.319C55.6699 30.6355 55.0937 30.8077 54.5005 30.8077H42.3459C41.9038 30.8077 41.5467 30.4504 41.5467 30.0085C41.5465 29.5663 41.9038 29.209 42.3459 29.209ZM54.5003 29.209C54.9128 29.209 55.2912 29.0424 55.5708 28.7414C55.7233 28.5774 55.9353 28.4843 56.1584 28.4843C56.3817 28.4843 56.5934 28.576 56.7433 28.7386C57.0257 29.0423 57.4072 29.209 57.8196 29.209C58.6248 29.209 59.28 28.5534 59.28 27.7483C59.28 27.0702 58.7998 26.4715 58.1387 26.3245C57.9182 26.275 57.7291 26.1368 57.616 25.9403C57.506 25.7453 57.4806 25.5125 57.5483 25.2976C57.5963 25.1509 57.6217 24.9997 57.6217 24.8486C57.6217 24.0435 56.9662 23.388 56.1582 23.388C55.3531 23.388 54.6979 24.0435 54.6979 24.8486C54.6979 24.9997 54.723 25.1509 54.771 25.2976C54.839 25.5125 54.8136 25.7455 54.7033 25.9403C54.5902 26.1368 54.4011 26.275 54.1806 26.3245C53.5196 26.4714 53.0395 27.0702 53.0395 27.7483C53.0398 28.5534 53.6953 29.209 54.5003 29.209ZM38.1324 30.8078C38.5745 30.8078 38.932 30.4506 38.932 30.0086C38.932 29.5664 38.5744 29.2091 38.1324 29.2091H37.2793C36.8371 29.2091 36.4798 29.5664 36.4798 30.0086C36.4798 30.4507 36.8371 30.8078 37.2793 30.8078H38.1324ZM19.0371 24.9066C19.4793 24.9066 19.8366 24.5493 19.8366 24.107C19.8366 23.665 19.4793 23.3078 19.0371 23.3078H8.58477C8.14269 23.3078 7.78557 23.6651 7.78557 24.107C7.78557 24.5493 8.14285 24.9066 8.58477 24.9066H19.0371ZM24.3198 24.9066C24.7619 24.9066 25.1193 24.5493 25.1193 24.107C25.1193 23.665 24.7617 23.3078 24.3198 23.3078H22.0585C21.6163 23.3078 21.259 23.6651 21.259 24.107C21.259 24.5493 21.6163 24.9066 22.0585 24.9066H24.3198ZM41.7598 59.2003C41.7598 58.7581 41.4025 58.4008 40.9603 58.4008H29.3244C28.8822 58.4008 28.5249 58.7581 28.5249 59.2003C28.5249 59.6424 28.8822 59.9995 29.3244 59.9995H40.9601C41.4025 59.9997 41.7598 59.6424 41.7598 59.2003ZM43.9209 58.4008C43.4801 58.4008 43.1214 58.7581 43.1214 59.2003C43.1214 59.6424 43.4801 59.9995 43.9209 59.9995H44.5987C45.0395 59.9995 45.3982 59.6423 45.3982 59.2003C45.3982 58.7581 45.0395 58.4008 44.5987 58.4008H43.9209Z" fill="#231F20"/>
<path d="M20.7984 57.1322H13.8702C13.4281 57.1322 13.0707 56.7749 13.0707 56.333C13.0707 55.8907 13.4283 55.5334 13.8702 55.5334H20.7984C21.2405 55.5334 21.5979 55.8907 21.5979 56.333C21.5979 56.7749 21.2405 57.1322 20.7984 57.1322Z" fill="#FFEAC9"/>
<path d="M24.3197 57.1322H23.5882C23.1459 57.1322 22.7887 56.7749 22.7887 56.333C22.7887 55.8907 23.1459 55.5334 23.5882 55.5334H24.3197C24.7618 55.5334 25.1192 55.8907 25.1192 56.333C25.1194 56.7749 24.7618 57.1322 24.3197 57.1322Z" fill="#FFEAC9"/>
<path d="M22.0585 32.0536H6.98574C6.54366 32.0536 6.18622 31.6963 6.18622 31.2541C6.18622 30.812 6.54382 30.4549 6.98574 30.4549H22.0585C22.5006 30.4549 22.8577 30.8122 22.8577 31.2541C22.8577 31.6963 22.5005 32.0536 22.0585 32.0536Z" fill="#FFEAC9"/>
<path d="M3.35997 32.0536H0.800451C0.358371 32.0536 0.00125122 31.6963 0.00125122 31.2541C0.00125122 30.812 0.358531 30.4549 0.800451 30.4549H3.35997C3.80205 30.4549 4.15949 30.8122 4.15949 31.2541C4.15949 31.6963 3.80189 32.0536 3.35997 32.0536Z" fill="#FFEAC9"/>
<path d="M79.1989 68.2627H76.8541C76.4134 68.2627 76.0549 67.9054 76.0549 67.4632C76.0549 67.0211 76.4136 66.664 76.8541 66.664H79.1989C79.6395 66.664 79.9981 67.0213 79.9981 67.4632C79.9981 67.9054 79.6394 68.2627 79.1989 68.2627Z" fill="#FFEAC9"/>
<path d="M73.7608 68.2627H68.8709C68.4301 68.2627 68.0714 67.9054 68.0714 67.4632C68.0714 67.0211 68.4301 66.664 68.8709 66.664H73.7608C74.2014 66.664 74.5603 67.0213 74.5603 67.4632C74.5603 67.9054 74.2013 68.2627 73.7608 68.2627Z" fill="#FFEAC9"/>
<path d="M71.3144 32.0536H69.6221C69.1814 32.0536 68.8229 31.6963 68.8229 31.2541C68.8229 30.812 69.1816 30.4549 69.6221 30.4549H71.3144C71.755 30.4549 72.1139 30.8122 72.1139 31.2541C72.1139 31.6963 71.7549 32.0536 71.3144 32.0536Z" fill="#FFEAC9"/>
<path d="M79.1989 32.0536H75.2807C74.8399 32.0536 74.4811 31.6963 74.4811 31.2541C74.4811 30.812 74.8399 30.4549 75.2807 30.4549H79.1989C79.6395 30.4549 79.9981 30.8122 79.9981 31.2541C79.9981 31.6963 79.6394 32.0536 79.1989 32.0536Z" fill="#FFEAC9"/>
</g>
<defs>
<clipPath id="clip0">
<rect width="80" height="80" fill="white"/>
</clipPath>
</defs>
</svg>
