<svg width="80" height="80" viewBox="0 0 80 80" fill="none" xmlns="http://www.w3.org/2000/svg">
<path d="M40.2632 77.5597C58.0963 77.5597 72.5529 63.1075 72.5529 45.2798C72.5529 27.4522 58.0963 13 40.2632 13C22.4301 13 7.97345 27.4522 7.97345 45.2798C7.97345 63.1075 22.4301 77.5597 40.2632 77.5597Z" fill="#79E4FF"/>
<path d="M24.0347 56.1995C25.7634 56.1995 27.1646 57.6011 27.1646 59.3298C27.1646 61.0586 25.7634 62.4597 24.0347 62.4597H11.3784C9.64975 62.4597 8.24847 61.0584 8.24847 59.3298C8.24847 57.601 9.64975 56.1995 11.3784 56.1995H11.4472C11.4472 54.9461 12.4634 53.9299 13.7171 53.9299C14.9706 53.9299 15.9867 54.9461 15.9867 56.1995C15.9867 54.0174 17.756 52.2486 19.9379 52.2486C22.1202 52.2486 23.8891 54.0176 23.8891 56.1995H24.0347Z" fill="white"/>
<path d="M18.9655 45.3886V42.4571C18.9655 38.3974 20.1587 34.427 22.3965 31.0397V40.3437L18.9655 45.3886Z" fill="#C6C6C6"/>
<path d="M57.6434 33.551C56.0984 33.551 54.8458 34.8037 54.8458 36.3486C54.8458 37.8939 56.0984 39.1462 57.6434 39.1462H68.9555C70.5005 39.1462 71.7531 37.8939 71.7531 36.3486C71.7531 34.8037 70.5005 33.551 68.9555 33.551H68.8939C68.8939 32.4307 67.9856 31.5224 66.8653 31.5224C65.745 31.5224 64.8366 32.4307 64.8366 33.551C64.8366 31.6008 63.2555 30.0198 61.3051 30.0198C59.3547 30.0198 57.7736 31.6008 57.7736 33.551H57.6434V33.551Z" fill="white"/>
<path d="M33.9849 46.5322H35.1968H36.8309H44.5507H48.9162C46.9624 43.5277 45.9224 40.0208 45.9224 36.437V36.2328H35.4752V36.437C35.4752 39.8053 34.5561 43.1054 32.8237 45.9846L32.688 46.4192C33.1096 46.4918 33.5427 46.5322 33.9849 46.5322Z" fill="#C6C6C6"/>
<path d="M26.4224 34.4238V22.1602H22.3966V40.3435L26.4224 34.4238Z" fill="#C6C6C6"/>
<path d="M51.7514 79.1995V48.7091C51.7514 47.5066 50.7768 46.532 49.5742 46.532H44.5507V46.8869C44.5507 49.0347 42.8226 50.776 40.6909 50.776C38.5589 50.776 36.8307 49.0349 36.8307 46.8869V46.532H33.9848C29.8082 46.532 26.4223 43.1461 26.4223 38.9691V34.4237L18.6453 45.859C18.264 46.4197 18.1805 47.1314 18.4216 47.7651L24.5797 63.9395C26.3666 68.6328 27.2824 73.6126 27.2824 78.6346V79.1995H51.7514V79.1995Z" fill="#C6C6C6"/>
<path d="M21.8518 48.5819C21.5299 48.5819 21.2261 48.3855 21.1046 48.0664L20.8733 47.4589C20.715 47.0464 20.9227 46.5832 21.335 46.4264C21.7547 46.2667 22.2125 46.4758 22.3677 46.8882L22.599 47.4957C22.7573 47.9082 22.5499 48.3714 22.1373 48.5282C22.0427 48.5648 21.9467 48.5819 21.8518 48.5819Z" fill="#F6F6F6"/>
<path d="M30.1856 74.2891C29.7858 74.2891 29.4399 73.9898 29.3919 73.5816C28.9765 70.0038 28.1122 66.4726 26.824 63.0854L22.0498 50.5482C21.8915 50.1342 22.0992 49.6722 22.5117 49.5155C22.9298 49.3576 23.3874 49.565 23.5442 49.9774L28.3184 62.5162C29.6546 66.0262 30.5517 69.6874 30.9824 73.3979C31.0333 73.8358 30.7183 74.2342 30.2789 74.2848C30.2479 74.2877 30.2167 74.2891 30.1856 74.2891Z" fill="#F6F6F6"/>
<path d="M29.4849 8.59328H19.3342V13.273H29.4849V8.59328Z" fill="#C6C6C6"/>
<path d="M26.4225 13.273H22.3966V22.1602H26.4225V13.273Z" fill="#C6C6C6"/>
<path d="M24.4096 0.799683L22.4326 2.35824C21.3053 3.2472 20.7921 4.70656 21.115 6.1056L21.6889 8.59344H27.1299L27.7041 6.1056C28.0267 4.70672 27.5136 3.2472 26.3862 2.35824L24.4096 0.799683Z" fill="#F6B330"/>
<path d="M56.7561 60.0459V62.8299C56.7561 64.8209 55.1419 66.4352 53.1505 66.4352H51.7513V60.0459H56.7561Z" fill="#C6C6C6"/>
<path d="M35.4429 28.088V35.5993C35.4429 37.2603 36.103 38.8677 37.3057 40.1355L38.4758 41.3689C38.8123 41.7237 39.3067 41.9285 39.8274 41.9285H41.5541C42.075 41.9285 42.5694 41.7237 42.9059 41.3689L44.076 40.1355C45.2789 38.8677 45.9387 37.2603 45.9387 35.5993V28.088C42.6899 26.5294 38.692 26.5294 35.4429 28.088Z" fill="#C6C6C6"/>
<path d="M40.3808 39.5279C40.1691 39.5279 39.957 39.4445 39.8002 39.2794L39.0461 38.4842C38.2706 37.665 37.8442 36.641 37.8442 35.5998V33.9795C37.8442 33.5374 38.2015 33.1803 38.6434 33.1803C39.0856 33.1803 39.4429 33.5376 39.4429 33.9795V35.5998C39.4429 36.2299 39.7139 36.8626 40.2072 37.3824L40.9613 38.1776C41.265 38.4981 41.2523 39.0053 40.9315 39.309C40.7763 39.4559 40.5787 39.5279 40.3808 39.5279Z" fill="#F6F6F6"/>
<path d="M41.5542 41.9285H39.8275C39.3069 41.9285 38.8125 41.7237 38.476 41.369L37.9888 40.8555C37.803 42.5541 37.4606 45.7466 36.8309 46.532V46.8869C36.8309 49.0347 38.559 50.776 40.691 50.776C42.8227 50.776 44.5509 49.0349 44.5509 46.8869V46.532C43.9211 45.7466 43.5786 42.5541 43.3931 40.8555L42.9059 41.369C42.5696 41.7237 42.0752 41.9285 41.5542 41.9285Z" fill="#C6C6C6"/>
<path d="M46.9477 66.5104L45.525 65.0877C45.1717 64.7344 45.1717 64.1614 45.525 63.8081L58.8982 50.4349C59.2515 50.0816 59.8245 50.0816 60.1778 50.4349L61.6005 51.8576C61.9539 52.211 61.9539 52.7838 61.6005 53.1374L48.2275 66.5104C47.8739 66.864 47.3013 66.864 46.9477 66.5104Z" fill="#C6C6C6"/>
<path d="M57.7239 59.0784L56.0075 60.7947C55.4146 61.3877 54.4533 61.3877 53.8605 60.7947L51.585 58.5195C50.9922 57.9266 50.9922 56.9653 51.585 56.3722L53.3013 54.6562C53.8943 54.0632 54.8555 54.0632 55.4483 54.6562L57.7239 56.9314C58.3165 57.5243 58.3165 58.4856 57.7239 59.0784Z" fill="#C6C6C6"/>
<path d="M69.5966 32.8171C69.2718 31.6123 68.1702 30.7224 66.8649 30.7224C66.1756 30.7224 65.5441 30.9694 65.0526 31.3805C64.3014 30.0894 62.903 29.2208 61.3052 29.2208C59.1724 29.2208 57.3956 30.7704 57.0396 32.8014C55.3419 33.0896 54.0465 34.5712 54.0465 36.3483C54.0465 37.1045 54.3344 37.7672 54.7339 38.3469H52.9251C52.483 38.3469 52.1259 38.7042 52.1259 39.1464C52.1259 39.5885 52.4832 39.9456 52.9251 39.9456H57.6428H58.0216H68.9553C70.9401 39.9456 72.5531 38.3326 72.5531 36.3482C72.5529 34.5982 71.2972 33.1362 69.5966 32.8171ZM68.9552 38.347H58.0214H57.6427C56.5422 38.347 55.6456 37.4499 55.6456 36.3485C55.6456 35.248 56.5424 34.3514 57.6427 34.3514H57.774C58.2161 34.3514 58.5736 33.9938 58.5736 33.5518C58.5736 32.0461 59.7995 30.8202 61.3052 30.8202C62.8108 30.8202 64.0371 32.0461 64.0371 33.5518C64.0371 33.9939 64.3944 34.3514 64.8363 34.3514C65.2784 34.3514 65.6358 33.9938 65.6358 33.5518C65.6358 32.8738 66.1865 32.3216 66.8646 32.3216C67.5427 32.3216 68.0934 32.8738 68.0934 33.5518C68.0934 33.9939 68.5129 34.3514 68.9548 34.3514C70.0568 34.3514 70.9537 35.2482 70.9537 36.3485C70.954 37.4499 70.0571 38.347 68.9552 38.347ZM50.8926 39.1466C50.8926 39.5886 50.5353 39.9458 50.0931 39.9458H49.5267C49.0846 39.9458 48.7275 39.5885 48.7275 39.1466C48.7275 38.7043 49.0848 38.347 49.5267 38.347H50.0931C50.5353 38.347 50.8926 38.7042 50.8926 39.1466ZM52.5507 70.049V79.199C52.5507 79.6411 52.1934 79.9982 51.7515 79.9982C51.3092 79.9982 50.952 79.641 50.952 79.199V70.049C50.952 69.6069 51.3092 69.2494 51.7515 69.2494C52.1934 69.2493 52.5507 69.6069 52.5507 70.049ZM47.9673 52.0086C48.2892 52.3094 48.3064 52.8166 48.0041 53.1386C47.891 53.26 47.7753 53.3773 47.6579 53.4918C47.5025 53.6429 47.3006 53.7178 47.1001 53.7178C46.8924 53.7178 46.6833 53.6371 46.5265 53.4762C46.2187 53.1597 46.2257 52.6541 46.5422 52.3448L46.8372 52.0454C47.1395 51.7218 47.6465 51.705 47.9673 52.0086ZM44.8428 55.2955C45.2539 55.1344 45.4558 54.6712 45.2947 54.2587C45.1324 53.8477 44.6675 53.64 44.2579 53.8066C43.4572 54.1202 42.6081 54.2798 41.7368 54.2798C37.9192 54.2798 34.8168 51.1696 34.7702 47.332H36.0515C36.0605 47.428 36.0897 47.5171 36.1045 47.6115C36.1249 47.7418 36.1473 47.8696 36.1779 47.996C36.2187 48.1632 36.2705 48.3235 36.3283 48.4829C36.3723 48.6038 36.415 48.7232 36.4683 48.839C36.5385 48.9923 36.6211 49.137 36.707 49.2808C36.7715 49.3893 36.8331 49.4981 36.906 49.6008C37.0035 49.7379 37.1129 49.8629 37.224 49.9882C37.306 50.0813 37.384 50.1765 37.4732 50.263C37.5961 50.3819 37.7316 50.4853 37.867 50.5899C37.9619 50.6637 38.0515 50.7424 38.1523 50.8086C38.3012 50.9067 38.462 50.9851 38.6224 51.0654C38.7244 51.117 38.8204 51.1774 38.9267 51.2211C39.11 51.297 39.3041 51.3482 39.498 51.3998C39.5929 51.4253 39.682 51.4629 39.779 51.4826C40.0747 51.5419 40.379 51.5754 40.6916 51.5754C41.0038 51.5754 41.3084 51.5418 41.6035 51.4826C41.7036 51.4626 41.7961 51.4238 41.8936 51.3973C42.0841 51.3458 42.2748 51.296 42.4547 51.2214C42.5643 51.1763 42.6638 51.1144 42.7691 51.061C42.9256 50.9818 43.0827 50.9056 43.2281 50.8101C43.3328 50.7413 43.4254 50.6597 43.5241 50.583C43.6555 50.481 43.787 50.3805 43.9068 50.2651C43.9988 50.176 44.0795 50.0776 44.164 49.9816C44.2721 49.8589 44.3788 49.7374 44.4737 49.6038C44.5486 49.4986 44.612 49.3869 44.6782 49.2755C44.7624 49.1341 44.8432 48.9923 44.9123 48.8419C44.9664 48.7245 45.0104 48.603 45.0547 48.4803C45.112 48.3221 45.1635 48.1627 45.204 47.997C45.2348 47.8702 45.2569 47.7424 45.2771 47.612C45.2921 47.5178 45.3214 47.4286 45.3304 47.3325H48.9164H49.5745C50.3331 47.3325 50.9518 47.9509 50.9518 48.7094V51.8C50.9518 52.2421 51.3091 52.5995 51.7513 52.5995C52.1934 52.5995 52.5505 52.2419 52.5505 51.8V48.7094C52.5505 47.0683 51.2158 45.7333 49.5745 45.7333H49.3865C47.6572 42.9318 46.7214 39.735 46.7214 36.4376V36.2328C46.7214 36.1981 46.6891 36.1776 46.6846 36.144C46.6988 35.9621 46.7384 35.7835 46.7384 35.6002V33.0082H50.004C50.446 33.0082 50.8032 32.6509 50.8032 32.2086C50.8032 31.7666 50.4459 31.4094 50.004 31.4094H46.7384V28.499L49.3656 26.6141C49.7243 26.357 49.8076 25.8568 49.5489 25.4981C49.2936 25.1379 48.7904 25.056 48.4332 25.3144L45.8028 27.2019C44.8211 26.7816 43.7896 26.5088 42.7259 26.3456C42.6486 26.3208 42.5923 26.255 42.5067 26.255C42.4563 26.255 42.4257 26.2994 42.3779 26.308C42.0825 26.2707 41.7889 26.2302 41.491 26.2125V22.1603C41.491 21.7182 41.1337 21.3608 40.6915 21.3608C40.2494 21.3608 39.8923 21.7184 39.8923 22.1603V26.2122C39.594 26.2298 39.2998 26.2702 39.0036 26.3078C38.9561 26.2992 38.9252 26.2549 38.8752 26.2549C38.7896 26.2549 38.7331 26.3205 38.656 26.3454C37.5923 26.5086 36.5608 26.7814 35.579 27.2018L32.9486 25.3142C32.5899 25.0544 32.0883 25.1378 31.8326 25.4979C31.5742 25.8566 31.6576 26.3568 32.0163 26.6139L34.6435 28.4989V31.4093H31.3779C30.9358 31.4093 30.5784 31.7666 30.5784 32.2085C30.5784 32.6507 30.936 33.008 31.3779 33.008H34.6435V35.6C34.6435 35.7936 34.6846 35.9819 34.7001 36.1739C34.698 36.1962 34.6758 36.2094 34.6758 36.2326V36.4374C34.6758 39.5544 33.8352 42.6106 32.2036 45.4643C29.3422 44.6766 27.2224 42.0786 27.2224 38.9701V34.4235V22.1602V14.072H29.4851C29.9272 14.072 30.2846 13.7147 30.2846 13.2725V8.59312C30.2846 8.15088 29.927 7.7936 29.4851 7.7936H28.136L28.4837 6.2864C28.875 4.59408 28.2464 2.80608 26.8819 1.72976L24.9059 0.171676C24.6149 -0.0571237 24.2053 -0.0571237 23.9142 0.171676L21.9368 1.72976C20.5737 2.80464 19.9454 4.5928 20.335 6.2864L20.6837 7.7936H19.335C18.8929 7.7936 18.5358 8.15088 18.5358 8.59312V13.2725C18.5358 13.7147 18.8931 14.072 19.335 14.072H21.5981V22.1598V30.8362C19.3614 34.3125 18.1656 38.3195 18.1656 42.4573V45.1418L17.9848 45.4078C17.4566 46.1848 17.3408 47.1722 17.6755 48.0493L19.0281 51.6037C17.6315 51.8762 16.436 52.709 15.7715 53.9197C15.2262 53.4282 14.5073 53.1302 13.7176 53.1302C12.2825 53.1302 11.075 54.119 10.7401 55.4509C8.87582 55.7574 7.4491 57.3803 7.4491 59.3294C7.4491 61.4962 9.21198 63.259 11.3787 63.259H23.4649L23.8326 64.2253C25.5912 68.8456 26.4838 73.6933 26.4838 78.6342V79.1992C26.4838 79.6413 26.8414 79.9984 27.2833 79.9984C27.7253 79.9984 28.0828 79.6411 28.0828 79.1992V78.6342C28.0828 75.881 27.7953 73.1597 27.2665 70.4835L39.5587 55.5611C39.887 55.6488 40.2214 55.7115 40.5643 55.7592L30.4172 78.8768C30.2404 79.2824 30.4241 79.7542 30.8283 79.9322C30.9328 79.9773 31.043 79.9998 31.1502 79.9998C31.458 79.9998 31.7505 79.8205 31.8832 79.5211L42.2824 55.8282C43.1616 55.7725 44.0243 55.616 44.8428 55.2955ZM36.2425 32.7744C39.039 31.585 42.3451 31.5869 45.1395 32.7744V35.5998C45.1395 37.0531 44.5548 38.4686 43.4955 39.5843L42.8131 40.305L42.3273 40.8176C42.1422 41.0126 41.8526 41.1298 41.5547 41.1298H39.8272C39.5292 41.1298 39.2396 41.0126 39.056 40.819L37.8864 39.5845C36.827 38.4688 36.2424 37.0533 36.2424 35.6L36.2425 32.7744ZM41.7072 27.8202V30.3554C41.0256 30.3038 40.3563 30.3038 39.6747 30.3554V27.8202C40.3542 27.7614 41.0276 27.7611 41.7072 27.8202ZM37.6307 46.887V46.7696C38.0657 46.0027 38.3454 44.5662 38.6096 42.4446C38.6336 42.4568 38.6636 42.4518 38.688 42.4632C39.0409 42.6261 39.4238 42.7288 39.8272 42.7288H41.5547C41.9564 42.7288 42.3387 42.6272 42.691 42.465C42.7161 42.4536 42.7475 42.4582 42.7723 42.4461C43.0336 44.5549 43.3132 45.9998 43.7512 46.7696V46.887C43.7512 48.5902 42.378 49.976 40.6915 49.976C39.0037 49.976 37.6307 48.5902 37.6307 46.887ZM47.5054 45.7328H45.0249C44.6579 44.7994 44.3673 42.3824 44.2294 41.1368L44.6564 40.6861C44.9507 40.3763 45.2035 40.0406 45.438 39.6968C45.7905 41.8067 46.4697 43.847 47.5054 45.7328ZM45.1395 31.0946C44.5358 30.8762 43.9387 30.6538 43.306 30.5278V28.0464C43.9312 28.1902 44.5516 28.3568 45.1395 28.605V31.0946ZM38.0756 28.0461V30.5278C37.4433 30.6536 36.8459 30.8762 36.2425 31.0946V28.605C36.8302 28.3565 37.4507 28.1896 38.0756 28.0461ZM35.9561 39.7123C36.1881 40.0506 36.4358 40.3811 36.7253 40.6861L37.1524 41.1368C37.0203 42.3315 36.7281 44.789 36.3563 45.7328H33.9851C33.9544 45.7328 33.9264 45.7242 33.8957 45.7238C34.9248 43.8464 35.6025 41.8117 35.9561 39.7123ZM27.9721 44.755L21.4382 53.4394L19.1697 47.48C19.0214 47.0918 19.0737 46.6523 19.3069 46.309L21.5768 42.9718L23.0582 40.7947C23.0585 40.7941 23.0582 40.7936 23.0589 40.793L25.6235 37.0219V38.9696C25.6235 41.2174 26.5251 43.251 27.9721 44.755ZM23.1966 31.0402V22.9595H25.6233V34.1757L23.1966 37.7442V31.0402ZM21.8944 5.92624C21.643 4.83312 22.0483 3.68032 22.9283 2.98688L24.4099 1.81872L25.8901 2.98688C26.7715 3.68032 27.1771 4.83424 26.9243 5.92624L26.4932 7.7936H22.3251L21.8944 5.92624ZM20.1344 9.39232H21.6896H27.1302H28.6854V12.4731H26.4227H22.3971H20.1344V9.39232ZM25.6235 14.072V21.3603H23.1968V14.072H25.6235ZM19.7645 42.7906V42.4573C19.7645 39.5547 20.3928 36.7168 21.5979 34.1122V40.095L19.8648 42.6434L19.7645 42.7906ZM11.3784 61.6602C10.0931 61.6602 9.04798 60.615 9.04798 59.3294C9.04798 58.0442 10.0931 56.999 11.4478 56.999C11.8899 56.999 12.247 56.6414 12.247 56.1995C12.247 55.3886 12.9069 54.7291 13.7174 54.7291C14.5283 54.7291 15.1878 55.3886 15.1878 56.1995C15.1878 56.6416 15.5454 56.999 15.9873 56.999C16.4294 56.999 16.7869 56.6414 16.7869 56.1995C16.7869 54.5808 18.0304 53.2906 19.6035 53.1155L22.8558 61.6602H11.3784ZM26.8115 68.5195C26.4041 66.8782 25.9339 65.2501 25.3267 63.6558L22.1117 55.2086L29.1899 45.8002C30.1673 46.4886 31.2955 46.9654 32.5174 47.1832C32.5318 47.1867 32.5382 47.205 32.5529 47.2075C32.7513 47.2416 32.9611 47.2402 33.1644 47.2608C33.1697 50.6506 35.1417 53.5598 37.9763 54.9659L26.8115 68.5195ZM60.7433 49.8701C60.102 49.2246 58.9736 49.2246 58.3337 49.8701L54.7241 53.4794C54.018 53.3706 53.2769 53.5478 52.736 54.0906L51.0185 55.8066C50.4782 56.3483 50.3022 57.088 50.4102 57.7933L44.9603 63.2432C44.6384 63.564 44.4604 63.9933 44.4604 64.4483C44.4604 64.903 44.6384 65.3323 44.9603 65.6531L46.3827 67.0755C46.7035 67.3974 47.1328 67.5754 47.5875 67.5754C48.0425 67.5754 48.4718 67.3974 48.7923 67.0755L50.952 64.9158V66.4357C50.952 66.8778 51.3092 67.2349 51.7515 67.2349H53.1513C55.5792 67.2349 57.5553 65.2589 57.5553 62.8294V60.3766L58.2883 59.6442C58.7262 59.2077 58.9678 58.6259 58.9678 58.0058C58.9686 57.685 58.8993 57.3771 58.776 57.0917L62.1657 53.7019C62.4876 53.3814 62.6656 52.9518 62.6656 52.4971C62.6656 52.041 62.4876 51.6128 62.1657 51.2923L60.7433 49.8701ZM52.1497 56.9368L53.8657 55.2219C54.0057 55.0822 54.1905 55.0114 54.3742 55.0114C54.5593 55.0114 54.743 55.0822 54.8827 55.2205L57.1582 57.496C57.2939 57.6331 57.3688 57.8139 57.3688 58.0059C57.3688 58.1965 57.2939 58.3758 57.1582 58.5115C57.1582 58.5115 57.1582 58.5115 57.1582 58.513L55.4422 60.2293C55.168 60.5003 54.699 60.5018 54.4251 60.2278L52.1512 57.955C51.8715 57.6742 51.8715 57.2178 52.1497 56.9368ZM47.6622 65.9454C47.62 65.9851 47.5548 65.9851 47.5123 65.9454L46.0899 64.3734L51.2268 59.2931L52.7713 60.8362L47.6622 65.9454ZM53.1512 65.6363H52.5507V63.3171L54.0243 61.8432C54.315 61.9674 54.6232 62.0373 54.9337 62.0373C55.2884 62.0373 55.6318 61.9296 55.9563 61.768V62.8296C55.9563 64.3762 54.6977 65.6363 53.1512 65.6363ZM57.7649 55.8427L56.2491 54.3269L59.6134 50.9998L61.0358 52.572L57.7649 55.8427ZM48.3868 71.4938V79.1989C48.3868 79.641 48.0296 79.9981 47.5873 79.9981C47.1452 79.9981 46.7881 79.6408 46.7881 79.1989V71.4938C46.7881 71.0517 47.1454 70.6942 47.5873 70.6942C48.0296 70.6942 48.3868 71.0518 48.3868 71.4938Z" fill="#231F20"/>
</svg>
