<svg width="80" height="73" viewBox="0 0 80 73" fill="none" xmlns="http://www.w3.org/2000/svg">
<path d="M56.2679 16.6949C54.563 16.6949 53.1807 18.0768 53.1807 19.7812C53.1807 21.4858 54.5628 22.8674 56.2679 22.8674H68.7513C70.4566 22.8674 71.8389 21.4858 71.8389 19.7812C71.8389 18.0767 70.4566 16.6949 68.7513 16.6949H68.6833C68.6833 15.4588 67.6809 14.4568 66.4446 14.4568C65.208 14.4568 64.2056 15.4589 64.2056 16.6949C64.2056 14.5432 62.4609 12.7989 60.3084 12.7989C58.1563 12.7989 56.4113 14.5432 56.4113 16.6949H56.2679V16.6949Z" fill="white"/>
<path d="M73.9995 30C73.9995 46.5685 60.5681 60 43.9995 60C27.431 60 13.9995 46.5685 13.9995 30C13.9995 13.4315 27.431 0 43.9995 0C60.5681 0 73.9995 13.4315 73.9995 30Z" fill="#79E4FF"/>
<path d="M4.49951 35.6343V40.2994L7.82502 45L4.49951 51L6.99951 51.5L0.99983 62.5237L0.999512 73H78.9989L78.9992 56.4606C78.9992 56.4577 78.9995 56.4548 78.9995 56.4515V52.7511V40.2805L78.9992 40.2759V32.0122H61.8893C60.9264 32.0122 60.1456 32.8026 60.1456 33.7778V36.3626C60.1456 36.8881 60.2949 37.4025 60.5758 37.8444L62.1363 40.2994H56.0208C56.0208 37.8539 54.0628 35.8715 51.648 35.8715H45.5342V35.3925C45.5342 34.4407 45.1606 33.5276 44.4962 32.8543L41.4201 29.7397C40.7553 29.0665 39.8539 28.6882 38.9136 28.6882H26.0454H26.0433C25.2277 27.3594 23.9456 26.3616 22.4202 25.9256L21.2508 25.5913C19.5357 23.9836 17.2424 23 14.7209 23C12.1997 23 9.90619 23.984 8.19098 25.5913C4.75547 27.1249 2.53914 30.5679 2.53914 34.3697V35.6343H4.49951Z" fill="#C6C6C6"/>
<path d="M62.908 56.6259V40H55.2233V55.6257C55.2233 58.4663 52.9494 60.769 50.1444 60.769H66.9995C64.7398 60.769 62.908 58.9143 62.908 56.6259Z" fill="#7A7979"/>
<path d="M32.4935 52.2663C35.817 52.2663 38.5112 54.9607 38.5112 58.284V72.039H34.1379V58.284C34.1379 54.9605 31.4439 52.2663 28.1205 52.2663H32.4935Z" fill="#7A7979"/>
<path d="M51.3572 55.0484C50.915 55.0484 50.5577 54.6911 50.5577 54.2488V40.148C50.5577 39.7059 50.915 39.3484 51.3572 39.3484C51.7993 39.3484 52.1564 39.7061 52.1564 40.148V54.2488C52.1566 54.6911 51.7993 55.0484 51.3572 55.0484Z" fill="#F6F6F6"/>
<path d="M37.0175 48.493C36.5754 48.493 36.2183 48.1354 36.2183 47.6935V39.1478C36.2183 37.3441 34.749 35.8752 32.9455 35.8752C32.5034 35.8752 32.1459 35.5176 32.1459 35.0756C32.1459 34.6336 32.5035 34.2761 32.9455 34.2761C35.632 34.2761 37.8172 36.4614 37.8172 39.1478V47.6935C37.817 48.1354 37.4597 48.493 37.0175 48.493Z" fill="#F6F6F6"/>
<path d="M10.402 45.2936C9.89226 45.2936 9.40202 45.0774 9.05754 44.7003L7.18873 42.6566C6.63209 42.0466 6.32697 41.2568 6.32697 40.4321V33.238C6.32697 30.2393 8.21129 27.5078 11.0179 26.4426C11.4318 26.2818 11.8953 26.495 12.0491 26.906C12.2073 27.3185 11.9996 27.7803 11.5857 27.9371C9.39786 28.7691 7.92601 30.899 7.92601 33.238V40.4321C7.92601 40.8571 8.08425 41.2641 8.37097 41.5789L10.2382 43.6214C10.6803 43.6214 11.1196 44.0154 11.1196 44.4578C11.1196 44.8995 10.8443 45.2936 10.402 45.2936Z" fill="#F6F6F6"/>
<path d="M3.40325 63.6009C3.26069 63.6009 3.11509 63.563 2.98517 63.4823C2.60789 63.2506 2.49221 62.7577 2.72373 62.3822L3.12357 61.7337C3.35525 61.3567 3.85109 61.2422 4.22405 61.4724C4.60133 61.7041 4.71701 62.197 4.48533 62.5729L4.08549 63.2212C3.93429 63.467 3.67157 63.6009 3.40325 63.6009Z" fill="#F6F6F6"/>
<path d="M5.06998 60.8975C4.92742 60.8975 4.78181 60.8593 4.65173 60.7789C4.27477 60.5473 4.15877 60.0543 4.39045 59.6785L7.06998 55.332C7.30166 54.9551 7.79463 54.8405 8.17047 55.0708C8.54599 55.3024 8.66343 55.7954 8.43175 56.1712L5.75222 60.5173C5.60118 60.7633 5.33814 60.8975 5.06998 60.8975Z" fill="#F6F6F6"/>
<path d="M74.4005 54.5001H73.2408C72.7987 54.5001 72.4413 54.1428 72.4413 53.7009C72.4413 53.2586 72.7989 52.9013 73.2408 52.9013H74.2013V40.833C74.2013 40.3909 74.5589 40.0338 75.0008 40.0338C75.4429 40.0338 75.8003 40.391 75.8003 40.833V53.1007C75.8003 53.873 75.1731 54.5001 74.4005 54.5001Z" fill="#F6F6F6"/>
<path d="M56.1439 16.8692C54.4077 16.8692 53 18.2418 53 19.9346C53 21.6278 54.4077 23 56.1439 23H68.8561C70.5923 23 72 21.6278 72 19.9346C72 18.2418 70.5923 16.8692 68.8561 16.8692H68.7869C68.7869 15.6417 67.7662 14.6464 66.5072 14.6464C65.2482 14.6464 64.2275 15.6417 64.2275 16.8692C64.2275 14.7323 62.4506 13 60.2588 13C58.067 13 56.2902 14.7323 56.2902 16.8692H56.1439V16.8692Z" fill="white"/>
<path d="M42.7973 23.868H56.2681H57.1833H68.7515C70.8956 23.868 72.6389 22.1248 72.6389 19.9821C72.6389 18.0738 71.2572 16.4832 69.3929 16.157C69.0624 14.8379 67.8662 13.8574 66.4452 13.8574C65.6697 13.8574 64.9606 14.1499 64.4223 14.6301C63.6217 13.1822 62.0763 12.2005 60.3079 12.2005C57.9743 12.2005 56.0335 13.9098 55.6705 16.1416C53.8105 16.4298 52.3809 18.0427 52.3809 19.9821C52.3809 20.8539 52.7231 21.6197 53.2101 22.2688H42.7973C42.3551 22.2688 41.9978 22.6264 41.9978 23.0684C41.9978 23.5104 42.3551 23.868 42.7973 23.868ZM53.9799 19.9821C53.9799 18.7208 55.0068 17.6954 56.2681 17.6954H56.4106C56.8527 17.6954 57.2102 17.3378 57.2102 16.8958C57.2102 15.1898 58.5999 13.7997 60.3078 13.7997C62.0167 13.7997 63.4068 15.1896 63.4068 16.8958C63.4068 17.3379 63.7641 17.6954 64.206 17.6954C64.6483 17.6954 65.0055 17.3378 65.0055 16.8958C65.0055 16.1021 65.651 15.4563 66.4449 15.4563C67.2387 15.4563 67.8841 16.1019 67.8841 16.8958C67.8841 17.3379 68.3094 17.6954 68.7513 17.6954C70.0129 17.6954 71.0395 18.7208 71.0395 19.9821C71.0395 21.2434 70.0128 22.2688 68.7513 22.2688C64.2337 22.2688 61.7008 22.2688 57.1831 22.2688H56.2679C55.0069 22.2688 53.9799 21.2434 53.9799 19.9821ZM36.7008 23.0685C36.7008 22.6264 37.0584 22.269 37.5003 22.269H38.9128C39.3549 22.269 39.712 22.6266 39.712 23.0685C39.712 23.5106 39.3547 23.868 38.9128 23.868H37.5003C37.0584 23.868 36.7008 23.5104 36.7008 23.0685ZM7.33957 32.1634C6.89749 32.1634 6.54037 31.8061 6.54037 31.3642C6.54037 30.922 6.89765 30.5647 7.33957 30.5647H10.4724C11.3753 30.5647 12.1097 31.2977 12.1097 32.2002V38.2302C12.1097 38.6723 11.7521 39.0297 11.3101 39.0297C10.8681 39.0297 10.5106 38.6721 10.5106 38.2302V32.2002L7.33957 32.1634ZM13.4828 38.2302V32.2002C13.4828 31.2977 14.2158 30.5647 15.1183 30.5647H18.2526C18.6947 30.5647 19.0521 30.922 19.0521 31.3642C19.0521 31.8063 18.6945 32.1634 18.2526 32.1634H15.1183L15.0815 38.2302C15.0815 38.6723 14.7242 39.0297 14.282 39.0297C13.8399 39.0297 13.4828 38.6721 13.4828 38.2302ZM16.5562 42.1484C16.5562 42.5905 16.1986 42.948 15.7567 42.948H10.8796C10.4373 42.948 10.0801 42.5904 10.0801 42.1484C10.0801 41.7063 10.4373 41.3489 10.8796 41.3489H15.7567C16.1988 41.3489 16.5562 41.7063 16.5562 42.1484ZM34.9864 44.612H38.0175C38.4597 44.612 38.817 44.9692 38.817 45.4112C38.817 45.8534 38.4597 46.2107 38.0175 46.2107H34.9864C34.5442 46.2107 34.1869 45.8534 34.1869 45.4112C34.1869 44.9691 34.5442 44.612 34.9864 44.612ZM31.2403 36.333H34.1982C35.0739 36.333 35.7858 37.0463 35.7858 37.9235V41.7697C35.7858 42.2119 35.4285 42.5692 34.9866 42.5692C34.5443 42.5692 34.187 42.2119 34.187 41.7697V37.9235L31.2405 37.9321C30.7984 37.9321 30.4413 37.5745 30.4413 37.1326C30.4413 36.6906 30.7982 36.333 31.2403 36.333ZM1.48083 62.422L7.97686 51.8861C8.12934 51.6401 8.13622 51.3294 7.9951 51.0766C7.85254 50.8238 7.58549 50.667 7.29589 50.667H5.59237L8.0671 46.4268C8.16598 46.5131 8.26646 46.5963 8.37222 46.6753L13.8676 63.2744L12.6746 66.9023C12.5361 67.3218 12.7649 67.7738 13.1844 67.9122C13.2681 67.9391 13.3513 67.9533 13.4346 67.9533C13.7708 67.9533 14.0844 67.7386 14.1946 67.4026L15.47 63.5252V63.5237L21.0817 46.458C21.1483 46.4001 21.2131 46.3409 21.2767 46.2801L23.8377 50.6673H22.1342C21.8446 50.6673 21.5775 50.8241 21.435 51.0769C21.2939 51.3297 21.3007 51.6405 21.4532 51.8864L27.4537 61.6186L20.8531 64.3092C20.4449 64.476 20.2473 64.9421 20.4155 65.3517C20.582 65.7599 21.0524 65.9618 21.4577 65.7896L28.9326 62.7428C29.1502 62.6554 29.3182 62.4746 29.3902 62.2512C29.4637 62.0282 29.4339 61.7823 29.3112 61.5832L23.5678 52.2661H25.2316H29.1201C31.9976 52.2661 34.3378 54.608 34.3378 57.4853V71.2402C34.3378 71.6825 34.6954 72.0398 35.1373 72.0398C35.5792 72.0398 35.9368 71.6825 35.9368 71.2402V57.4853C35.9368 55.3794 34.9573 53.5176 33.4534 52.2661H36.2574C39.4343 52.2661 42.0175 49.6829 42.0175 46.5073V38.3487C42.0175 37.9467 41.9556 37.5611 41.8986 37.1745C41.8994 37.1583 41.9159 37.149 41.9159 37.1326C41.9159 37.1057 41.8901 37.09 41.8876 37.0638C41.3093 33.4874 38.3871 30.7236 34.7446 30.3586V29.2172H38.9085C39.636 29.2172 40.3479 29.5122 40.8634 30.0266L43.9554 33.1185C44.4749 33.6398 44.7634 34.3332 44.7634 35.0719V44.3803C44.7634 44.8704 44.6474 45.3648 44.4357 45.7955L41.7223 51.1022C41.5203 51.4961 41.6772 51.9779 42.0696 52.1787C42.1868 52.2381 42.3112 52.2661 42.4341 52.2661C42.7237 52.2661 43.0045 52.1082 43.146 51.8314L45.8648 46.5132C46.0346 46.1692 46.1573 45.8043 46.2408 45.4302L48.7532 45.4227V49.4182C47.9669 49.4293 47.2076 49.6581 46.5541 50.0966C45.4325 50.8496 44.7632 52.1054 44.7632 53.4557V55.1323C44.7632 55.4346 44.9325 55.7115 45.2039 55.8469C45.317 55.905 45.4397 55.9317 45.5626 55.9317C45.732 55.9317 45.9002 55.8781 46.0402 55.7734L46.9581 55.0899C47.6856 54.549 48.5853 54.2496 49.4922 54.2496H55.3047V55.011C55.3047 57.3048 53.4374 59.1709 51.1434 59.1709H50.7253H42.4468C42.0045 59.1709 41.6472 59.5282 41.6472 59.9701C41.6472 60.4123 42.0045 60.7696 42.4468 60.7696H50.7253H51.1434H56.8794C57.3217 60.7696 57.679 60.4123 57.679 59.9701C57.679 59.528 57.3217 59.1709 56.8794 59.1709H55.1062C56.2081 58.1211 56.9035 56.6493 56.9035 55.011V53.4501V50.2099V39.9425C56.9035 37.078 54.573 34.7487 51.7084 34.7487H46.3308C46.2538 33.7068 45.8309 32.7334 45.0855 31.9887L41.9935 28.8965C41.1815 28.0831 40.057 27.6183 38.9087 27.6183H26.3473C25.4248 26.3344 24.1265 25.3512 22.548 24.9063L21.5137 24.6141C19.5979 22.9192 17.1561 21.9727 14.5927 21.9727C13.8287 21.9727 13.0876 22.0655 12.3697 22.2218C12.1206 22.2756 11.8895 22.3754 11.6461 22.4469C11.1882 22.5826 10.734 22.7205 10.3045 22.9149C10.0271 23.0399 9.77142 23.1999 9.5055 23.3488C9.13462 23.5575 8.7719 23.7712 8.43062 24.0216C8.18102 24.2047 7.9487 24.4058 7.71461 24.612C7.71205 24.6132 7.70933 24.6112 7.70677 24.6127C3.965 26.2596 1.54835 29.9676 1.54835 34.0578V35.3121C1.54835 35.7542 1.90563 36.1116 2.34787 36.1116H4.12612V39.6331C4.12612 41.2588 4.72932 42.8155 5.82677 44.016L6.92197 45.2144L3.5074 51.0627C3.3634 51.3115 3.36196 51.6163 3.50484 51.8651C3.6474 52.1136 3.91156 52.2661 4.19828 52.2661H5.86213L0.119064 61.5831C-0.112297 61.9586 0.0033837 62.4516 0.380505 62.6832C0.753307 62.9178 1.24915 62.7962 1.48083 62.422ZM46.3626 43.8334V40.7415H46.6536C48.1521 40.7415 49.6013 40.2654 50.8303 39.3657C52.0366 40.2569 53.4986 40.7415 55.0142 40.7415H55.3052V43.8334H53.147C52.2698 43.8334 51.558 44.5452 51.558 45.4224V49.4097H50.3532V45.4224C50.3532 44.5452 49.6413 43.8334 48.7642 43.8334H46.3626ZM53.1551 49.4099L53.1468 45.4323H55.305V49.4099H53.1551ZM49.4925 52.6504C48.3895 52.6504 47.2935 52.9709 46.3626 53.5598V53.4554C46.3626 52.639 46.7679 51.8803 47.4474 51.424C47.8513 51.1529 48.3217 51.0089 48.809 51.0089H55.305V52.6502L49.4925 52.6504ZM55.2145 39.1425H55.014C53.665 39.1425 52.3697 38.6455 51.3685 37.7415C51.0634 37.4687 50.5618 37.5041 50.2583 37.7769C49.2623 38.6569 47.9826 39.1425 46.6536 39.1425H46.3626V36.3471H51.7087C53.4166 36.3471 54.8502 37.5436 55.2145 39.1425ZM18.3004 49.7955H11.0908L10.3583 47.5833C10.6991 47.656 11.0485 47.6939 11.402 47.6939H17.7823C18.2159 47.6939 18.6387 47.619 19.0519 47.5102L18.3004 49.7955ZM11.6201 51.3945H17.7745L14.7076 60.7207L11.6201 51.3945ZM40.065 36.333H38.8072C37.9298 36.333 37.2183 37.0463 37.2183 37.9235V41.7697C37.2183 42.2119 37.5755 42.5692 38.0175 42.5692C38.4597 42.5692 38.817 42.2119 38.817 41.7697L38.8072 37.9321H40.3765C40.3858 38.0724 40.4187 38.206 40.4187 38.3487V46.5073C40.4187 48.8013 38.5515 50.6672 36.2574 50.6672H25.692L22.4128 45.0508L23.3587 44.0158C24.4227 42.8518 25.0105 41.3492 25.0449 39.7742C25.3897 39.7059 25.7291 39.6167 26.0696 39.5289V44.3339C26.0696 44.776 26.4269 45.1331 26.8688 45.1331C27.3107 45.1331 27.6683 44.7758 27.6683 44.3339V39.0383C27.7728 38.9804 27.8451 38.8884 27.9405 38.8203C28.064 38.7321 28.18 38.6467 28.2873 38.5425C28.4502 38.3854 28.5809 38.2116 28.7038 38.0244C28.7811 37.907 28.8638 37.7996 28.9243 37.6726C29.0289 37.4531 29.0862 37.2199 29.136 36.9795C29.1608 36.8606 29.2065 36.7515 29.2166 36.6292C29.2481 36.2598 29.2249 35.8812 29.1145 35.5028L28.8009 34.4238C30.0225 32.822 31.9182 31.877 33.9451 31.877C36.8062 31.8767 39.2119 33.755 40.065 36.333ZM33.1458 29.217V30.3762C31.2961 30.5623 29.5923 31.3522 28.2848 32.6518L27.4424 29.7596C27.3862 29.5663 27.2784 29.4026 27.2072 29.2172L33.1458 29.217ZM25.9054 30.2058L27.4256 35.4258L27.5777 35.9503C27.6339 36.1418 27.6494 36.3348 27.6297 36.5207C27.5707 37.0785 27.1918 37.5711 26.6216 37.7553C25.8113 38.0166 24.9736 38.2177 24.1312 38.3531C23.8262 38.4025 23.5182 38.4419 23.2104 38.4745C24.4065 36.7004 25.0577 34.59 25.0577 32.4386C25.0577 32.329 25.0545 32.2074 25.0491 32.0646C25.0473 32.0058 25.048 31.9463 25.0451 31.8878C25.0448 31.8831 25.0398 31.8805 25.0393 31.8759C25.0364 31.8201 25.0356 31.7825 25.0312 31.7154L25.0028 31.3441C25.0014 31.3386 24.9774 31.1479 24.976 31.1421L24.9294 30.7962C24.924 30.7612 24.8875 30.7465 24.8774 30.7138C24.8785 30.6962 24.8942 30.6826 24.8942 30.6649C24.8942 30.6169 24.8899 30.5689 24.8814 30.5209L24.8334 30.2706C24.8334 30.2666 24.784 30.0589 24.7825 30.0545L24.7105 29.7565C24.7076 29.7497 24.6555 29.5629 24.654 29.5561L24.5595 29.2381C24.558 29.2338 24.5528 29.2329 24.5513 29.2285L24.4958 29.0516L24.3827 28.734C24.3801 28.7271 24.3713 28.7258 24.3688 28.7189L24.3164 28.566L24.1793 28.2383C24.1704 28.2178 24.1449 28.2149 24.1345 28.1957C24.1235 28.1573 24.1259 28.1173 24.1088 28.0801L23.9563 27.761C23.9459 27.7402 23.9201 27.7388 23.9083 27.7194C23.8968 27.6871 23.9001 27.6525 23.8843 27.621L23.7089 27.2962C23.7028 27.2855 23.6889 27.2855 23.6825 27.2754L23.6313 27.1634L23.6001 27.1125C24.7035 27.8188 25.527 28.9049 25.9054 30.2058ZM9.35158 25.3252C9.54662 25.1826 9.74326 25.0434 9.9495 24.9192C10.1474 24.7964 10.3565 24.6922 10.5642 24.5852C13.0732 23.3456 16.166 23.3413 18.6851 24.6138C18.8075 24.678 18.9353 24.7301 19.0548 24.8C19.3019 24.9404 19.5299 25.113 19.7623 25.2791C19.9009 25.3792 20.0369 25.4824 20.1699 25.5912H9.02934C9.1375 25.5031 9.23926 25.4082 9.35158 25.3252ZM3.1474 34.5122V34.0575C3.1474 32.2706 3.69412 30.57 4.65892 29.1505C4.57972 29.3889 4.54068 29.6393 4.47876 29.8834C4.42372 30.101 4.3602 30.3124 4.31876 30.5351C4.20212 31.1605 4.12644 31.795 4.12644 32.4386V34.5122H3.1474ZM5.72517 39.6329V35.3119V32.4388C5.72517 31.8249 5.78997 31.2169 5.91493 30.6236C5.92277 30.5868 5.94005 30.5541 5.94821 30.5177C6.07061 29.9716 6.23781 29.4367 6.45941 28.9244C6.51925 28.7865 6.60693 28.6649 6.67381 28.5305C6.86581 28.1413 7.06613 27.7561 7.31397 27.398C7.36517 27.3242 7.43173 27.2626 7.48517 27.1903H21.6985L22.7161 28.8852L23.3057 30.8013L23.3208 30.8812C23.3236 30.8969 23.3393 30.9029 23.3427 30.9181C23.3427 30.9204 23.3404 30.9225 23.3404 30.9249C23.3404 30.9674 23.3433 31.0125 23.3502 31.0562L23.4462 31.9674C23.4545 32.1242 23.459 32.281 23.459 32.439C23.459 34.5324 22.7344 36.5806 21.4193 38.2063L20.8926 38.859C20.699 39.0991 20.6609 39.4283 20.7937 39.7065C20.9265 39.9844 21.2076 40.1612 21.5155 40.1612C22.1568 40.1612 22.8011 40.1273 23.4409 40.0595C23.3475 41.1286 22.9084 42.1388 22.1779 42.9366L20.3091 44.9806C19.6622 45.6881 18.7401 46.0948 17.7822 46.0948H11.402C10.4433 46.0948 9.52374 45.6875 8.87686 44.982L8.5023 44.571L8.4991 44.5689L7.00789 42.9366C6.18165 42.0313 5.72517 40.8588 5.72517 39.6329ZM18.206 65.3882C18.6185 65.2242 19.0803 65.4191 19.2483 65.8289C19.4137 66.2385 19.2174 66.7049 18.8076 66.8714L18.0987 67.1596C17.9998 67.1993 17.8979 67.2189 17.7979 67.2189C17.4828 67.2189 17.1835 67.0298 17.0561 66.7188C16.891 66.3092 17.0873 65.8431 17.4969 65.6765L18.206 65.3882ZM50.0068 56.9019C49.5645 56.9019 49.2073 56.5447 49.2073 56.1024C49.2073 55.6603 49.5645 55.3032 50.0068 55.3032H51.446C51.8881 55.3032 52.2455 55.6605 52.2455 56.1024C52.2455 56.5447 51.8879 56.9019 51.446 56.9019H50.0068ZM76.1109 36.0337H67.4777C65.2952 36.0337 63.4732 37.5449 62.9638 39.5716L61.3799 37.1116C61.1609 36.7726 61.0492 36.4095 61.0492 36.0351V33.4687C61.0492 32.9446 61.4774 32.5167 62.0027 32.5167H79.1999C79.6421 32.5167 79.9994 32.1594 79.9994 31.7172C79.9994 31.2751 79.6421 30.918 79.1999 30.918H62.003C60.5948 30.918 59.4507 32.0622 59.4507 33.4689V36.0353C59.4507 36.7231 59.6471 37.3772 60.0353 37.979L62.8094 42.2868V52.3016V55.9739C62.8094 57.2059 63.2896 58.32 64.056 59.1704H62.76C62.3179 59.1704 61.9608 59.5277 61.9608 59.9696C61.9608 60.4119 62.318 60.7691 62.76 60.7691H67.6037H68.0809H75.2056C77.8499 60.7691 79.9995 58.6178 79.9995 55.9738V52.3014V39.9235C79.9994 37.778 78.2551 36.0337 76.1109 36.0337ZM67.4777 37.6327H76.1109C77.3736 37.6327 78.4005 38.6609 78.4005 39.9235V52.3014C78.4005 53.9566 77.0544 55.303 75.4003 55.303H67.4084C65.7544 55.303 64.4083 53.9568 64.4083 52.3014V44.0289L66.7798 44.0568V49.1571C66.7798 49.5993 67.1371 49.9566 67.5793 49.9566C68.0214 49.9566 68.3785 49.5993 68.3785 49.1571V44.0568C68.3785 43.1539 67.6441 42.4209 66.7416 42.4209H64.4083V42.2713C64.4129 42.252 64.4051 42.2345 64.4083 42.2152V40.7033C64.4084 39.0097 65.7854 37.6327 67.4777 37.6327ZM64.4084 55.7874C64.4432 55.8171 64.4908 55.8288 64.5265 55.8576C64.8888 56.1519 65.287 56.3992 65.728 56.5736C65.7841 56.5955 65.8422 56.6069 65.8992 56.6269C66.3353 56.7797 66.7964 56.8754 67.2812 56.889V59.1051C65.6777 58.9354 64.4084 57.6223 64.4084 55.9739V55.7874ZM68.8805 56.9019H70.1701V59.1704H68.8805V56.9019ZM71.7688 56.9019H73.2406V59.1704H71.7688V56.9019ZM78.4005 55.9739C78.4005 57.7368 76.9669 59.1704 75.2054 59.1704H74.8395V56.9019H75.4005C75.9318 56.9019 76.4347 56.7931 76.9099 56.6269C76.9666 56.6069 77.0251 56.5957 77.081 56.5736C77.5216 56.3995 77.9199 56.1522 78.2821 55.8579C78.3176 55.829 78.3659 55.8171 78.4007 55.7874L78.4005 55.9739ZM71.7688 52.3014C71.7688 52.7435 71.4115 53.1006 70.9693 53.1006H67.1598C66.7177 53.1006 66.3606 52.7434 66.3606 52.3014C66.3606 51.8592 66.7179 51.5019 67.1598 51.5019H70.9693C71.4117 51.5019 71.7688 51.8592 71.7688 52.3014ZM40.0008 59.1704C40.4429 59.1704 40.8 59.5277 40.8 59.9696C40.8 60.4119 40.4427 60.7691 40.0008 60.7691H39.3439C38.9018 60.7691 38.5447 60.4119 38.5447 59.9696C38.5447 59.5275 38.9019 59.1704 39.3439 59.1704H40.0008ZM69.7517 49.1571V44.0568C69.7517 43.1539 70.4849 42.4209 71.3875 42.4209H74.5218C74.9638 42.4209 75.321 42.7785 75.321 43.2204C75.321 43.6625 74.9637 44.02 74.5218 44.02H71.3875L71.3507 49.1569C71.3507 49.5992 70.9931 49.9565 70.5512 49.9565C70.1093 49.9566 69.7517 49.5993 69.7517 49.1571ZM56.9038 65.4799C56.9038 65.9221 56.5465 66.2794 56.1046 66.2794H45.9896C45.5474 66.2794 45.1901 65.9221 45.1901 65.4799C45.1901 65.0378 45.5474 64.6807 45.9896 64.6807H56.1046C56.5465 64.6805 56.9038 65.0378 56.9038 65.4799ZM61.0494 65.4799C61.0494 65.9221 60.6921 66.2794 60.2502 66.2794H59.1739C58.7318 66.2794 58.3743 65.9221 58.3743 65.4799C58.3743 65.0378 58.7319 64.6807 59.1739 64.6807H60.2502C60.6921 64.6805 61.0494 65.0378 61.0494 65.4799ZM58.6412 59.9696C58.6412 59.5275 58.9988 59.1704 59.4407 59.1704H60.0411C60.4831 59.1704 60.8406 59.5277 60.8406 59.9696C60.8406 60.4119 60.483 60.7691 60.0411 60.7691H59.4407C58.9987 60.7693 58.6412 60.412 58.6412 59.9696ZM73.7605 63.2397C73.7605 63.6818 73.4029 64.0392 72.961 64.0392H69.2152V65.4277H70.6376C71.0797 65.4277 71.4371 65.785 71.4371 66.2269C71.4371 66.6692 71.0795 67.0265 70.6376 67.0265H66.9932V68.8399C66.9932 69.2821 66.636 69.6394 66.194 69.6394C65.7518 69.6394 65.3945 69.2821 65.3945 68.8399V66.2268C65.3945 65.7847 65.7518 65.4276 66.194 65.4276H67.6165V63.2394C67.6165 62.7973 67.9737 62.4399 68.4157 62.4399H72.9611C73.403 62.4402 73.7605 62.7976 73.7605 63.2397Z" fill="#231F20"/>
</svg>
