<svg width="80" height="80" viewBox="0 0 80 80" fill="none" xmlns="http://www.w3.org/2000/svg">
<g clip-path="url(#clip0)">
<path d="M40.5 74C60.6584 74 77 57.6584 77 37.5C77 17.3416 60.6584 1 40.5 1C20.3416 1 4 17.3416 4 37.5C4 57.6584 20.3416 74 40.5 74Z" fill="#79E4FF"/>
<path d="M77 60H4C2.34315 60 1 61.3431 1 63V77C1 78.6569 2.34314 80 4 80H77C78.6569 80 80 78.6569 80 77V63C80 61.3431 78.6569 60 77 60Z" fill="#08AF6C"/>
<path d="M65.7518 27.7034H14.1462V35.3683H65.7518V27.7034Z" fill="white"/>
<path d="M67.2947 24.8005H12.6035V26.1158C12.6035 26.9926 13.3146 27.7033 14.191 27.7033H65.707C66.5838 27.7033 67.2945 26.9926 67.2945 26.1158V24.8005H67.2947Z" fill="white"/>
<path d="M72.7808 35.3683H7.11774V36.9027C7.11774 37.9253 7.94686 38.7544 8.96942 38.7544H70.9288C71.9517 38.7544 72.7808 37.9253 72.7808 36.9027V35.3683V35.3683Z" fill="white"/>
<path d="M68.7754 46.0317H11.123V69.473H68.7754V46.0317Z" fill="#C6C6C6"/>
<path d="M47.6589 46.0317H32.2394V69.473H47.6589V46.0317Z" fill="#7A7979"/>
<path d="M71.4607 69.473H8.53729V72.8451H71.4607V69.473Z" fill="white"/>
<path d="M73.3808 72.8452H6.61682V76.2175H73.3808V72.8452Z" fill="white"/>
<path d="M75.2521 76.2174H4.74573V79.5896H75.2521V76.2174Z" fill="white"/>
<path d="M69.7574 38.7544H10.1406V46.0317H69.7574V38.7544Z" fill="white"/>
<path d="M23.9939 46.0317H19.3687V49.4251H23.9939V46.0317Z" fill="white"/>
<path d="M23.0118 49.4253H20.3507V69.4731H23.0118V49.4253Z" fill="white"/>
<path d="M33.2217 46.0317H28.5961V49.4251H33.2217V46.0317Z" fill="white"/>
<path d="M32.2394 49.4253H29.5786V69.4731H32.2394V49.4253Z" fill="white"/>
<path d="M14.7662 46.0317H10.1406V49.4251H14.7662V46.0317Z" fill="white"/>
<path d="M13.7838 49.4253H11.123V69.4731H13.7838V49.4253Z" fill="white"/>
<path d="M60.5301 46.0317H55.9045V49.4251H60.5301V46.0317Z" fill="white"/>
<path d="M59.5475 49.4253H56.8867V69.4731H59.5475V49.4253Z" fill="white"/>
<path d="M69.7576 46.0317H65.1323V49.4251H69.7576V46.0317Z" fill="white"/>
<path d="M68.7756 49.4253H66.1144V69.4731H68.7756V49.4253Z" fill="white"/>
<path d="M51.3021 46.0317H46.6768V49.4251H51.3021V46.0317Z" fill="white"/>
<path d="M50.32 49.4253H47.6589V69.4731H50.32V49.4253Z" fill="white"/>
<path d="M40.4371 58.487H39.4611C38.9601 58.487 38.5539 58.081 38.5539 57.5798V55.5902C38.5539 55.0893 38.96 54.6827 39.4611 54.6827H40.4371C40.9381 54.6827 41.3446 55.0891 41.3446 55.5902V57.5798C41.3446 58.081 40.9381 58.487 40.4371 58.487Z" fill="white"/>
<path d="M42.4395 64.6141H37.459V60.9773C37.459 59.6021 38.5739 58.4872 39.9491 58.4872C41.3246 58.4872 42.4395 59.6021 42.4395 60.9773V64.6141Z" fill="white"/>
<path d="M37.459 60.3792H35.0721V69.473H37.459V60.3792Z" fill="white"/>
<path d="M44.8261 60.3792H42.4395V69.473H44.8261V60.3792Z" fill="white"/>
<path d="M42.4395 64.6141H37.459V69.4731H42.4395V64.6141Z" fill="white"/>
<path d="M26.2539 24.8012C26.2539 24.3591 26.6126 24.0016 27.0531 24.0016H27.8668C28.3075 24.0016 28.6664 24.3592 28.6664 24.8012C28.6664 25.2431 28.3073 25.6007 27.8668 25.6007H27.0531C26.6126 25.6007 26.2539 25.2431 26.2539 24.8012ZM13.4654 41.7623C13.9059 41.7623 14.2646 41.405 14.2646 40.9628V40.7511C14.2646 40.309 13.9059 39.9516 13.4654 39.9516C13.0246 39.9516 12.6659 40.3092 12.6659 40.7511V40.9628C12.6657 41.405 13.0244 41.7623 13.4654 41.7623ZM20.0982 41.7623C20.539 41.7623 20.8977 41.405 20.8977 40.9628V40.7511C20.8977 40.309 20.539 39.9516 20.0982 39.9516C19.6576 39.9516 19.299 40.3092 19.299 40.7511V40.9628C19.2988 41.405 19.6576 41.7623 20.0982 41.7623ZM26.734 41.7623C27.1747 41.7623 27.5336 41.405 27.5336 40.9628V40.7511C27.5336 40.309 27.1745 39.9516 26.734 39.9516C26.2932 39.9516 25.9345 40.3092 25.9345 40.7511V40.9628C25.9345 41.405 26.2932 41.7623 26.734 41.7623ZM33.3672 41.7623C33.8078 41.7623 34.1664 41.405 34.1664 40.9628V40.7511C34.1664 40.309 33.8076 39.9516 33.3672 39.9516C32.9264 39.9516 32.5676 40.3092 32.5676 40.7511V40.9628C32.5676 41.405 32.9264 41.7623 33.3672 41.7623ZM40 41.7623C40.4408 41.7623 40.7995 41.405 40.7995 40.9628V40.7511C40.7995 40.309 40.4408 39.9516 40 39.9516C39.5593 39.9516 39.2008 40.3092 39.2008 40.7511V40.9628C39.2008 41.405 39.5595 41.7623 40 41.7623ZM46.6331 41.7623C47.0737 41.7623 47.4326 41.405 47.4326 40.9628V40.7511C47.4326 40.309 47.0736 39.9516 46.6331 39.9516C46.1923 39.9516 45.8336 40.3092 45.8336 40.7511V40.9628C45.8336 41.405 46.1923 41.7623 46.6331 41.7623ZM53.2662 41.7623C53.7068 41.7623 54.0654 41.405 54.0654 40.9628V40.7511C54.0654 40.309 53.7067 39.9516 53.2662 39.9516C52.8254 39.9516 52.4667 40.3092 52.4667 40.7511V40.9628C52.4667 41.405 52.8254 41.7623 53.2662 41.7623ZM59.899 41.7623C60.3398 41.7623 60.6985 41.405 60.6985 40.9628V40.7511C60.6985 40.309 60.3398 39.9516 59.899 39.9516C59.4584 39.9516 59.0998 40.3092 59.0998 40.7511V40.9628C59.0998 41.405 59.4585 41.7623 59.899 41.7623ZM66.5321 41.7623C66.9728 41.7623 67.3317 41.405 67.3317 40.9628V40.7511C67.3317 40.309 66.9726 39.9516 66.5321 39.9516C66.0915 39.9516 65.7326 40.3092 65.7326 40.7511V40.9628C65.7326 41.405 66.0915 41.7623 66.5321 41.7623ZM16.3185 78.7908H14.468C14.0273 78.7908 13.6688 79.148 13.6688 79.5903C13.6688 80.0324 14.0275 80.3895 14.468 80.3895H16.3185C16.7592 80.3895 17.118 80.0322 17.118 79.5903C17.118 79.1479 16.759 78.7908 16.3185 78.7908ZM45.438 78.7908H33.2228C32.7822 78.7908 32.4235 79.148 32.4235 79.5903C32.4235 80.0324 32.7822 80.3895 33.2228 80.3895H45.438C45.8787 80.3895 46.2376 80.0322 46.2376 79.5903C46.2377 79.1479 45.8787 78.7908 45.438 78.7908ZM52.4779 78.7908H48.1584C47.7177 78.7908 47.3592 79.148 47.3592 79.5903C47.3592 80.0324 47.7179 80.3895 48.1584 80.3895H52.4779C52.9185 80.3895 53.2774 80.0322 53.2774 79.5903C53.2776 79.1479 52.9185 78.7908 52.4779 78.7908ZM79.9989 79.5903C79.9989 80.0324 79.6398 80.3895 79.1993 80.3895H59.899C59.4584 80.3895 59.0998 80.0322 59.0998 79.5903C59.0998 79.148 59.4585 78.7908 59.899 78.7908H74.4534V77.0179H73.3798H6.61756H5.54412V78.7906H11.4398C11.8804 78.7906 12.239 79.1479 12.239 79.5901C12.239 80.0322 11.8803 80.3893 11.4398 80.3893H0.800764C0.360124 80.3893 0.00140381 80.032 0.00140381 79.5901C0.00140381 79.1479 0.360124 78.7906 0.800764 78.7906H3.94524V76.2183C3.94524 75.7762 4.30396 75.4191 4.74444 75.4191H5.81788V72.8453C5.81788 72.4032 6.1766 72.0458 6.6174 72.0458H7.739V69.474C7.739 69.0319 8.09772 68.6744 8.5382 68.6744H10.3236V50.2245H10.1403C9.69948 50.2245 9.34076 49.8672 9.34076 49.425V46.0324V39.5546H8.97084C7.50732 39.5546 6.3182 38.3653 6.3182 36.9034V35.3693V33.6701C6.3182 33.228 6.67692 32.8709 7.1174 32.8709C7.5582 32.8709 7.91692 33.2282 7.91692 33.6701V34.5701H13.3467V28.3324C12.4491 27.9893 11.8043 27.1333 11.8043 26.1162V24.8012C11.8043 24.3591 12.163 24.0016 12.6035 24.0016H23.4091C23.8497 24.0016 24.2083 24.3592 24.2083 24.8012C24.2083 25.2431 23.8496 25.6007 23.4091 25.6007H13.4032V26.1162C13.4032 26.5498 13.7564 26.9045 14.1912 26.9045H65.7072C66.1422 26.9045 66.4955 26.5498 66.4955 26.1162V25.6007H30.4603C30.0195 25.6007 29.6608 25.2431 29.6608 24.8012C29.6608 24.3592 30.0195 24.0016 30.4603 24.0016H67.295C67.7357 24.0016 68.0942 24.3592 68.0942 24.8012V26.1162C68.0942 27.1333 67.4494 27.9893 66.5518 28.3324V34.57H71.9816V33.67C71.9816 33.2279 72.3403 32.8708 72.7811 32.8708C73.2217 32.8708 73.5803 33.228 73.5803 33.67V35.3692V36.9032C73.5803 38.3653 72.391 39.5544 70.9276 39.5544H70.5577V46.0324V49.425C70.5577 49.8672 70.199 50.2245 69.7582 50.2245H69.5749V68.6743H71.4617C71.9024 68.6743 72.2613 69.0319 72.2613 69.4738V72.0458H73.3798C73.8205 72.0458 74.1793 72.4034 74.1793 72.8453V75.4191H75.2526C75.6934 75.4191 76.0521 75.7764 76.0521 76.2183V78.7906H79.1992C79.6398 78.7908 79.9989 79.1479 79.9989 79.5903ZM67.9757 50.2245H66.9134V68.6743H67.9757V50.2245ZM65.3145 68.6744V50.2245H65.1337C64.6933 50.2245 64.3342 49.8672 64.3342 49.425V46.8316H61.3286V49.425C61.3286 49.8672 60.9696 50.2245 60.5291 50.2245H60.3483V68.6743H65.3145V68.6744ZM56.0881 68.6744V50.2245H55.9048C55.464 50.2245 55.1053 49.8672 55.1053 49.425V46.8316H52.1022V49.425C52.1022 49.8672 51.7435 50.2245 51.3027 50.2245H51.1193V68.6743H56.0881V68.6744ZM46.859 68.6744V50.2245H46.6782C46.2376 50.2245 45.8787 49.8672 45.8787 49.425V46.8316H34.0224V49.425C34.0224 49.8672 33.6636 50.2245 33.2228 50.2245H33.0395V68.6743H34.2739V60.38C34.2739 59.938 34.6329 59.5808 35.0734 59.5808H36.9992C37.2265 59.1032 37.5788 58.7199 37.9956 58.4026C37.8556 58.1552 37.7544 57.8845 37.7544 57.5808V55.5906C37.7544 54.6498 38.5198 53.8842 39.4604 53.8842H40.4379C41.3787 53.8842 42.1441 54.65 42.1441 55.5906V57.5808C42.1441 57.8844 42.0428 58.1548 41.9032 58.4024C42.3209 58.7196 42.6737 59.1034 42.9014 59.581H44.8251C45.2657 59.581 45.6246 59.9383 45.6246 60.3802V68.6744H46.859V68.6744ZM41.6414 68.6744V65.4146H40.7488V68.6744H41.6414ZM39.1499 68.6744V65.4146H38.2601V68.6744H39.1499ZM36.6609 68.6744V64.6151V61.1799H35.8729V68.6744H36.6609ZM41.6414 63.8154V60.9778C41.6414 60.0455 40.8814 59.2869 39.9491 59.2869C39.0171 59.2869 38.26 60.0455 38.26 60.9778V63.8154H41.6414ZM40.5452 55.5906L39.4604 55.4832L39.3531 57.5808L40.4379 57.6882C40.4944 57.6882 40.5452 57.6388 40.5452 57.5808V55.5906ZM43.2401 68.6744H44.0256V61.1799H43.2401V64.6151V68.6744ZM28.7793 68.6744V50.2245H28.5956C28.155 50.2245 27.7964 49.8672 27.7964 49.425V46.8316H24.7936V49.425C24.7936 49.8672 24.4348 50.2245 23.994 50.2245H23.8104V68.6743H28.7793V68.6744ZM19.5502 68.6744V50.2245H19.3694C18.9286 50.2245 18.5699 49.8672 18.5699 49.425V46.8316H15.5668V49.425C15.5668 49.8672 15.2081 50.2245 14.7676 50.2245H14.584V68.6743H19.5502V68.6744ZM68.9589 43.7581H10.9396V45.2328H14.7676H19.3694H23.9937H28.5955H33.2227H46.678H51.3024H55.9044H60.5288H65.1334H68.9585V43.7581H68.9589ZM68.9589 46.8316H65.9332V48.6256H66.1141H68.7752H68.9589V46.8316ZM59.7296 46.8316H56.704V48.6256H56.8876H59.5488H59.7296V46.8316ZM50.5033 46.8316H47.4777V48.6256H47.6585H50.3196H50.5033V46.8316ZM32.4236 46.8316H29.3952V48.6256H29.5788H32.24H32.4236V46.8316ZM23.1945 46.8316H20.1689V48.6256H20.3497H23.0108H23.1945V46.8316ZM11.1233 48.6256H13.7844H13.9681V46.8316H10.9396V48.6256H11.1233ZM21.1491 68.6744H22.2113V50.2245H21.1491V68.6744ZM30.3782 68.6744H31.4404V50.2245H30.3782V68.6744ZM48.4579 68.6744H49.5201V50.2245H48.4579V68.6744ZM57.6872 68.6744H58.7494V50.2245H57.6872V68.6744ZM14.9456 28.5032V29.9368H64.9529V28.5032H14.9456ZM14.9456 34.57H17.262V33.67C17.262 33.2279 17.6208 32.8708 18.0612 32.8708C18.502 32.8708 18.8608 33.228 18.8608 33.67V34.57H28.2059V33.67C28.2059 33.2279 28.5646 32.8708 29.0052 32.8708C29.446 32.8708 29.8048 33.228 29.8048 33.67V34.57H39.1499V33.67C39.1499 33.2279 39.5086 32.8708 39.9491 32.8708C40.3899 32.8708 40.7486 33.228 40.7486 33.67V34.57H50.0937V33.67C50.0937 33.2279 50.4525 32.8708 50.8929 32.8708C51.3337 32.8708 51.6924 33.228 51.6924 33.67V34.57H61.0376V33.67C61.0376 33.2279 61.3963 32.8708 61.8368 32.8708C62.2776 32.8708 62.6363 33.228 62.6363 33.67V34.57H64.9528V31.5357H14.9456V34.57ZM8.97084 37.9557H10.1404H69.7582H70.9278C71.5099 37.9557 71.9816 37.4839 71.9816 36.9034V36.169H65.7526H14.146H7.91708V36.9034C7.91708 37.4839 8.38876 37.9557 8.97084 37.9557ZM10.9396 39.5546V42.1592H68.9589V39.5546H10.9396ZM11.9228 68.6744H12.9851V50.2245H11.9228V68.6744ZM9.33788 72.046H70.662V70.2735H68.7752H66.1141H59.5486H56.8875H50.3195H47.6584H44.8249H42.4408H37.4603H35.0732H32.2398H29.5787H23.0107H20.3496H13.7844H11.1233H9.33788V72.046ZM72.5803 75.4192V73.6452H71.4617H8.53836H7.41676V75.4192H72.5803Z" fill="#231F20"/>
</g>
<defs>
<clipPath id="clip0">
<rect width="80" height="80" fill="white"/>
</clipPath>
</defs>
</svg>
