<svg width="102" height="47" viewBox="0 0 102 47" fill="none" xmlns="http://www.w3.org/2000/svg">
<path opacity="0.2" d="M92.6698 47L33.6981 47C29.0478 47 25.2736 43.1716 25.2736 38.4545C25.2736 33.7375 29.0478 29.9091 33.6981 29.9091L42.1226 29.9091L42.1226 29.8963C45.5472 29.8194 48.3105 26.9908 48.3105 23.5C48.3105 20.0049 45.5514 17.1764 42.1226 17.1037L42.1226 17.0909L8.42453 17.0909C3.77419 17.0909 2.94942e-06 13.2625 3.3618e-06 8.54545C3.77418e-06 3.82836 3.77419 3.2995e-07 8.42453 7.36495e-07L71.6085 6.26021e-06C76.2588 6.66676e-06 80.033 3.82837 80.033 8.54546C80.033 13.2625 76.2588 17.0909 71.6085 17.0909C68.1207 17.0909 65.2901 19.9622 65.2901 23.5C65.2901 27.0378 68.1207 29.9091 71.6085 29.9091L92.6698 29.9091C97.3201 29.9091 101.094 33.7375 101.094 38.4546C101.094 43.1716 97.3201 47 92.6698 47Z" fill="white"/>
</svg>
