<svg
  width="102"
  height="47"
  viewBox="0 0 102 47"
  fill="none"
  xmlns="http://www.w3.org/2000/svg"
>
  <path
    opacity="0.2"
    d="M93.5 0H34C29.308 0 25.5 3.82836 25.5 8.54545C25.5 13.2625 29.308 17.0909 34 17.0909H42.5V17.1037C45.9552 17.1806 48.7433 20.0092 48.7433 23.5C48.7433 26.9951 45.9595 29.8236 42.5 29.8963V29.9091H8.5C3.808 29.9091 0 33.7375 0 38.4545C0 43.1716 3.808 47 8.5 47H72.25C76.942 47 80.75 43.1716 80.75 38.4545C80.75 33.7375 76.942 29.9091 72.25 29.9091C68.731 29.9091 65.875 27.0378 65.875 23.5C65.875 19.9622 68.731 17.0909 72.25 17.0909H93.5C98.192 17.0909 102 13.2625 102 8.54545C102 3.82836 98.192 0 93.5 0Z"
    fill="white"
  />
</svg>