<svg
  width="102"
  height="47"
  viewBox="0 0 102 47"
  fill="none"
  xmlns="http://www.w3.org/2000/svg"
>
  <path
    opacity="0.2"
    d="M8.5 47L68 47C72.692 47 76.5 43.1716 76.5 38.4545C76.5 33.7375 72.692 29.9091 68 29.9091L59.5 29.9091L59.5 29.8963C56.0448 29.8194 53.2567 26.9908 53.2567 23.5C53.2567 20.0049 56.0405 17.1764 59.5 17.1037L59.5 17.0909L93.5 17.0909C98.192 17.0909 102 13.2625 102 8.54545C102 3.82836 98.192 -3.32906e-07 93.5 -7.43094e-07L29.75 -6.3163e-06C25.058 -6.72648e-06 21.25 3.82835 21.25 8.54545C21.25 13.2625 25.058 17.0909 29.75 17.0909C33.269 17.0909 36.125 19.9622 36.125 23.5C36.125 27.0378 33.269 29.9091 29.75 29.9091L8.5 29.9091C3.808 29.9091 1.15945e-06 33.7374 7.47067e-07 38.4545C3.34686e-07 43.1716 3.808 47 8.5 47Z"
    fill="white"
  />
</svg>