<svg width="130" height="70" viewBox="0 0 130 70" fill="none" xmlns="http://www.w3.org/2000/svg">
<path opacity="0.2" fill-rule="evenodd" clip-rule="evenodd" d="M8.57143 7.07865C8.57143 3.16922 11.4496 0 15 0H93.5714C97.1218 0 100 3.16922 100 7.07865V7.07865C100 10.9881 97.1218 14.1573 93.5714 14.1573H89.2857C86.9188 14.1573 85 16.2701 85 18.8764V18.8764C85 21.4827 86.9188 23.5955 89.2857 23.5955H101.071C105.214 23.5955 108.571 27.2929 108.571 31.8539V31.8539C108.571 36.4149 105.214 40.1124 101.071 40.1124H95C92.6331 40.1124 90.7143 42.2252 90.7143 44.8315V44.8315C90.7143 47.4377 92.6331 49.5506 95 49.5506H120.714C125.843 49.5506 130 54.1283 130 59.7753V59.7753C130 65.4222 125.843 70 120.714 70H9.28572C4.15736 70 0 65.4222 0 59.7753V59.7753C0 54.1283 4.15736 49.5506 9.28571 49.5506H42.1429C44.5098 49.5506 46.4286 47.4377 46.4286 44.8315V44.8315C46.4286 42.2252 44.5098 40.1124 42.1429 40.1124H31.7857C27.6436 40.1124 24.2857 36.4149 24.2857 31.8539V31.0674C24.2857 26.9408 27.3238 23.5955 31.0714 23.5955H33.5714C35.9384 23.5955 37.8571 21.4827 37.8571 18.8764V18.8764C37.8571 16.2701 35.9384 14.1573 33.5714 14.1573H15C11.4496 14.1573 8.57143 10.9881 8.57143 7.07865V7.07865Z" fill="white"/>
</svg>
