<svg width="16" height="16" viewBox="0 0 16 16" fill="none" xmlns="http://www.w3.org/2000/svg">
<path opacity="0.7" d="M15.7313 6.75652L8.5526 0.215359C8.2375 -0.0717966 7.76235 -0.0717653 7.44738 0.215327L0.268688 6.75655C0.0162826 6.98655 -0.0670922 7.34092 0.0562199 7.65933C0.179563 7.97773 0.479875 8.18345 0.821342 8.18345H1.9679V14.7372C1.9679 14.997 2.17859 15.2077 2.43843 15.2077H6.37323C6.63307 15.2077 6.84376 14.9971 6.84376 14.7372V10.758H9.15631V14.7372C9.15631 14.9971 9.367 15.2078 9.62684 15.2078H13.5615C13.8213 15.2078 14.032 14.9971 14.032 14.7372V8.18345H15.1788C15.5202 8.18345 15.8205 7.9777 15.9439 7.65933C16.067 7.34089 15.9837 6.98655 15.7313 6.75652Z" fill="black"/>
</svg>
